<svg xmlns="http://www.w3.org/2000/svg" xmlns:xlink="http://www.w3.org/1999/xlink" width="327.33" height="258.559" viewBox="0 0 327.33 258.559">
  <defs>
    <linearGradient id="linear-gradient" x1="0.5" y1="1" x2="0.5" gradientUnits="objectBoundingBox">
      <stop offset="0" stop-color="gray" stop-opacity="0.251"/>
      <stop offset="0.54" stop-color="gray" stop-opacity="0.122"/>
      <stop offset="1" stop-color="gray" stop-opacity="0.102"/>
    </linearGradient>
    <linearGradient id="linear-gradient-4" y2="-0.001" xlink:href="#linear-gradient"/>
    <linearGradient id="linear-gradient-7" x1="29.773" y1="26.262" x2="29.773" y2="25.263" xlink:href="#linear-gradient"/>
    <linearGradient id="linear-gradient-8" y1="0.999" xlink:href="#linear-gradient"/>
    <linearGradient id="linear-gradient-9" x1="35.813" y1="30.815" x2="35.813" y2="29.815" xlink:href="#linear-gradient"/>
    <linearGradient id="linear-gradient-10" x1="39.503" y1="24.82" x2="39.503" y2="23.82" xlink:href="#linear-gradient"/>
    <linearGradient id="linear-gradient-11" x1="30.785" y1="19.69" x2="30.785" y2="18.69" xlink:href="#linear-gradient"/>
    <linearGradient id="linear-gradient-12" x1="25.655" y1="10.971" x2="25.655" y2="9.972" xlink:href="#linear-gradient"/>
    <linearGradient id="linear-gradient-13" x1="25.656" y1="0.713" x2="25.656" y2="-0.287" xlink:href="#linear-gradient"/>
    <linearGradient id="linear-gradient-14" x1="40.017" y1="-13.391" x2="40.017" y2="-14.391" xlink:href="#linear-gradient"/>
    <linearGradient id="linear-gradient-15" x1="50.274" y1="-13.135" x2="50.274" y2="-14.134" xlink:href="#linear-gradient"/>
    <linearGradient id="linear-gradient-16" x1="58.481" y1="-8.006" x2="58.481" y2="-9.006" xlink:href="#linear-gradient"/>
    <linearGradient id="linear-gradient-17" x1="63.609" y1="0.2" x2="63.609" y2="-0.799" xlink:href="#linear-gradient"/>
  </defs>
  <g id="Group_21" data-name="Group 21" transform="translate(0)">
    <rect id="Rectangle_111" data-name="Rectangle 111" width="313.381" height="207.223" transform="translate(13.949)" fill="url(#linear-gradient)"/>
    <rect id="Rectangle_112" data-name="Rectangle 112" width="307.113" height="176.473" transform="translate(16.691 24.483)" fill="#fff"/>
    <rect id="Rectangle_113" data-name="Rectangle 113" width="307.113" height="20.174" transform="translate(16.691 4.309)" fill="#a247cb"/>
    <rect id="Rectangle_114" data-name="Rectangle 114" width="299.279" height="153.948" transform="translate(21 37.214)" fill="url(#linear-gradient)"/>
    <rect id="Rectangle_115" data-name="Rectangle 115" width="36.039" height="28.792" transform="translate(24.722 39.956)" fill="#a247cb" opacity="0.5"/>
    <rect id="Rectangle_116" data-name="Rectangle 116" width="36.039" height="28.792" transform="translate(61.152 39.956)" fill="#fff"/>
    <rect id="Rectangle_117" data-name="Rectangle 117" width="36.039" height="28.792" transform="translate(97.583 39.956)" fill="#a247cb" opacity="0.2"/>
    <rect id="Rectangle_118" data-name="Rectangle 118" width="36.039" height="28.792" transform="translate(134.013 39.956)" fill="#fff"/>
    <rect id="Rectangle_119" data-name="Rectangle 119" width="36.039" height="28.792" transform="translate(170.444 39.956)" fill="#fff"/>
    <rect id="Rectangle_120" data-name="Rectangle 120" width="36.039" height="28.792" transform="translate(206.874 39.956)" fill="#a247cb" opacity="0.5"/>
    <rect id="Rectangle_121" data-name="Rectangle 121" width="36.039" height="28.792" transform="translate(243.305 39.956)" fill="#fff"/>
    <rect id="Rectangle_122" data-name="Rectangle 122" width="36.039" height="28.792" transform="translate(279.735 39.956)" fill="#a247cb" opacity="0.2"/>
    <rect id="Rectangle_123" data-name="Rectangle 123" width="36.039" height="28.792" transform="translate(24.722 69.335)" fill="#a247cb" opacity="0.2"/>
    <rect id="Rectangle_124" data-name="Rectangle 124" width="36.039" height="28.792" transform="translate(61.152 69.335)" fill="#a247cb" opacity="0.2"/>
    <rect id="Rectangle_125" data-name="Rectangle 125" width="36.039" height="28.792" transform="translate(97.583 69.335)" fill="#fff"/>
    <rect id="Rectangle_126" data-name="Rectangle 126" width="36.039" height="28.792" transform="translate(134.013 69.335)" fill="#a247cb" opacity="0.5"/>
    <rect id="Rectangle_127" data-name="Rectangle 127" width="36.039" height="28.792" transform="translate(170.444 69.335)" fill="#fff"/>
    <rect id="Rectangle_128" data-name="Rectangle 128" width="36.039" height="28.792" transform="translate(206.874 69.335)" fill="#a247cb" opacity="0.2"/>
    <rect id="Rectangle_129" data-name="Rectangle 129" width="36.039" height="28.792" transform="translate(243.305 69.335)" fill="#a247cb" opacity="0.5"/>
    <rect id="Rectangle_130" data-name="Rectangle 130" width="36.039" height="28.792" transform="translate(279.735 69.335)" fill="#fff"/>
    <rect id="Rectangle_131" data-name="Rectangle 131" width="36.039" height="28.792" transform="translate(24.722 98.323)" fill="#fff"/>
    <rect id="Rectangle_132" data-name="Rectangle 132" width="36.039" height="28.792" transform="translate(61.152 98.323)" fill="#fff"/>
    <rect id="Rectangle_133" data-name="Rectangle 133" width="36.039" height="28.792" transform="translate(97.583 98.323)" fill="#a247cb" opacity="0.2"/>
    <rect id="Rectangle_134" data-name="Rectangle 134" width="36.039" height="28.792" transform="translate(134.013 98.323)" fill="#fff"/>
    <rect id="Rectangle_135" data-name="Rectangle 135" width="36.039" height="28.792" transform="translate(170.444 98.323)" fill="#a247cb" opacity="0.2"/>
    <rect id="Rectangle_136" data-name="Rectangle 136" width="36.039" height="28.792" transform="translate(206.874 98.323)" fill="#fff"/>
    <rect id="Rectangle_137" data-name="Rectangle 137" width="36.039" height="28.792" transform="translate(243.305 98.323)" fill="#fff"/>
    <rect id="Rectangle_138" data-name="Rectangle 138" width="36.039" height="28.792" transform="translate(279.735 98.323)" fill="#a247cb" opacity="0.2"/>
    <rect id="Rectangle_139" data-name="Rectangle 139" width="36.039" height="28.792" transform="translate(24.722 127.311)" fill="#fff"/>
    <rect id="Rectangle_140" data-name="Rectangle 140" width="36.039" height="28.792" transform="translate(61.152 127.311)" fill="#a247cb" opacity="0.5"/>
    <rect id="Rectangle_141" data-name="Rectangle 141" width="36.039" height="28.792" transform="translate(97.583 127.311)" fill="#a247cb" opacity="0.5"/>
    <rect id="Rectangle_142" data-name="Rectangle 142" width="36.039" height="28.792" transform="translate(134.013 127.311)" fill="#fff"/>
    <rect id="Rectangle_143" data-name="Rectangle 143" width="36.039" height="28.792" transform="translate(170.444 127.311)" fill="#fff"/>
    <rect id="Rectangle_144" data-name="Rectangle 144" width="36.039" height="28.792" transform="translate(206.874 127.311)" fill="#a247cb" opacity="0.5"/>
    <rect id="Rectangle_145" data-name="Rectangle 145" width="36.039" height="28.792" transform="translate(243.305 127.311)" fill="#fff"/>
    <rect id="Rectangle_146" data-name="Rectangle 146" width="36.039" height="28.792" transform="translate(279.735 127.311)" fill="#a247cb" opacity="0.5"/>
    <rect id="Rectangle_147" data-name="Rectangle 147" width="36.039" height="28.792" transform="translate(24.722 156.69)" fill="#a247cb" opacity="0.5"/>
    <rect id="Rectangle_148" data-name="Rectangle 148" width="36.039" height="28.792" transform="translate(61.152 156.69)" fill="#a247cb" opacity="0.2"/>
    <rect id="Rectangle_149" data-name="Rectangle 149" width="36.039" height="28.792" transform="translate(97.583 156.69)" fill="#fff"/>
    <rect id="Rectangle_150" data-name="Rectangle 150" width="36.039" height="28.792" transform="translate(134.013 156.69)" fill="#a247cb" opacity="0.5"/>
    <rect id="Rectangle_151" data-name="Rectangle 151" width="36.039" height="28.792" transform="translate(170.444 156.69)" fill="#a247cb" opacity="0.2"/>
    <rect id="Rectangle_152" data-name="Rectangle 152" width="36.039" height="28.792" transform="translate(206.874 156.69)" fill="#fff"/>
    <rect id="Rectangle_153" data-name="Rectangle 153" width="36.039" height="28.792" transform="translate(243.305 156.69)" fill="#a247cb" opacity="0.2"/>
    <rect id="Rectangle_154" data-name="Rectangle 154" width="36.039" height="28.792" transform="translate(279.735 156.69)" fill="#fff"/>
    <rect id="Rectangle_155" data-name="Rectangle 155" width="10.968" height="10.968" transform="translate(27.66 101.065)" fill="#69f0ae"/>
    <rect id="Rectangle_156" data-name="Rectangle 156" width="10.968" height="10.968" transform="translate(136.56 43.09)" fill="#69f0ae"/>
    <rect id="Rectangle_157" data-name="Rectangle 157" width="10.968" height="10.968" transform="translate(135.384 101.065)" fill="#69f0ae"/>
    <rect id="Rectangle_158" data-name="Rectangle 158" width="10.968" height="10.968" transform="translate(172.598 128.878)" fill="#69f0ae"/>
    <rect id="Rectangle_159" data-name="Rectangle 159" width="10.968" height="10.968" transform="translate(245.068 101.065)" fill="#69f0ae"/>
    <circle id="Ellipse_61" data-name="Ellipse 61" cx="67.201" cy="67.201" r="67.201" transform="translate(0 124.158)" fill="url(#linear-gradient)"/>
    <circle id="Ellipse_62" data-name="Ellipse 62" cx="65.387" cy="65.387" r="65.387" transform="translate(1.814 125.971)" fill="#a247cb"/>
    <circle id="Ellipse_63" data-name="Ellipse 63" cx="53.126" cy="53.126" r="53.126" transform="translate(14.075 138.232)" fill="#fff"/>
    <circle id="Ellipse_64" data-name="Ellipse 64" cx="3.177" cy="3.177" r="3.177" transform="translate(64.024 188.181)" fill="url(#linear-gradient-4)"/>
    <line id="Line_7" data-name="Line 7" x1="17.256" y2="40.865" transform="translate(67.655 150.493)" fill="#93cdd9"/>
    <path id="Path_7" data-name="Path 7" d="M171.569,424.415l-1.959-.658L187.238,382.5l1.959.921Z" transform="translate(-103.169 -232.665)" fill="url(#linear-gradient)"/>
    <rect id="Rectangle_160" data-name="Rectangle 160" width="44.359" height="1.363" transform="matrix(0.389, -0.921, 0.921, 0.389, 67.022, 191.08)" fill="#2196f3"/>
    <line id="Line_8" data-name="Line 8" x2="11.352" y2="20.887" transform="translate(67.655 191.813)" fill="#93cdd9"/>
    <path id="Path_8" data-name="Path 8" d="M181.97,510.437l-11.36-21.153,1.567-.784,11.752,20.762Z" transform="translate(-103.778 -297.142)" fill="url(#linear-gradient)"/>
    <rect id="Rectangle_161" data-name="Rectangle 161" width="1.363" height="23.774" transform="translate(67.051 192.15) rotate(-28.52)" fill="#2196f3"/>
    <circle id="Ellipse_65" data-name="Ellipse 65" cx="1.363" cy="1.363" r="1.363" transform="translate(115.332 191.358)" fill="#a247cb"/>
    <circle id="Ellipse_66" data-name="Ellipse 66" cx="1.771" cy="1.771" r="1.771" transform="translate(22.15 167.529) rotate(-60)" fill="url(#linear-gradient-7)"/>
    <circle id="Ellipse_67" data-name="Ellipse 67" cx="1.771" cy="1.771" r="1.771" transform="translate(22.602 216.635) rotate(-30)" fill="url(#linear-gradient-8)"/>
    <circle id="Ellipse_68" data-name="Ellipse 68" cx="1.771" cy="1.771" r="1.771" transform="translate(15.939 190.951)" fill="url(#linear-gradient-9)"/>
    <circle id="Ellipse_69" data-name="Ellipse 69" cx="1.771" cy="1.771" r="1.771" transform="translate(40.218 148.072) rotate(-30)" fill="url(#linear-gradient-10)"/>
    <circle id="Ellipse_70" data-name="Ellipse 70" cx="1.771" cy="1.771" r="1.771" transform="translate(64.738 141.718) rotate(-30)" fill="url(#linear-gradient-11)"/>
    <circle id="Ellipse_71" data-name="Ellipse 71" cx="1.771" cy="1.771" r="1.771" transform="translate(89.258 148.074) rotate(-30)" fill="url(#linear-gradient-12)"/>
    <circle id="Ellipse_72" data-name="Ellipse 72" cx="1.771" cy="1.771" r="1.771" transform="translate(107.42 166.238) rotate(-30)" fill="url(#linear-gradient-13)"/>
    <circle id="Ellipse_73" data-name="Ellipse 73" cx="1.771" cy="1.771" r="1.771" transform="translate(106.968 216.639) rotate(-30)" fill="url(#linear-gradient-14)"/>
    <circle id="Ellipse_74" data-name="Ellipse 74" cx="1.771" cy="1.771" r="1.771" transform="translate(88.349 234.346) rotate(-30)" fill="url(#linear-gradient-15)"/>
    <circle id="Ellipse_75" data-name="Ellipse 75" cx="1.771" cy="1.771" r="1.771" transform="translate(64.737 239.797) rotate(-30)" fill="url(#linear-gradient-16)"/>
    <circle id="Ellipse_76" data-name="Ellipse 76" cx="1.771" cy="1.771" r="1.771" transform="translate(41.127 234.348) rotate(-30)" fill="url(#linear-gradient-17)"/>
    <circle id="Ellipse_77" data-name="Ellipse 77" cx="1.363" cy="1.363" r="1.363" transform="translate(65.837 140.955)" fill="#69f0ae"/>
    <circle id="Ellipse_78" data-name="Ellipse 78" cx="1.363" cy="1.363" r="1.363" transform="translate(89.859 149.385) rotate(-60)" fill="#69f0ae"/>
    <circle id="Ellipse_79" data-name="Ellipse 79" cx="1.363" cy="1.363" r="1.363" transform="translate(107.807 166.34) rotate(-30)" fill="#69f0ae"/>
    <circle id="Ellipse_80" data-name="Ellipse 80" cx="1.363" cy="1.363" r="1.363" transform="translate(107.524 217.781) rotate(-60)" fill="#69f0ae"/>
    <circle id="Ellipse_81" data-name="Ellipse 81" cx="1.363" cy="1.363" r="1.363" transform="translate(88.906 234.402) rotate(-30)" fill="#69f0ae"/>
    <circle id="Ellipse_82" data-name="Ellipse 82" cx="1.363" cy="1.363" r="1.363" transform="translate(40.818 148.393) rotate(-30)" fill="#69f0ae"/>
    <circle id="Ellipse_83" data-name="Ellipse 83" cx="1.363" cy="1.363" r="1.363" transform="translate(22.873 167.338) rotate(-60)" fill="#69f0ae"/>
    <circle id="Ellipse_84" data-name="Ellipse 84" cx="1.771" cy="1.771" r="1.771" transform="translate(114.234 192.121) rotate(-30)" fill="#69f0ae"/>
    <circle id="Ellipse_85" data-name="Ellipse 85" cx="1.363" cy="1.363" r="1.363" transform="translate(23.159 216.784) rotate(-30)" fill="#69f0ae"/>
    <circle id="Ellipse_86" data-name="Ellipse 86" cx="1.363" cy="1.363" r="1.363" transform="translate(41.773 235.4) rotate(-60)" fill="#69f0ae"/>
    <circle id="Ellipse_87" data-name="Ellipse 87" cx="1.363" cy="1.363" r="1.363" transform="translate(16.347 191.358)" fill="#69f0ae"/>
    <circle id="Ellipse_88" data-name="Ellipse 88" cx="1.363" cy="1.363" r="1.363" transform="translate(65.837 239.031)" fill="#69f0ae"/>
    <path id="Path_9" data-name="Path 9" d="M220.855,530.29a53.134,53.134,0,0,1,99.216-26.434,53.134,53.134,0,1,0-94.907,47.422A52.946,52.946,0,0,1,220.855,530.29Z" transform="translate(-204.054 -333.938)" fill="#a247cb" opacity="0.2"/>
    <circle id="Ellipse_89" data-name="Ellipse 89" cx="2.272" cy="2.272" r="2.272" transform="translate(64.929 189.086)" fill="#69f0ae"/>
  </g>
</svg>
