<svg id="Group_24" data-name="Group 24" xmlns="http://www.w3.org/2000/svg" width="252.363" height="195.184" viewBox="0 0 252.363 195.184">
  <path id="Path_236" data-name="Path 236" d="M356.59,239.324a69.113,69.113,0,1,1,48.87-20.243,69.112,69.112,0,0,1-48.87,20.243Zm0-137.775a68.662,68.662,0,1,0,68.663,68.662,68.74,68.74,0,0,0-68.663-68.662Z" transform="translate(-231.647 -82.047)" fill="#3f3d56"/>
  <path id="Path_237" data-name="Path 237" d="M595.993,648.62c-1.28,4.731-5.664,7.661-5.664,7.661s-2.309-4.74-1.029-9.472,5.664-7.661,5.664-7.661S597.273,643.889,595.993,648.62Z" transform="translate(-465.229 -498.975)" fill="#a247cb"/>
  <path id="Path_238" data-name="Path 238" d="M567.311,648.62c1.28,4.731,5.664,7.661,5.664,7.661s2.309-4.74,1.029-9.472-5.664-7.661-5.664-7.661S566.031,643.889,567.311,648.62Z" transform="translate(-448.189 -498.975)" fill="#a247cb"/>
  <path id="Path_239" data-name="Path 239" d="M546.785,663.948c3.512,3.419,3.941,8.674,3.941,8.674s-5.265-.287-8.777-3.706-3.941-8.674-3.941-8.674S543.273,660.529,546.785,663.948Z" transform="translate(-425.782 -515.32)" fill="#3f3d56"/>
  <path id="Path_240" data-name="Path 240" d="M598.441,663.948c-3.512,3.419-3.941,8.674-3.941,8.674s5.265-.287,8.777-3.706,3.941-8.674,3.941-8.674S601.953,660.529,598.441,663.948Z" transform="translate(-469.557 -515.32)" fill="#3f3d56"/>
  <path id="Path_241" data-name="Path 241" d="M567.311,109.81c1.28-4.731,5.664-7.661,5.664-7.661s2.309,4.74,1.029,9.472-5.664,7.661-5.664,7.661S566.031,114.541,567.311,109.81Z" transform="translate(-448.189 -82.866)" fill="#a247cb"/>
  <path id="Path_242" data-name="Path 242" d="M595.993,109.81c-1.28-4.731-5.664-7.661-5.664-7.661s-2.309,4.74-1.029,9.472,5.664,7.661,5.664,7.661S597.273,114.541,595.993,109.81Z" transform="translate(-465.229 -82.866)" fill="#a247cb"/>
  <path id="Path_243" data-name="Path 243" d="M598.441,110.84c-3.512-3.419-3.941-8.674-3.941-8.674s5.265.287,8.777,3.706,3.941,8.674,3.941,8.674S601.953,114.258,598.441,110.84Z" transform="translate(-469.557 -82.879)" fill="#3f3d56"/>
  <path id="Path_244" data-name="Path 244" d="M546.785,110.84c3.512-3.419,3.941-8.674,3.941-8.674s-5.265.287-8.777,3.706-3.941,8.674-3.941,8.674S543.273,114.258,546.785,110.84Z" transform="translate(-425.782 -82.879)" fill="#3f3d56"/>
  <rect id="Rectangle_371" data-name="Rectangle 371" width="89.476" height="90.987" transform="translate(3.293 2.854)" fill="#a247cb"/>
  <path id="Path_245" data-name="Path 245" d="M107.16,22.935H22.935v85.193h4.518V27.776H107.16Z" transform="translate(-17.772 -17.772)" fill="#3f3d56"/>
  <path id="Path_246" data-name="Path 246" d="M107.16,22.935H22.935v85.193h4.518V27.776H107.16Z" transform="translate(-17.772 -17.772)" opacity="0.3"/>
  <path id="Path_247" data-name="Path 247" d="M109.8,44.437H43V56.054h63.25V124.79H122.71V44.437Z" transform="translate(-33.322 -34.433)" opacity="0.1"/>
  <path id="Path_248" data-name="Path 248" d="M39.5,16.495v95.52h94.552V16.495Zm89.388,90.356H44.663V21.658h84.225Z" transform="translate(-39.5 -16.495)" fill="#3f3d56"/>
  <path id="Path_249" data-name="Path 249" d="M318.614,456.438s4.276,8.284,6.68,10.154-3.875,4.142-3.875,4.142l-7.348-11.49Z" transform="translate(-252.259 -357.397)" fill="#a0616a"/>
  <path id="Path_250" data-name="Path 250" d="M190.6,366.821s19.908,5.211,21.645,8.685,7.081,11.891,7.081,11.891l-7.883,6.28-7.749-11.624-21.377-9.62Z" transform="translate(-150.165 -287.954)" fill="#2f2e41"/>
  <path id="Path_251" data-name="Path 251" d="M328.11,496.983s-1.871-1.6-2.4-.534S323.567,503,323.567,503s2.271,2.138,6.948.8a2.925,2.925,0,0,1,3.073,0c1.871.935,8.818-.935,8.551-4.008s-7.348-2.806-7.348-2.806-2.983-3.341-3.362-2.072.155,1.4.155,1.4S329.179,498.853,328.11,496.983Z" transform="translate(-259.617 -386.986)" fill="#2f2e41"/>
  <path id="Path_252" data-name="Path 252" d="M237.66,492.641l-1.336,11.223h6.547s-.534-8.685-.4-9.753S237.66,492.641,237.66,492.641Z" transform="translate(-192.014 -385.45)" fill="#a0616a"/>
  <path id="Path_253" data-name="Path 253" d="M250.6,382.845s3.607,5.344,1.47,5.745-3.875-5.745-3.875-5.745Z" transform="translate(-201.212 -300.371)" fill="#a0616a"/>
  <path id="Path_254" data-name="Path 254" d="M136.764,376.792s-2.672,7.883,7.883,10.021,13.762,3.875,13.762,3.875l1.336,13.628,9.219.534s4.409-20.709-1.336-23.382-17.9-5.745-17.9-5.745Z" transform="translate(-114.634 -294.853)" fill="#2f2e41"/>
  <path id="Path_255" data-name="Path 255" d="M227.915,523.147a16.861,16.861,0,0,1,2.138-.935s1.174-2.709,3.326-2.423l4.69,6.832s7.081,5.077,2.138,6.413a18.275,18.275,0,0,1-8.818.267l-2-1.47s.267-1.47-1.47-1.2c0,0-3.607-1.47-3.474-2.539s2.972-5.721,2.972-5.721Z" transform="translate(-182.804 -406.469)" fill="#2f2e41"/>
  <circle id="Ellipse_146" data-name="Ellipse 146" cx="5.344" cy="5.344" r="5.344" transform="translate(40.902 45.264)" fill="#a0616a"/>
  <path id="Path_256" data-name="Path 256" d="M205.487,233.878s-4.81,3.474-5.745,3.607,4.409,6.68,4.409,6.68,2.539-4.142,4.142-4.676S205.487,233.878,205.487,233.878Z" transform="translate(-163.583 -184.94)" fill="#a0616a"/>
  <path id="Path_257" data-name="Path 257" d="M152.067,244.266s-2-2.672-3.207-2.672-12.025,1.2-12.96,10.154-.4,24.584-.4,24.584-.8-3.875,8.15-2.271c0,0,10.689-2.271,12.559-2.271s2.672-19.106,2.672-19.106l-3.042-4.717S154.472,250.545,152.067,244.266Z" transform="translate(-113.77 -190.919)" fill="#d0cde1"/>
  <path id="Path_258" data-name="Path 258" d="M225.923,286.105l2,1.069,2.4,14.7,3.34,7.616s-3.607-1.242-3.875.247L224.454,302Z" transform="translate(-182.816 -225.41)" fill="#d0cde1"/>
  <path id="Path_259" data-name="Path 259" d="M225.16,205.08l2.907.363c-.055.592-.04,1.325.484,1.6.246.132.559.125.778.3.525.419.011,1.32.308,1.923l.85.225a1.644,1.644,0,0,0,2.234.67,3.189,3.189,0,0,0,1.12-1.614,4.086,4.086,0,0,0,.467-2.305c-.165-.839-.851-1.537-.882-2.392-.014-.382.067-.859-.256-1.065a1.364,1.364,0,0,0-.471-.125c-.743-.155-1.156-.924-1.71-1.442-1.161-1.087-2.944-1.058-4.531-.964a4.025,4.025,0,0,0-1.333.232,3.885,3.885,0,0,0-1.256,1,13.124,13.124,0,0,0-2.242,2.97,5.27,5.27,0,0,0-.533,3.615c-.03-.116.98-.876,1.106-1a2.62,2.62,0,0,0,.645-1C223.341,205.048,224.034,204.94,225.16,205.08Z" transform="translate(-180.114 -158.855)" fill="#2f2e41"/>
  <path id="Path_260" data-name="Path 260" d="M162.1,281.777l.4,9.353,5.943,6.97-5.409-7.771Z" transform="translate(-125.611 -218.343)" opacity="0.1"/>
  <path id="Path_261" data-name="Path 261" d="M114.625,293.054l4.676,10.822,6.012,4.943-6.413-4.409Z" transform="translate(-88.82 -227.081)" opacity="0.1"/>
  <path id="Path_262" data-name="Path 262" d="M250.531,348.223l2.826,1.944a.78.78,0,0,1,.216.96l-.378.78.088.06-.429.886-.088-.06-3.112,6.423a.6.6,0,0,1-.9.286l-2.655-1.827a.9.9,0,0,1-.248-1.1l3.93-8.109a.5.5,0,0,1,.749-.239Z" transform="translate(-199.326 -273.478)" fill="#3f3d56"/>
  <path id="Path_263" data-name="Path 263" d="M207.976,340.607l3.041,2.092,3.967-8.187-3.041-2.092Z" transform="translate(-161.156 -257.585)" fill="#fff"/>
  <path id="Path_264" data-name="Path 264" d="M233.9,377.276s5.3,3.673,3.453,4.821-5.694-3.949-5.694-3.949Z" transform="translate(-188.396 -296.056)" fill="#a0616a"/>
  <path id="Path_265" data-name="Path 265" d="M153.367,256.431s-6.948,2-4.944,8.15c.483,1.483,1.068,3.074,1.677,4.635,1.915,4.912,4.069,9.527,4.069,9.527l6.039,5.46,8.124,2.289.935-.8s.267-2.539-.935-2.806a14.848,14.848,0,0,1-3.073-1.336l-4.81-7.081S160.315,256.832,153.367,256.431Z" transform="translate(-123.621 -202.416)" fill="#d0cde1"/>
  <rect id="Rectangle_372" data-name="Rectangle 372" width="87.346" height="88.821" transform="translate(249.148 159.254) rotate(180)" fill="#a247cb"/>
  <path id="Path_266" data-name="Path 266" d="M733.389,322.881h82.22v83.165H811.2v-78.44H733.389Z" transform="translate(-568.286 -250.193)" fill="#3f3d56"/>
  <path id="Path_267" data-name="Path 267" d="M733.389,322.881h82.22v83.165H811.2v-78.44H733.389Z" transform="translate(-568.286 -250.193)" opacity="0.3"/>
  <path id="Path_268" data-name="Path 268" d="M745.99,343.871H811.2v11.341H749.455v67.1H733.389v-78.44Z" transform="translate(-568.286 -266.458)" opacity="0.1"/>
  <path id="Path_269" data-name="Path 269" d="M750.5,316.987v93.245h92.3V316.987Zm5.04,5.04h82.22v83.165H755.54Z" transform="translate(-590.438 -249.339)" fill="#3f3d56"/>
  <path id="Path_270" data-name="Path 270" d="M937.285,500.122a7.721,7.721,0,0,0-5.92-3.515s-3.832-.49-6.29,4.625c-2.291,4.767-5.453,9.371-.509,10.487l.893-2.78.553,2.986a19.321,19.321,0,0,0,2.115.036c5.295-.171,10.337.05,10.175-1.85C938.086,507.586,939.2,503.353,937.285,500.122Z" transform="translate(-723.289 -388.513)" fill="#2f2e41"/>
  <path id="Path_271" data-name="Path 271" d="M885.5,610.413l-.418,7.527,12.266,1.254.418-7.805-4.182-2.648Z" transform="translate(-685.829 -471.7)" fill="#a0616a"/>
  <path id="Path_272" data-name="Path 272" d="M923.9,664.748c-.368-3.556-14.971-5.17-18.48-5.507l-1.312-.766-.418-4.46s-12.963-1.115-13.938-1.254-1.812,1.673-1.812,2.091a9.913,9.913,0,0,1-.915,3.739c-1.581,1.271-6.4,5.269-6.4,6.784,0,1.812,3.833,24.6,3.833,24.6l.418,4.739,3.9.7-.279-14.774s1.394-8.5-.558-10.872v-.976s5.723-1.491,7.741-3.115a8.021,8.021,0,0,1,3.134-.166c.124.073.268.149.427.225a.682.682,0,0,1,.058.059l.016-.024c2.609,1.221,9.3,2.762,12.041,2.324a9.581,9.581,0,0,1,6.133,1.115c-1.533,1.951-.418,7.527-.418,7.527l.139,11.987,1.951,2.369h2.648V684.54S924.319,668.79,923.9,664.748Z" transform="translate(-691.267 -509.517)" fill="#2f2e41"/>
  <circle id="Ellipse_147" data-name="Ellipse 147" cx="4.6" cy="4.6" r="4.6" transform="translate(202.249 111.604)" fill="#a0616a"/>
  <path id="Path_273" data-name="Path 273" d="M933.468,545.676s.7,3.066-.279,3.345a13.2,13.2,0,0,0-2.23.976l-1.115,3.624v3.624l13.52,1.533.418-1.254v-1.812l-1.533-2.788-.7-.7s-3.066-3.345-2.37-6.551Z" transform="translate(-729.407 -426.545)" fill="#a0616a"/>
  <path id="Path_274" data-name="Path 274" d="M987.983,594.9a38.138,38.138,0,0,1,0,7.108,30.887,30.887,0,0,0-.279,5.575l-3.066-.558V599.5l.7-4.042Z" transform="translate(-771.865 -464.686)" fill="#a0616a"/>
  <circle id="Ellipse_148" data-name="Ellipse 148" cx="2.843" cy="2.843" r="2.843" transform="translate(205.714 105.268)" fill="#2f2e41"/>
  <path id="Path_275" data-name="Path 275" d="M949.9,483.616a2.843,2.843,0,0,1,2.544-2.827,2.843,2.843,0,1,0-.3,5.67,2.877,2.877,0,0,0,.3-.016A2.843,2.843,0,0,1,949.9,483.616Z" transform="translate(-744.482 -376.253)" fill="#2f2e41"/>
  <path id="Path_276" data-name="Path 276" d="M911.014,487.327l-3.885-2.035-5.365.833-1.11,4.9,2.763-.106.772-1.8v1.771l1.275-.049.74-2.867.462,3.052,4.532-.092Z" transform="translate(-697.896 -376.042)" fill="#2f2e41"/>
  <path id="Path_277" data-name="Path 277" d="M895.756,818.356s1.978.931,2.56,1.28,2.909-.349,2.443,1.745a10.092,10.092,0,0,1-2.443,4.072s-.931,1.047-.931,1.745-2.327,6.05-5.119,5.817a2.512,2.512,0,0,1-2.327-3.025l.582-3.025s1.164-5.119,1.4-5a5.085,5.085,0,0,1,.814.931A5.161,5.161,0,0,0,895.756,818.356Z" transform="translate(-698.463 -637.839)" fill="#d0cde1"/>
  <path id="Path_278" data-name="Path 278" d="M1027.3,802.877s-1.978.931-2.56,1.28-2.909-.349-2.443,1.745a10.091,10.091,0,0,0,2.443,4.072s.931,1.047.931,1.745,2.327,6.05,5.119,5.817a2.512,2.512,0,0,0,2.327-3.025l-.582-3.025s-1.163-5.119-1.4-5a5.086,5.086,0,0,0-.814.931A5.161,5.161,0,0,1,1027.3,802.877Z" transform="translate(-800.999 -625.845)" fill="#d0cde1"/>
  <path id="Path_279" data-name="Path 279" d="M959.688,647.109V646h-.246v-.492a.86.86,0,0,0-.86-.86h-2.95a.86.86,0,0,0-.86.86v8.235a.86.86,0,0,0,.86.86h2.95a.86.86,0,0,0,.86-.86v-5.162h.246v-1.106h-.246v-.369Z" transform="translate(-748.723 -503.238)" fill="#d0cde1"/>
  <circle id="Ellipse_149" data-name="Ellipse 149" cx="0.492" cy="0.492" r="0.492" transform="translate(208.015 143.379)" fill="#3f3d56"/>
  <path id="Path_280" data-name="Path 280" d="M901.593,584.372l-2.509,10.314a2.906,2.906,0,0,0,1.254,3.624,52.847,52.847,0,0,0,7.248,3.206s4.46,6.133,5.018,3.624-3.345-5.715-3.345-5.715l-6.83-4.321,2.648-7.248Z" transform="translate(-705.408 -456.53)" fill="#a0616a"/>
  <path id="Path_281" data-name="Path 281" d="M975.428,641.917s2.091-.279,1.951,2.091-2.927,2.648-2.927,2.648-1.254,5.3-3.066,4.321.976-6.272.976-6.272l2.37-1.812Z" transform="translate(-761.123 -501.113)" fill="#a0616a"/>
  <path id="Path_282" data-name="Path 282" d="M914.9,564.516l2.23-4.6-4.46,1.533a5.159,5.159,0,0,0-2.648,4.181c-.139,2.927,3.206,4.46,3.206,4.46s.557,4.181.279,4.739a9.138,9.138,0,0,0,0,2.788s5.366-1.464,8.015.349a4.987,4.987,0,0,0,4.809.767s-.139-3.485.976-4.042,2.091-3.206,1.115-4.878c0,0,2.23.279,2.091-1.812a5.481,5.481,0,0,0-3.066-4.739c-1.812-.836-2.012-.97-2.012-.97l2.57,4.733v1.255s-4.549-2.9-9.05-3.146a6,6,0,0,0-4.052,1.334h0Z" transform="translate(-714.04 -437.58)" fill="#2f2e41"/>
</svg>
