<svg xmlns="http://www.w3.org/2000/svg" width="54.997" height="111.411" viewBox="0 0 54.997 111.411">
  <g id="Group_27" data-name="Group 27" transform="translate(525.333 -530.95) rotate(90)">
    <path id="Path_291" data-name="Path 291" d="M513.845,499.042l-3.584,2.576-28.947,20.844-2.554,1.827a1,1,0,0,1-1.126.061,1.918,1.918,0,0,1-.8-1.178,3.017,3.017,0,0,1-.1-.789V510.07c0-1.171-.633-2.123-1.417-2.131H404.657c-.784,0-1.421-.945-1.427-2.116V488.438c0-1.177.639-2.131,1.427-2.131h70.655c.78-.008,1.411-.951,1.417-2.116V471.6a3.016,3.016,0,0,1,.1-.789,1.914,1.914,0,0,1,.807-1.177,1.006,1.006,0,0,1,1.127.066l2.55,1.854,28.947,21.063,3.59,2.6a2.7,2.7,0,0,1-.006,3.818Z" transform="translate(127.72 0.84)" fill="#a247cb"/>
  </g>
</svg>
