<svg xmlns="http://www.w3.org/2000/svg" width="793.563" height="662.463" viewBox="0 0 793.563 662.463">
  <g id="Group_104" data-name="Group 104" transform="translate(0.001 -0.001)">
    <rect id="Rectangle_502" data-name="Rectangle 502" width="630.166" height="31.983" transform="translate(-0.001 321.247) rotate(-30.649)" fill="#f2f2f2"/>
    <rect id="Rectangle_503" data-name="Rectangle 503" width="630.166" height="31.983" transform="translate(117.83 348.18) rotate(-30.649)" fill="#f2f2f2"/>
    <rect id="Rectangle_504" data-name="Rectangle 504" width="630.166" height="31.983" transform="translate(222.194 377.638) rotate(-30.649)" fill="#f2f2f2"/>
    <circle id="Ellipse_367" data-name="Ellipse 367" cx="169.736" cy="169.736" r="169.736" transform="translate(183.385 37.108)" fill="#fff"/>
    <path id="Path_1076" data-name="Path 1076" d="M385.341,325.612c0-94.289,76.709-171,171-171s171,76.71,171,171-76.709,171-171,171S385.341,419.9,385.341,325.612Zm2.525,0c0,92.9,75.577,168.473,168.473,168.473s168.473-75.577,168.473-168.473S649.235,157.139,556.339,157.139,387.866,232.716,387.866,325.612Z" transform="translate(-203.219 -118.768)" fill="#3f3d56"/>
    <path id="Path_1077" data-name="Path 1077" d="M526.082,326.35h0a30.257,30.257,0,1,1,30.257,30.257,30.257,30.257,0,0,1-30.257-30.257Zm30.257-28.781a28.814,28.814,0,0,0-28.781,28.781h0a28.781,28.781,0,1,0,28.781-28.781Z" transform="translate(-203.219 -118.768)" fill="#3f3d56" style="isolation: isolate"/>
    <path id="Path_1078" data-name="Path 1078" d="M498.776,326.35h0a57.563,57.563,0,1,1,57.563,57.563,57.563,57.563,0,0,1-57.563-57.563Zm57.563-56.087a56.087,56.087,0,1,0,56.087,56.087,56.087,56.087,0,0,0-56.087-56.087Z" transform="translate(-203.219 -118.768)" fill="#ccc" style="isolation: isolate"/>
    <path id="Path_1079" data-name="Path 1079" d="M444.166,326.35A112.173,112.173,0,1,1,556.339,438.523,112.173,112.173,0,0,1,444.166,326.35Zm112.173-110.7a110.7,110.7,0,1,0,110.7,110.7,110.7,110.7,0,0,0-110.7-110.7Z" transform="translate(-203.219 -118.768)" fill="#ccc" style="isolation: isolate"/>
    <circle id="Ellipse_368" data-name="Ellipse 368" cx="14.022" cy="14.022" r="14.022" transform="translate(339.099 192.822)" fill="#a247cb" style="isolation: isolate"/>
    <circle id="Ellipse_369" data-name="Ellipse 369" cx="14.022" cy="14.022" r="14.022" transform="translate(302.938 233.411)" fill="#a247cb" style="isolation: isolate"/>
    <circle id="Ellipse_370" data-name="Ellipse 370" cx="14.022" cy="14.022" r="14.022" transform="translate(444.014 227.507)" fill="#a247cb" style="isolation: isolate"/>
    <circle id="Ellipse_371" data-name="Ellipse 371" cx="6.642" cy="6.642" r="6.642" transform="translate(346.479 200.202)" fill="#2f2e41"/>
    <circle id="Ellipse_372" data-name="Ellipse 372" cx="6.642" cy="6.642" r="6.642" transform="translate(451.393 234.887)" fill="#2f2e41"/>
    <circle id="Ellipse_373" data-name="Ellipse 373" cx="6.642" cy="6.642" r="6.642" transform="translate(310.317 241.529)" fill="#2f2e41"/>
    <circle id="Ellipse_374" data-name="Ellipse 374" cx="6.642" cy="6.642" r="6.642" transform="translate(36.526 125.666)" fill="#a247cb"/>
    <path id="Path_1080" data-name="Path 1080" d="M352.751,132.677H61.248V131.2h292.98v76.011h-1.477Z" fill="#2f2e41"/>
    <path id="Path_1081" data-name="Path 1081" d="M227.2,251.076a19.188,19.188,0,1,1,19.188,19.188A19.188,19.188,0,0,1,227.2,251.076Zm19.188-17.712A17.712,17.712,0,1,0,264.1,251.076a17.712,17.712,0,0,0-17.711-17.712Z" transform="translate(-203.219 -118.768)" fill="#2f2e41"/>
    <circle id="Ellipse_375" data-name="Ellipse 375" cx="6.642" cy="6.642" r="6.642" transform="translate(80.805 316.803)" fill="#a247cb"/>
    <path id="Path_1082" data-name="Path 1082" d="M271.478,442.213h0A19.188,19.188,0,1,1,290.665,461.4a19.187,19.187,0,0,1-19.187-19.187ZM290.665,424.5a17.712,17.712,0,1,0,17.711,17.712A17.712,17.712,0,0,0,290.665,424.5Z" transform="translate(-203.219 -118.768)" fill="#2f2e41"/>
    <circle id="Ellipse_376" data-name="Ellipse 376" cx="6.642" cy="6.642" r="6.642" transform="translate(657.29 156.661)" fill="#a247cb"/>
    <path id="Path_1083" data-name="Path 1083" d="M847.963,282.071a19.188,19.188,0,1,1,19.188,19.188A19.187,19.187,0,0,1,847.963,282.071Zm19.188-17.711a17.732,17.732,0,0,0-17.712,17.711h0a17.712,17.712,0,1,0,17.712-17.712Z" transform="translate(-203.219 -118.768)" fill="#2f2e41"/>
    <path id="Path_1084" data-name="Path 1084" d="M457.3,165.528l188.174-2.963.023,1.475-186.721,2.941v74.548H457.3Z" fill="#2f2e41"/>
    <path id="Path_1085" data-name="Path 1085" d="M105.9,322.707H316.221V248.171H317.7v76.011H105.9Z" fill="#2f2e41"/>
    <rect id="Rectangle_505" data-name="Rectangle 505" width="81.178" height="5.166" transform="translate(2.579 166.993)" fill="#ccc"/>
    <rect id="Rectangle_506" data-name="Rectangle 506" width="81.178" height="5.166" transform="translate(2.579 181.752)" fill="#ccc"/>
    <rect id="Rectangle_507" data-name="Rectangle 507" width="81.178" height="5.166" transform="translate(2.579 196.512)" fill="#ccc"/>
    <rect id="Rectangle_508" data-name="Rectangle 508" width="81.178" height="5.166" transform="translate(46.858 358.13)" fill="#ccc"/>
    <rect id="Rectangle_509" data-name="Rectangle 509" width="81.178" height="5.166" transform="translate(46.858 372.889)" fill="#ccc"/>
    <rect id="Rectangle_510" data-name="Rectangle 510" width="81.178" height="5.166" transform="translate(46.858 387.649)" fill="#ccc"/>
    <rect id="Rectangle_511" data-name="Rectangle 511" width="81.178" height="5.166" transform="translate(623.343 198.726)" fill="#ccc"/>
    <rect id="Rectangle_512" data-name="Rectangle 512" width="81.178" height="5.166" transform="translate(623.343 213.485)" fill="#ccc"/>
    <rect id="Rectangle_513" data-name="Rectangle 513" width="81.178" height="5.166" transform="translate(623.343 228.245)" fill="#ccc"/>
    <path id="Path_1086" data-name="Path 1086" d="M743.166,638.861l-11.544,4.126-21.408-42.566,17.039-6.089Z" fill="#ffb8b8"/>
    <path id="Path_1087" data-name="Path 1087" d="M916.1,781.071l-.168-.471a15.4,15.4,0,0,1,9.311-19.667l22.736-8.125,5.347,14.96Z" transform="translate(-203.219 -118.768)" fill="#2f2e41"/>
    <path id="Path_1088" data-name="Path 1088" d="M668.095,650.28h-12.26L650,602.991H668.1Z" fill="#ffb8b8"/>
    <path id="Path_1089" data-name="Path 1089" d="M874.44,780.932H834.909v-.5A15.386,15.386,0,0,1,850.3,765.044H874.44Z" transform="translate(-203.219 -118.768)" fill="#2f2e41"/>
    <path id="Path_1090" data-name="Path 1090" d="M899.253,466.938,893.922,456.4s-19.863,4.976-21.668,16.488Z" transform="translate(-203.219 -118.768)" fill="#a247cb"/>
    <path id="Path_1091" data-name="Path 1091" d="M718.035,468.635l-14.5,80.913,38.5,68.087-23,9-39-66-5-18-3,94-20.743-.63-9.511-87.773,15.254-81.6Z" fill="#2f2e41"/>
    <path id="Path_1092" data-name="Path 1092" d="M852,602c-.45-2-1.741-63.173-1.741-63.173s21.325-70.009,21.521-70.584l.076-.225,16.191-6.07c.227-.1,5.621-2.507,10.036-.5a8.651,8.651,0,0,1,4.6,5.654c1.836,1.368,15.07,16.192,15.07,36.3l.5,47.449,11.095,51.44-.49.1c-.3.064-13.827,4.139-35.128,4.139C881.894,606.531,852,602,852,602Z" transform="translate(-203.219 -118.768)" fill="#3f3d56"/>
    <circle id="Ellipse_377" data-name="Ellipse 377" cx="21.883" cy="21.883" r="21.883" transform="translate(652.26 290.552)" fill="#ffb8b8"/>
    <path id="Path_1093" data-name="Path 1093" d="M705.318,408.841l-38.283,53.416-5.654-24.945Z" opacity="0.2"/>
    <path id="Path_1094" data-name="Path 1094" d="M840.59,582.177a9.391,9.391,0,0,0,8.8-11.4l28.446-17.449-15.708-7.349-24.6,17.7a9.442,9.442,0,0,0,3.067,18.5Z" transform="translate(-203.219 -118.768)" fill="#ffb8b8"/>
    <path id="Path_1095" data-name="Path 1095" d="M657.035,427.635l-9.743,6.827,8.263,14.673,11.48-9.5Z" fill="#a247cb"/>
    <path id="Path_1096" data-name="Path 1096" d="M855.153,546.834,878.07,520.27l-8.78-36.639a16.031,16.031,0,0,1,29.7-11.336l.2.371,8.091,54.408L866.63,568.746Z" transform="translate(-203.219 -118.768)" fill="#3f3d56"/>
    <path id="Path_1097" data-name="Path 1097" d="M896,450.2l-18.163.652c-1.107.04-4.112-11.909-4.505-14.387a6.765,6.765,0,0,0-7.057-5.473c-1.36.128-4.788-2.412-8.326-5.419-6.717-5.71-6.367-16.435,1.011-21.26q.3-.2.594-.361c4.655-2.605,10.1-3.48,15.433-3.547,4.835-.06,9.807.548,14.067,2.837,7.637,4.1,11.7,13.069,12.058,21.73s-2.42,17.131-5.571,25.207" transform="translate(-203.219 -118.768)" fill="#2f2e41"/>
    <path id="Path_1098" data-name="Path 1098" d="M995.781,781.232h-221a1,1,0,0,1,0-2h221a1,1,0,0,1,0,2Z" transform="translate(-203.219 -118.768)" fill="#3f3d56"/>
  </g>
</svg>
