<svg id="Group_70" data-name="Group 70" xmlns="http://www.w3.org/2000/svg" width="893.617" height="736.75" viewBox="0 0 893.617 736.75">
  <path id="Path_941" data-name="Path 941" d="M321.941,651.875s332.5-277.5,524,0" transform="translate(-153.441 -81.375)" fill="#f2f2f2"/>
  <ellipse id="Ellipse_327" data-name="Ellipse 327" cx="154" cy="24" rx="154" ry="24" transform="translate(560.117 688.75)" fill="#f2f2f2"/>
  <ellipse id="Ellipse_328" data-name="Ellipse 328" cx="154" cy="24" rx="154" ry="24" transform="translate(585.117 679.75)" fill="none" stroke="#3f3d56" stroke-miterlimit="10" stroke-width="1"/>
  <path id="Path_942" data-name="Path 942" d="M958.047,536.825a15.529,15.529,0,1,0,2.068-29.782l.389,7.993-3.781-6.85a15.47,15.47,0,0,0-7.971,8.747,15.226,15.226,0,0,0-.893,4.2,15.526,15.526,0,0,0,10.189,15.692Z" transform="translate(-153.441 -81.375)" fill="#57b894"/>
  <path id="Path_943" data-name="Path 943" d="M976.758,629.527c-1.335-6.8,4.449-12.824,10.163-16.741s12.389-7.766,14.339-14.413c2.8-9.553-5.544-18.3-12.039-25.847A93.487,93.487,0,0,1,976.892,554.2a25.221,25.221,0,0,1-2.949-8.331c-.512-4.235.848-8.448,2.219-12.488q6.849-20.184,14.645-40.03" transform="translate(-153.441 -81.375)" fill="none" stroke="#3f3d56" stroke-miterlimit="10" stroke-width="1"/>
  <path id="Path_944" data-name="Path 944" d="M958.686,534.767a15.529,15.529,0,1,0,2.068-29.782l.389,7.993-3.781-6.85a15.47,15.47,0,0,0-7.971,8.747,15.229,15.229,0,0,0-.893,4.2,15.526,15.526,0,0,0,10.189,15.692Z" transform="translate(-153.441 -81.375)" fill="none" stroke="#3f3d56" stroke-miterlimit="10" stroke-width="1"/>
  <path id="Path_945" data-name="Path 945" d="M974.86,490.594a15.511,15.511,0,0,1,11.177-9.847l1.279,7.6,2.37-7.98a15.527,15.527,0,1,1-14.826,10.229Z" transform="translate(-153.441 -81.375)" fill="#57b894"/>
  <path id="Path_946" data-name="Path 946" d="M975.713,487.85A15.511,15.511,0,0,1,986.89,478l1.279,7.6,2.37-7.98a15.527,15.527,0,1,1-14.826,10.229Z" transform="translate(-153.441 -81.375)" fill="none" stroke="#3f3d56" stroke-miterlimit="10" stroke-width="1"/>
  <path id="Path_947" data-name="Path 947" d="M986.495,572.68a15.527,15.527,0,0,0,13.743-27.624l-1.822,6.133-1.292-7.688a.269.269,0,0,0-.04-.015,15.528,15.528,0,1,0-10.59,29.194Z" transform="translate(-153.441 -81.375)" fill="#57b894"/>
  <path id="Path_948" data-name="Path 948" d="M987.233,569.9a15.527,15.527,0,0,0,13.743-27.624l-1.821,6.133-1.292-7.688a.276.276,0,0,0-.04-.015,15.528,15.528,0,1,0-10.59,29.194Z" transform="translate(-153.441 -81.375)" fill="none" stroke="#3f3d56" stroke-miterlimit="10" stroke-width="1"/>
  <path id="Path_949" data-name="Path 949" d="M970.328,598.468a15.52,15.52,0,1,0,2.992-12.16l6.919,10.413-9.453-5.527a15.382,15.382,0,0,0-.458,7.274Z" transform="translate(-153.441 -81.375)" fill="#57b894"/>
  <path id="Path_950" data-name="Path 950" d="M970.968,596.41a15.52,15.52,0,1,0,2.992-12.16l6.919,10.413-9.453-5.527a15.383,15.383,0,0,0-.458,7.274Z" transform="translate(-153.441 -81.375)" fill="none" stroke="#3f3d56" stroke-miterlimit="10" stroke-width="1"/>
  <path id="Path_951" data-name="Path 951" d="M955.2,638.734s13.7-5.37,17.833-8.311,21.079-6.452,22.1-1.736,20.593,23.457,5.122,23.581-35.947,2.538-40.069.028S955.2,638.734,955.2,638.734Z" transform="translate(-153.441 -81.375)" fill="#656380"/>
  <path id="Path_952" data-name="Path 952" d="M1000.532,650.627c-15.471.125-35.947,2.538-40.069.028-3.139-1.912-4.39-8.773-4.808-11.938-.29.012-.457.018-.457.018s.868,11.052,4.99,13.562,24.6.1,40.069-.028c4.466-.036,6.008-1.625,5.924-3.978C1005.56,649.712,1003.856,650.6,1000.532,650.627Z" transform="translate(-153.441 -81.375)" opacity="0.2"/>
  <rect id="Rectangle_455" data-name="Rectangle 455" width="60" height="158" rx="11.851" transform="translate(159 413)" fill="#a247cb"/>
  <rect id="Rectangle_456" data-name="Rectangle 456" width="60" height="253" rx="11.851" transform="translate(273 318)" fill="#a247cb"/>
  <rect id="Rectangle_457" data-name="Rectangle 457" width="60" height="319" rx="11.851" transform="translate(387 252)" fill="#a247cb"/>
  <rect id="Rectangle_458" data-name="Rectangle 458" width="60" height="382" rx="11.851" transform="translate(501 189)" fill="#a247cb"/>
  <rect id="Rectangle_459" data-name="Rectangle 459" width="60" height="492" rx="11.851" transform="translate(615 79)" fill="#a247cb"/>
  <rect id="Rectangle_460" data-name="Rectangle 460" width="60" height="158" rx="11.851" transform="translate(167 405)" fill="none" stroke="#3f3d56" stroke-miterlimit="10" stroke-width="1"/>
  <rect id="Rectangle_461" data-name="Rectangle 461" width="60" height="253" rx="11.851" transform="translate(281 310)" fill="none" stroke="#3f3d56" stroke-miterlimit="10" stroke-width="1"/>
  <rect id="Rectangle_462" data-name="Rectangle 462" width="60" height="319" rx="11.851" transform="translate(395 244)" fill="none" stroke="#3f3d56" stroke-miterlimit="10" stroke-width="1"/>
  <rect id="Rectangle_463" data-name="Rectangle 463" width="60" height="382" rx="11.851" transform="translate(509 181)" fill="none" stroke="#3f3d56" stroke-miterlimit="10" stroke-width="1"/>
  <rect id="Rectangle_464" data-name="Rectangle 464" width="60" height="492" rx="11.851" transform="translate(623 71)" fill="none" stroke="#3f3d56" stroke-miterlimit="10" stroke-width="1"/>
  <line id="Line_45" data-name="Line 45" x1="861" transform="translate(0 571.5)" fill="none" stroke="#3f3d56" stroke-miterlimit="10" stroke-width="1"/>
  <path id="Path_953" data-name="Path 953" d="M960.145,556.951s9.411,33.879-2.51,38.9-8.156-37.643-8.156-37.643Z" transform="translate(-153.441 -81.375)" fill="#a0616a"/>
  <path id="Path_954" data-name="Path 954" d="M874.82,774.028s-8.783-.627-11.92,1.255a7.571,7.571,0,0,1-6.274.627s-13.8-1.255-8.783,5.646,10.038,9.411,10.038,12.548,20.7,3.137,21.331,0,1.255-19.449,0-20.076S874.82,774.028,874.82,774.028Z" transform="translate(-153.441 -81.375)" fill="#575a89"/>
  <path id="Path_955" data-name="Path 955" d="M898.033,774.028s8.783-.627,11.92,1.255a7.571,7.571,0,0,0,6.274.627s13.8-1.255,8.783,5.646-10.038,9.411-10.038,12.548-20.7,3.137-21.331,0-1.255-19.449,0-20.076S898.033,774.028,898.033,774.028Z" transform="translate(-153.441 -81.375)" fill="#575a89"/>
  <path id="Path_956" data-name="Path 956" d="M849.1,550.05S844.7,649.177,847.214,654.2s11.293,89.717,10.038,94.736-7.529,25.723,0,28.86,23.841,0,23.841,0,4.392-25.1,2.51-38.271-2.51-68.385-2.51-68.385l12.548-57.72L898.033,668s1.255,74.659-7.529,89.717,3.137,21.331,3.137,21.331,23.841,3.137,26.35,2.51-1.882-25.1,0-35.761,6.274-70.268,10.038-84.7,25.1-94.736,9.411-111.048S849.1,550.05,849.1,550.05Z" transform="translate(-153.441 -81.375)" fill="#3f3d56"/>
  <circle id="Ellipse_329" data-name="Ellipse 329" cx="21.959" cy="21.959" r="21.959" transform="translate(719.496 224.62)" fill="#a0616a"/>
  <path id="Path_957" data-name="Path 957" d="M878.584,337.992s3.764,30.115,1.882,30.742,33.252,0,33.252,0-6.9-18.194,0-32.624Z" transform="translate(-153.441 -81.375)" fill="#a0616a"/>
  <path id="Path_958" data-name="Path 958" d="M878.584,362.46s15.291-15.057,33.369,0l1.17,4.488-9.443-.1h-25.1Z" transform="translate(-153.441 -81.375)" fill="#f2f2f2"/>
  <path id="Path_959" data-name="Path 959" d="M953.243,555.069c-1.449.289-5,.878-9.63,1.581-15.415,2.328-42.731,5.854-43.7,3.438-1.255-3.137-5.646-14.43-8.783-9.411s-1.255,9.411-14.43,10.038c-8.965.427-22-.891-29.211-2.961-3.388-.972-5.5-2.108-5.3-3.313.627-3.764,7.529-75.287,7.529-82.188s2.51-40.153,2.51-40.153L834.2,396.621l-1.418-2.792s1.882-6.9,7.529-8.156,32.624-16.939,32.624-16.939,5.646-8.783,16.312-8.156,13.175-3.764,27.605,8.156c0,0,17.567,7.529,23.841,11.293s13.175,3.764,13.8,10.038c.125,1.261-.558,3.689-1.732,6.757-4.3,11.243-15.158,31.137-16.858,34.237-.151.27-.232.414-.232.414s-.326,11.28.019,24.487v.031c.339,12.667,1.292,27.1,3.745,35.084C944.46,507.387,959.517,553.814,953.243,555.069Z" transform="translate(-153.441 -81.375)" fill="#575a89"/>
  <path id="Path_960" data-name="Path 960" d="M923.4,318.94a14.958,14.958,0,0,0-2.482-5.546,29.965,29.965,0,0,0-4.473-12.9,13.539,13.539,0,0,0-4.007-4.625,11.831,11.831,0,0,0-6.3-1.572c-.4-.007-1.12.115-1.768.144-.415-.128-.833-.243-1.253-.351-.245-.545-.73-2.133-.866-2.025l-1.83,1.454c-.773-.134-1.551-.239-2.331-.322l-.852-2.431a16.655,16.655,0,0,0-1.209,2.272q-1.165-.057-2.332-.04l-1.555-1.494a2.193,2.193,0,0,1-1.715,1.68c-.716.073-1.428.169-2.138.284h-.173c-3.829-.1-7.95-.267-11.152,1.835a10.99,10.99,0,0,0-3.55,4.029c-.392.266-.785.531-1.166.814a12.747,12.747,0,0,0-3.285,3.256,13.81,13.81,0,0,0-1.453,3.522,33.759,33.759,0,0,0-1.673,11.534,17.117,17.117,0,0,0,4.208,10.683c1.642,1.765,3.73,3.068,5.375,4.83,3.386,3.629,4.021,8.691,6.917,12.531,3.064,4.062,8.655,6.734,13.565,7.5a22.66,22.66,0,0,0,16.88-4.21,10.443,10.443,0,0,0,2.874-3.013c1.7-2.948.982-6.653,1.615-10C918.453,330.5,924.438,325.238,923.4,318.94Z" transform="translate(-153.441 -81.375)" fill="#3f3d56"/>
  <path id="Path_961" data-name="Path 961" d="M839.686,558.833s9.411,33.879-2.51,38.9-8.156-37.643-8.156-37.643Z" transform="translate(-153.441 -81.375)" fill="#a0616a"/>
  <path id="Path_962" data-name="Path 962" d="M850.972,481.953s-4.116,61.083-3.482,75.8c-3.388-.972-5.5-2.108-5.3-3.313.627-3.764,7.529-75.287,7.529-82.188s2.51-40.153,2.51-40.153L834.2,396.621c.289-1.757.464-2.792.464-2.792l9.1,19.135,12.862,3.451Z" transform="translate(-153.441 -81.375)" opacity="0.1"/>
  <path id="Path_963" data-name="Path 963" d="M837.176,390.065l-4.392,3.764s-5.646,33.252-5.019,41.408-13.175,131.752-2.51,131.752,22.586-1.882,20.7-6.274,3.133-78.762,3.133-78.762l5.65-65.537Z" transform="translate(-153.441 -81.375)" fill="#575a89"/>
  <path id="Path_964" data-name="Path 964" d="M952.766,396.822c-4.3,11.243-15.158,31.137-16.858,34.237.05-8.024.082-13.7.082-13.7l13.175-26.978,2.823-2.2S952.29,391.5,952.766,396.822Z" transform="translate(-153.441 -81.375)" opacity="0.1"/>
  <path id="Path_965" data-name="Path 965" d="M953.243,555.069c-1.449.289-5,.878-9.63,1.581-2.4-17.768-8.827-68.862-8.419-73.674.2-2.372.37-14.091.5-26.984.339,12.667,1.292,27.1,3.745,35.084C944.46,507.387,959.517,553.814,953.243,555.069Z" transform="translate(-153.441 -81.375)" opacity="0.1"/>
  <path id="Path_966" data-name="Path 966" d="M945.087,385.673l9.411,2.51s6.274,69.64,6.9,81.561,8.156,85.325,6.9,88.462-20.7,7.529-21.331,4.392-9.748-73.921-9.266-79.623-2.655-64.677-2.655-64.677Z" transform="translate(-153.441 -81.375)" fill="#575a89"/>
  <path id="Path_967" data-name="Path 967" d="M196.5,344.5l114-95,115-65,114-63,114-110" fill="none" stroke="#3f3d56" stroke-miterlimit="10" stroke-width="1"/>
  <circle id="Ellipse_330" data-name="Ellipse 330" cx="11" cy="11" r="11" transform="translate(182.5 338.5)" fill="#f2f2f2"/>
  <circle id="Ellipse_331" data-name="Ellipse 331" cx="11" cy="11" r="11" transform="translate(296.5 243.5)" fill="#f2f2f2"/>
  <circle id="Ellipse_332" data-name="Ellipse 332" cx="11" cy="11" r="11" transform="translate(411.5 178.5)" fill="#f2f2f2"/>
  <circle id="Ellipse_333" data-name="Ellipse 333" cx="11" cy="11" r="11" transform="translate(525.5 115.5)" fill="#f2f2f2"/>
  <circle id="Ellipse_334" data-name="Ellipse 334" cx="11" cy="11" r="11" transform="translate(639.5 5.5)" fill="#f2f2f2"/>
  <circle id="Ellipse_335" data-name="Ellipse 335" cx="11" cy="11" r="11" transform="translate(185.5 333.5)" fill="none" stroke="#3f3d56" stroke-miterlimit="10" stroke-width="1"/>
  <circle id="Ellipse_336" data-name="Ellipse 336" cx="11" cy="11" r="11" transform="translate(299.5 238.5)" fill="none" stroke="#3f3d56" stroke-miterlimit="10" stroke-width="1"/>
  <circle id="Ellipse_337" data-name="Ellipse 337" cx="11" cy="11" r="11" transform="translate(414.5 173.5)" fill="none" stroke="#3f3d56" stroke-miterlimit="10" stroke-width="1"/>
  <circle id="Ellipse_338" data-name="Ellipse 338" cx="11" cy="11" r="11" transform="translate(528.5 110.5)" fill="none" stroke="#3f3d56" stroke-miterlimit="10" stroke-width="1"/>
  <circle id="Ellipse_339" data-name="Ellipse 339" cx="11" cy="11" r="11" transform="translate(642.5 0.5)" fill="none" stroke="#3f3d56" stroke-miterlimit="10" stroke-width="1"/>
</svg>
