<svg id="Group_103" data-name="Group 103" xmlns="http://www.w3.org/2000/svg" width="453.769" height="401.79" viewBox="0 0 453.769 401.79">
  <path id="Path_512" data-name="Path 512" d="M405.409,610.759s-32.753,64.809-4.878,64.809,379.1,1.394,388.853-16.725c6.835-12.694,3.067-57.884.2-83.805a19.819,19.819,0,0,0-20.8-17.61c-75.96,4.193-359.732,19.73-358.5,17.791,2.439-3.833.7-2.787.7-2.787S399.834,607.971,405.409,610.759Z" transform="translate(-372.484 -273.802)" fill="#a247cb"/>
  <path id="Path_513" data-name="Path 513" d="M792.74,575.037a19.819,19.819,0,0,0-20.8-17.61c-75.96,4.193-359.732,19.73-358.5,17.791,2.439-3.833.7-2.787.7-2.787s-2.489,7.934-4.527,16.6c.289-.029.5.243-.436,1.9q-.126.56-.247,1.121c11.366,1.123,283.923-13.8,358.133-17.9a19.819,19.819,0,0,1,20.8,17.61c2.133,19.272,4.762,49.192,3.162,68.493a4.167,4.167,0,0,0,1.518-1.412C799.378,646.148,795.609,600.958,792.74,575.037Z" transform="translate(-374.945 -273.802)" opacity="0.1"/>
  <path id="Path_514" data-name="Path 514" d="M442.055,501.027c-3.631-1.113-8.226-2.55-7.812-4.893.22-1.245,1.886-2.216,3.093-3.26,2.327-2.012,2.954-4.846.455-6.789s-8.519-2.2-10.724-.147c-1.134,1.058-1.066,2.384-1.651,3.579-1.827,3.727-9.218,5.364-15.5,6.812s-13.3,4.142-12.714,8c.644,4.206,10.331,7.938,6.433,11.524-1.413,1.3-4.386,2.026-5.019,3.514-.445,1.047.449,2.111,1.317,3.068l6.168,6.8c2.454,2.7,4.983,5.646,4.161,8.656-1.629,5.966-14.872,8.248-25.368,7.578-3.844-.245-8.362-.582-11,1.034-2.036,1.245-2.032,3.184-1.356,4.843,1.741,4.271,7.312,7.97,14.442,9.589-7.991,1.577-11.129,8.222-5.612,11.883a16.419,16.419,0,0,1-9.785.28c-2.729,2.512-1.125,5.959,2.336,8.157s8.364,3.434,13.111,4.608l-4.443,4.154c3.215,2.511,10.158,1.626,14.84.039s9.763-3.718,15.009-2.888c4.92.779,8.641,4.061,13.651,3.5,3.882-.435,5.73-2.93,6.939-5.084l5.142-9.154c7.319,1.145,15.014-3.87,12.075-7.869,8.19.88,16.252-4.439,13.563-8.948a26.213,26.213,0,0,1,8.935,11.371c.671,1.831,1.08,3.768,2.909,5.319a9.661,9.661,0,0,0,8.451,1.529c-1.494,2.9-2.7,6.274.366,8.732s11.925,1.76,11.535-1.251c4.68,2.011,9.925,3.9,15.774,4.051s12.25-2.076,12.783-5.409A81.72,81.72,0,0,0,550.1,588.06c.738-2.231,5.895-2.952,9.75-2.407s7.431,1.855,11.4,1.857,8.242-2.388,6.209-4.338a82.086,82.086,0,0,0,25.443,1.284c8.014-.851,15.61-2.873,23.725-3.309a56.667,56.667,0,0,1,24.153,3.815c2.661,1.115,5.967,2.52,8.89,1.645,1.658-.5,2.464-1.568,3.59-2.423,4.848-3.678,14.76-2.972,22.408-1.527s16.544,3.187,23.244.631c2.528-.964,4.391-2.454,7.081-3.264,9.634-2.9,21.166,4.531,31.392,2.393,3.33-.7,6.032-2.362,9.559-2.567,6.257-.364,10.392,3.876,16.475,4.788,6.312.947,13.155-2.894,11.615-6.52a56.664,56.664,0,0,0,17.916-2.49l-2.866-5.158c7.141-.115,12.393-5.234,9.085-8.853,7.161-1.364,12.823-5.034,14.294-9.266s-1.3-8.861-7.007-11.687c-3.366-1.668-7.787-2.841-9.711-5.137-1.386-1.654-1.184-3.578-1.723-5.386-1.18-3.957-6.292-7.451-12.9-8.813-2.869-.592-6.007-.817-8.6-1.73s-4.473-2.893-2.974-4.411c.793-.8,2.321-1.277,3.309-2.006,4.006-2.958-2.863-6.7-8.727-8.363l14-.458,3.007-13.633c-5.54,4.506-19.912,3.558-23.513-1.551,4.5,1.476,10.532-.411,12.731-3.1s1.659-5.808,1.072-8.754a4.248,4.248,0,0,0-2.334-3.477c-1.371-.653-3.554-.925-4-1.912-.459-1.007,1.314-1.9,1.577-2.927.5-1.977-4.039-2.848-7.107-3.8-7.239-2.255-10.745-8.594-18.982-8.388-8.173.2-10.457,6.444-10.463,11.121s-2.771,10.931-10.951,10.846a22.414,22.414,0,0,1-8.722-2.333l-23.426-10.1a56.093,56.093,0,0,0-9.621-3.449c-4.725-1.1-9.945-1.233-15.045-1.349l-32.77-.745a15.267,15.267,0,0,0-4.971.427c-1.721.575-2.558,1.708-3.595,2.681-4.563,4.284-15.292,5.962-23.034,3.6-2.053-.626-3.892-1.488-6.068-1.96-6.852-1.485-14.042,1.262-21.161,2.255-11.67,1.627-26.173-1.173-34.586,3.728-2.8,1.634-4.293,3.869-6.892,5.61s-7.29,2.923-10.568,1.608c.412,3.2.787,6.531-1.377,9.488s-7.713,5.369-13.165,4.624c-2.894-.765-2.665-3.2-1.3-4.843s3.467-3.328,2.785-5.108-3.774-2.793-6.091-4.024-3.861-3.565-1.4-4.7c-1.658-2.13-7.616-1.871-10.237-.084s-2.883,4.3-3.169,6.629-.909,4.874-3.945,6.431c-5.175,2.653-15.111,1.277-18.543,4.732-1.09,1.1-1.155,2.422-1.779,3.633-2.784,5.4-14.8,6.8-24.631,7.246a12.056,12.056,0,0,0-.137,3.411C450.092,504.734,444.491,501.774,442.055,501.027Z" transform="translate(-370.092 -261.197)" fill="#61ab43"/>
  <path id="Path_515" data-name="Path 515" d="M841.189,499.713c.587,2.946,1.128,6.069-1.072,8.754a6.72,6.72,0,0,1-1.1,1.042l8.875-.29,3.007-13.634c-2.3,1.867-6.106,2.795-10.039,2.881A8.761,8.761,0,0,1,841.189,499.713Z" transform="translate(-428.844 -266.056)" opacity="0.1"/>
  <path id="Path_516" data-name="Path 516" d="M842.107,517.941c-.349-1.843-3.388-3.713-6.79-5.05a13.825,13.825,0,0,1-9.6.842C828.2,517.256,835.808,518.8,842.107,517.941Z" transform="translate(-427.177 -268.225)" opacity="0.1"/>
  <path id="Path_517" data-name="Path 517" d="M847.387,530.021l-.23,1.042-14,.458c5.864,1.661,12.733,5.405,8.727,8.363-.988.73-2.516,1.2-3.309,2.006-1.5,1.518.377,3.5,2.974,4.411s5.736,1.138,8.6,1.73c6.6,1.362,11.717,4.856,12.9,8.813.539,1.808.337,3.732,1.723,5.386,1.924,2.3,6.345,3.47,9.711,5.137.324.161.636.329.941.5,3.043-1.721,5.231-3.941,6.066-6.343,1.472-4.232-1.3-8.861-7.007-11.687-3.366-1.668-7.787-2.841-9.711-5.137-1.386-1.654-1.184-3.578-1.723-5.386-1.179-3.957-6.292-7.451-12.9-8.813C849.247,530.317,848.318,530.168,847.387,530.021Z" transform="translate(-428.109 -270.372)" opacity="0.1"/>
  <path id="Path_518" data-name="Path 518" d="M379.1,600.29c1.09-2.321,3.874-4.382,7.877-5.171a26.648,26.648,0,0,1-10.552-4.76,15.942,15.942,0,0,1-4.845-.606c-2.729,2.512-1.125,5.959,2.336,8.157a25.132,25.132,0,0,0,5.184,2.38Z" transform="translate(-370.092 -277.857)" opacity="0.1"/>
  <path id="Path_519" data-name="Path 519" d="M407.667,515.681a46.592,46.592,0,0,1,6.115-1.822c6.279-1.448,13.671-3.085,15.5-6.812.586-1.195.517-2.521,1.651-3.579,2.2-2.056,8.224-1.8,10.724.147s1.872,4.777-.455,6.789c-1.207,1.044-2.873,2.015-3.093,3.26-.414,2.343,4.181,3.78,7.812,4.893a15.44,15.44,0,0,1,4.728,2.494c.03-.249.06-.5.084-.742,9.826-.441,21.846-1.841,24.631-7.246.624-1.211.688-2.535,1.779-3.633,3.432-3.456,13.368-2.079,18.543-4.732,3.037-1.557,3.66-4.1,3.945-6.431s.548-4.842,3.169-6.629,8.579-2.047,10.237.084c-2.46,1.136-.915,3.469,1.4,4.7s5.414,2.258,6.09,4.024-1.417,3.462-2.785,5.108-1.6,4.078,1.3,4.843c5.452.745,11-1.667,13.165-4.624s1.789-6.292,1.377-9.488c3.278,1.315,7.969.134,10.568-1.608s4.087-3.976,6.892-5.61c8.413-4.9,22.916-2.1,34.586-3.728,7.119-.992,14.309-3.74,21.161-2.255,2.175.471,4.015,1.334,6.068,1.959,7.743,2.36,18.471.682,23.034-3.6,1.037-.974,1.873-2.106,3.595-2.681a15.264,15.264,0,0,1,4.971-.427l32.77.745c5.1.116,10.32.246,15.045,1.349a56.1,56.1,0,0,1,9.621,3.449l23.426,10.1a22.413,22.413,0,0,0,8.722,2.333c8.179.085,10.945-6.169,10.951-10.846s2.29-10.917,10.463-11.121c8.237-.206,11.742,6.132,18.982,8.388,3.068.956,7.612,1.827,7.107,3.8-.234.917-1.663,1.724-1.648,2.6a10.783,10.783,0,0,0,5.337-3.06c2.2-2.685,1.659-5.808,1.072-8.754a4.248,4.248,0,0,0-2.334-3.477c-1.371-.653-3.554-.925-4-1.912-.459-1.007,1.314-1.9,1.577-2.927.505-1.977-4.039-2.848-7.107-3.8-7.24-2.255-10.745-8.594-18.982-8.388-8.173.2-10.457,6.444-10.463,11.121s-2.771,10.931-10.951,10.846a22.413,22.413,0,0,1-8.722-2.333l-23.426-10.1a56.1,56.1,0,0,0-9.621-3.449c-4.725-1.1-9.945-1.233-15.045-1.349l-32.77-.745a15.262,15.262,0,0,0-4.971.427c-1.721.575-2.558,1.707-3.595,2.681-4.563,4.284-15.292,5.962-23.034,3.6-2.053-.626-3.892-1.488-6.068-1.959-6.852-1.485-14.042,1.262-21.161,2.255-11.67,1.627-26.173-1.173-34.586,3.728-2.805,1.634-4.293,3.869-6.892,5.61s-7.29,2.923-10.568,1.608c.412,3.2.787,6.531-1.377,9.488s-7.713,5.369-13.165,4.624c-2.893-.765-2.665-3.2-1.3-4.843s3.468-3.328,2.785-5.108-3.775-2.793-6.091-4.024-3.861-3.564-1.4-4.7c-1.658-2.131-7.616-1.871-10.237-.084s-2.883,4.3-3.169,6.629-.909,4.874-3.945,6.431c-5.175,2.653-15.111,1.277-18.543,4.732-1.09,1.1-1.155,2.422-1.778,3.633-2.784,5.4-14.8,6.8-24.631,7.246-.024.246-.054.494-.084.742a15.44,15.44,0,0,0-4.728-2.494c-3.631-1.113-8.226-2.549-7.812-4.893.22-1.245,1.886-2.216,3.093-3.26,2.327-2.012,2.954-4.846.455-6.789s-8.519-2.2-10.724-.147c-1.134,1.058-1.066,2.384-1.652,3.579-1.827,3.727-9.219,5.364-15.5,6.812s-13.3,4.142-12.714,8C401.7,508.467,411.082,512.147,407.667,515.681Z" transform="translate(-373.955 -261.197)" opacity="0.1"/>
  <path id="Path_520" data-name="Path 520" d="M387.256,573.35a13.765,13.765,0,0,0-4.86,1.9c.941.041,1.877.1,2.777.16,10.5.67,23.739-1.612,25.368-7.578.822-3.01-1.707-5.952-4.161-8.656l-2.959-3.26c-5.135,1.745-12.153,2.354-18.248,1.965-3.844-.245-8.362-.581-11,1.034-2.036,1.245-2.032,3.183-1.355,4.843C374.556,568.032,380.126,571.731,387.256,573.35Z" transform="translate(-370.368 -273.617)" opacity="0.1"/>
  <ellipse id="Ellipse_227" data-name="Ellipse 227" cx="104.53" cy="68.99" rx="104.53" ry="68.99" transform="translate(126.133 134.474)" fill="#ea565c"/>
  <path id="Path_521" data-name="Path 521" d="M588,454.652s-47.387,4.878-33.45-15.331,31.359-27.178,39.722-21.6,11.847,20.906,10.453,20.906-21.6-11.847-28.572-2.787S588,454.652,588,454.652Z" transform="translate(-392.872 -256.066)" fill="#fff" opacity="0.2"/>
  <path id="Path_522" data-name="Path 522" d="M635.884,462.467s39.132,27.167,15.392,33.422-41.5.193-44.21-9.484,4.63-23.579,5.687-22.671,8.674,23.061,19.862,20.727S635.884,462.467,635.884,462.467Z" transform="translate(-399.701 -261.906)" fill="#fff" opacity="0.2"/>
  <path id="Path_523" data-name="Path 523" d="M650.543,438.11s3.088-47.537,20.692-30.427,21.571,35.45,14.68,42.767-22.588,8.2-22.356,6.822,15.282-19.326,7.511-27.707S650.543,438.11,650.543,438.11Z" transform="translate(-405.224 -254.575)" fill="#fff" opacity="0.2"/>
  <ellipse id="Ellipse_228" data-name="Ellipse 228" cx="104.53" cy="68.99" rx="104.53" ry="68.99" transform="translate(0 128.899)" fill="#ea565c"/>
  <path id="Path_524" data-name="Path 524" d="M443.79,448.278s-47.387,4.878-33.45-15.331,31.359-27.178,39.722-21.6,11.847,20.906,10.453,20.906-21.6-11.847-28.572-2.787S443.79,448.278,443.79,448.278Z" transform="translate(-374.8 -255.267)" fill="#fff" opacity="0.2"/>
  <path id="Path_525" data-name="Path 525" d="M491.678,456.093s39.132,27.167,15.392,33.422-41.5.193-44.21-9.484,4.63-23.579,5.687-22.671,8.674,23.061,19.862,20.727S491.678,456.093,491.678,456.093Z" transform="translate(-381.629 -261.107)" fill="#fff" opacity="0.2"/>
  <path id="Path_526" data-name="Path 526" d="M506.337,431.737s3.088-47.537,20.692-30.427,21.571,35.45,14.68,42.767-22.588,8.2-22.356,6.822,15.282-19.326,7.511-27.707S506.337,431.737,506.337,431.737Z" transform="translate(-387.152 -253.776)" fill="#fff" opacity="0.2"/>
  <path id="Path_527" data-name="Path 527" d="M534.39,392.287c22.769,12.655,37.24,31.606,37.24,52.79,0,38.1-46.8,68.99-104.53,68.99a146.527,146.527,0,0,1-54.05-9.928c18.183,10.107,41.657,16.2,67.29,16.2,57.731,0,104.53-30.888,104.53-68.99C584.87,426.3,564.647,404.374,534.39,392.287Z" transform="translate(-375.461 -253.111)" opacity="0.1"/>
  <path id="Path_528" data-name="Path 528" d="M678.6,397.863c22.769,12.655,37.24,31.606,37.24,52.79,0,38.1-46.8,68.99-104.531,68.99a146.528,146.528,0,0,1-54.05-9.928c18.183,10.107,41.657,16.2,67.29,16.2,57.731,0,104.53-30.888,104.53-68.99C729.076,431.879,708.852,409.951,678.6,397.863Z" transform="translate(-393.533 -253.81)" opacity="0.1"/>
  <path id="Path_529" data-name="Path 529" d="M415.577,434.836s89.9-96.168,310.107-56.446c174.078,31.4,31.13,85.445-36.4,106.711a242.637,242.637,0,0,1-60.4,10.875C552.691,499.9,361.058,503.407,415.577,434.836Z" transform="translate(-374.572 -250.164)" fill="#714b4f"/>
  <path id="Path_530" data-name="Path 530" d="M689.283,468.923a242.628,242.628,0,0,1-60.4,10.875c-61.719,3.178-199.2,6.081-220.2-29.385-26.522,57.327,148.278,54,220.2,50.292a242.628,242.628,0,0,0,60.4-10.876c49.5-15.587,139.513-48.786,115.5-77.769C788.62,434.805,727.118,457.008,689.283,468.923Z" transform="translate(-374.573 -255.589)" opacity="0.1"/>
  <line id="Line_14" data-name="Line 14" x2="24.39" y2="48.084" transform="translate(232.992 128.574)" fill="none" stroke="#000" stroke-miterlimit="10" stroke-width="2" opacity="0.1"/>
  <line id="Line_15" data-name="Line 15" x2="20.906" y2="40.418" transform="translate(157.73 145.996)" fill="none" stroke="#000" stroke-miterlimit="10" stroke-width="2" opacity="0.1"/>
  <line id="Line_16" data-name="Line 16" x2="32.753" y2="48.084" transform="translate(276.895 128.574)" fill="none" stroke="#000" stroke-miterlimit="10" stroke-width="2" opacity="0.1"/>
  <line id="Line_17" data-name="Line 17" y1="27.875" x2="219.514" transform="translate(157.73 162.721)" fill="none" stroke="#000" stroke-miterlimit="10" stroke-width="2" opacity="0.1"/>
  <line id="Line_18" data-name="Line 18" x2="15.331" y2="21.603" transform="translate(368.882 137.634)" fill="none" stroke="#000" stroke-miterlimit="10" stroke-width="2" opacity="0.1"/>
  <line id="Line_19" data-name="Line 19" x2="9.756" y2="20.209" transform="translate(114.524 162.721)" fill="none" stroke="#000" stroke-miterlimit="10" stroke-width="2" opacity="0.1"/>
  <path id="Path_531" data-name="Path 531" d="M519.488,343.81s200.461-.907,202.3-2.721,44.138-2.775,52.414,9.015,11.034,17.231,0,19.045S399.947,556.878,399.947,556.878s-20.23,1.814-10.115-18.138S519.488,343.81,519.488,343.81Z" transform="translate(-372.197 -246.558)" fill="#f6c964"/>
  <path id="Path_532" data-name="Path 532" d="M611.524,437.664c0,7.505-36.192,25.784-80.837,25.784s-80.837-18.279-80.837-25.784,36.192-10.453,80.837-10.453S611.524,430.159,611.524,437.664Z" transform="translate(-380.073 -257.487)" fill="#61ab43"/>
  <ellipse id="Ellipse_229" data-name="Ellipse 229" cx="80.837" cy="13.589" rx="80.837" ry="13.589" transform="translate(69.777 166.239)" fill="#61ab43"/>
  <path id="Path_533" data-name="Path 533" d="M723.064,423.323c0,7.5-36.192,25.784-80.837,25.784s-80.837-18.279-80.837-25.784,36.192-10.453,80.837-10.453S723.064,415.818,723.064,423.323Z" transform="translate(-394.051 -255.69)" fill="#61ab43"/>
  <ellipse id="Ellipse_230" data-name="Ellipse 230" cx="80.837" cy="13.589" rx="80.837" ry="13.589" transform="translate(167.339 153.695)" fill="#61ab43"/>
  <path id="Path_534" data-name="Path 534" d="M834.6,408.982c0,7.505-36.192,25.784-80.837,25.784s-80.837-18.279-80.837-25.784,36.192-10.453,80.837-10.453S834.6,401.477,834.6,408.982Z" transform="translate(-408.03 -253.893)" fill="#61ab43"/>
  <ellipse id="Ellipse_231" data-name="Ellipse 231" cx="80.837" cy="13.589" rx="80.837" ry="13.589" transform="translate(264.901 141.152)" fill="#61ab43"/>
  <path id="Path_535" data-name="Path 535" d="M421.967,392.12s-33.247-5.412-16.237-32.474,22.731-57.4,30.154-64.174c8.3-7.577,179.583-140.424,313.022,6.579a196.116,196.116,0,0,1,34.029,53.137c1.614,3.674,3.394,6.971,5.133,8.711,5.412,5.412,10.051,20.876,0,28.608S481.889,430.392,421.967,392.12Z" transform="translate(-373.937 -233.17)" fill="#a247cb"/>
  <path id="Path_536" data-name="Path 536" d="M601.112,285.945a13.006,13.006,0,0,1-6.959,2.32c-3.843,0-6.959-1.039-6.959-2.32s3.116-2.32,6.959-2.32A13.006,13.006,0,0,1,601.112,285.945Z" transform="translate(-397.285 -239.493)" fill="#f2f2f2"/>
  <path id="Path_537" data-name="Path 537" d="M537.466,269.15a13.006,13.006,0,0,1-6.959,2.32c-3.843,0-6.959-1.039-6.959-2.32s3.115-2.32,6.959-2.32A13.006,13.006,0,0,1,537.466,269.15Z" transform="translate(-389.309 -237.388)" fill="#f2f2f2"/>
  <path id="Path_538" data-name="Path 538" d="M710.446,293.224a13.005,13.005,0,0,1-7.334.136c-3.668-1.147-6.331-3.069-5.949-4.291s3.666-1.284,7.334-.136A13.006,13.006,0,0,1,710.446,293.224Z" transform="translate(-411.062 -240.055)" fill="#f2f2f2"/>
  <path id="Path_539" data-name="Path 539" d="M592.879,248.142a13.006,13.006,0,0,1-7.334.136c-3.668-1.147-6.331-3.069-5.949-4.291s3.666-1.284,7.334-.136a13.007,13.007,0,0,1,5.949,4.291Z" transform="translate(-396.328 -234.406)" fill="#f2f2f2"/>
  <path id="Path_540" data-name="Path 540" d="M721.053,264.053a13.006,13.006,0,0,1-7.334.136c-3.668-1.147-6.331-3.069-5.949-4.291s3.666-1.284,7.334-.136a13.006,13.006,0,0,1,5.949,4.291Z" transform="translate(-412.391 -236.4)" fill="#f2f2f2"/>
  <path id="Path_541" data-name="Path 541" d="M694.812,262.078a13.006,13.006,0,0,1-6.959,2.32c-3.843,0-6.959-1.039-6.959-2.32s3.115-2.32,6.959-2.32A13.007,13.007,0,0,1,694.812,262.078Z" transform="translate(-409.028 -236.502)" fill="#f2f2f2"/>
  <path id="Path_542" data-name="Path 542" d="M618.791,246.167a13.006,13.006,0,0,1-6.959,2.32c-3.843,0-6.959-1.039-6.959-2.32s3.115-2.32,6.959-2.32A13.006,13.006,0,0,1,618.791,246.167Z" transform="translate(-399.501 -234.508)" fill="#f2f2f2"/>
  <path id="Path_543" data-name="Path 543" d="M677.132,246.167a13.006,13.006,0,0,1-6.959,2.32c-3.843,0-6.959-1.039-6.959-2.32s3.116-2.32,6.959-2.32A13.006,13.006,0,0,1,677.132,246.167Z" transform="translate(-406.812 -234.508)" fill="#f2f2f2"/>
  <path id="Path_544" data-name="Path 544" d="M655.033,280.641a13.006,13.006,0,0,1-6.959,2.32c-3.843,0-6.959-1.039-6.959-2.32s3.115-2.32,6.959-2.32A13.006,13.006,0,0,1,655.033,280.641Z" transform="translate(-404.043 -238.829)" fill="#f2f2f2"/>
  <path id="Path_545" data-name="Path 545" d="M592.75,273.406a13.006,13.006,0,0,1,3.648-6.364c2.868-2.559,5.884-3.858,6.737-2.9s-.78,3.8-3.648,6.364A13.006,13.006,0,0,1,592.75,273.406Z" transform="translate(-397.981 -237.012)" fill="#f2f2f2"/>
  <path id="Path_546" data-name="Path 546" d="M552.971,263.682a13.005,13.005,0,0,1,3.648-6.364c2.868-2.559,5.884-3.858,6.736-2.9s-.78,3.8-3.648,6.363a13.006,13.006,0,0,1-6.737,2.9Z" transform="translate(-392.996 -235.793)" fill="#f2f2f2"/>
  <path id="Path_547" data-name="Path 547" d="M484.023,311.416a13.006,13.006,0,0,1,3.648-6.364c2.868-2.559,5.884-3.858,6.737-2.9s-.78,3.8-3.648,6.363a13.005,13.005,0,0,1-6.736,2.9Z" transform="translate(-384.356 -241.776)" fill="#f2f2f2"/>
  <path id="Path_548" data-name="Path 548" d="M636.948,258.379a13.006,13.006,0,0,1,3.648-6.364c2.868-2.559,5.884-3.858,6.737-2.9s-.78,3.8-3.648,6.364A13.006,13.006,0,0,1,636.948,258.379Z" transform="translate(-403.52 -235.129)" fill="#f2f2f2"/>
  <path id="Path_549" data-name="Path 549" d="M621.036,290.2a13,13,0,0,1,3.648-6.363c2.868-2.559,5.884-3.858,6.736-2.9s-.78,3.8-3.648,6.364A13.006,13.006,0,0,1,621.036,290.2Z" transform="translate(-401.526 -239.117)" fill="#f2f2f2"/>
</svg>
