<svg xmlns="http://www.w3.org/2000/svg" xmlns:xlink="http://www.w3.org/1999/xlink" width="350" height="350" viewBox="0 0 350 350">
  <defs>
    <filter id="Ellipse_255" x="0" y="0" width="350" height="350" filterUnits="userSpaceOnUse">
      <feOffset input="SourceAlpha"/>
      <feGaussianBlur stdDeviation="5" result="blur"/>
      <feFlood flood-color="#a247cb"/>
      <feComposite operator="in" in2="blur"/>
      <feComposite in="SourceGraphic"/>
    </filter>
  </defs>
  <g id="Group_53" data-name="Group 53" transform="translate(-21 -73)">
    <g transform="matrix(1, 0, 0, 1, 21, 73)" filter="url(#Ellipse_255)">
      <g id="Ellipse_255-2" data-name="Ellipse 255" transform="translate(15 15)" fill="#fff" stroke="#707070" stroke-width="1">
        <circle cx="160" cy="160" r="160" stroke="none"/>
        <circle cx="160" cy="160" r="159.5" fill="none"/>
      </g>
    </g>
    <g id="Group_44" data-name="Group 44" transform="translate(71.053 111)">
      <path id="Path_512" data-name="Path 512" d="M398.2,586.893s-18.1,35.824-2.7,35.824,209.551.77,214.944-9.245c3.778-7.017,1.7-32,.109-46.325a10.955,10.955,0,0,0-11.5-9.734c-41.988,2.318-198.847,10.906-198.164,9.834,1.348-2.119.385-1.541.385-1.541S395.119,585.352,398.2,586.893Z" transform="translate(-380.001 -400.636)" fill="#a247cb"/>
      <path id="Path_513" data-name="Path 513" d="M621.086,567.148a10.955,10.955,0,0,0-11.5-9.734c-41.988,2.318-198.847,10.906-198.164,9.834,1.348-2.119.385-1.541.385-1.541s-1.376,4.386-2.5,9.175c.16-.016.279.134-.241,1.05q-.069.31-.137.62c6.283.621,156.942-7.629,197.963-9.893a10.955,10.955,0,0,1,11.5,9.734c1.179,10.653,2.632,27.192,1.748,37.86a2.3,2.3,0,0,0,.839-.781C624.756,606.455,622.673,581.476,621.086,567.148Z" transform="translate(-390.145 -400.636)" opacity="0.1"/>
      <path id="Path_514" data-name="Path 514" d="M409.921,481.252c-2.007-.615-4.547-1.409-4.318-2.7.122-.688,1.042-1.225,1.71-1.8,1.286-1.112,1.633-2.679.251-3.753s-4.709-1.218-5.928-.081c-.627.585-.589,1.318-.913,1.978-1.01,2.06-5.1,2.965-8.567,3.765s-7.354,2.29-7.028,4.421c.356,2.325,5.71,4.388,3.556,6.37-.781.719-2.425,1.12-2.774,1.943-.246.579.248,1.167.728,1.7l3.41,3.757c1.357,1.495,2.754,3.121,2.3,4.785-.9,3.3-8.221,4.559-14.023,4.189-2.125-.136-4.622-.321-6.082.571a1.99,1.99,0,0,0-.749,2.677c.963,2.361,4.042,4.406,7.983,5.3-4.417.871-6.152,4.545-3.1,6.569a9.076,9.076,0,0,1-5.409.155c-1.508,1.389-.622,3.294,1.291,4.509a25.646,25.646,0,0,0,7.247,2.547l-2.456,2.3c1.777,1.388,5.615.9,8.2.021s5.4-2.055,8.3-1.6c2.72.431,4.776,2.245,7.546,1.934a4.865,4.865,0,0,0,3.836-2.81l2.842-5.06c4.046.633,8.3-2.139,6.675-4.35,4.527.486,8.983-2.454,7.5-4.946a14.49,14.49,0,0,1,4.939,6.285,6,6,0,0,0,1.608,2.94,5.34,5.34,0,0,0,4.671.845c-.826,1.6-1.494,3.468.2,4.827s6.592.973,6.376-.691a23.541,23.541,0,0,0,8.719,2.24c3.233.083,6.772-1.148,7.066-2.99a45.172,45.172,0,0,0,14.121,2.273c.408-1.233,3.258-1.632,5.389-1.33s4.108,1.025,6.3,1.027,4.556-1.32,3.432-2.4a45.374,45.374,0,0,0,14.064.71c4.43-.47,8.628-1.588,13.114-1.829a31.323,31.323,0,0,1,13.351,2.109c1.471.617,3.3,1.393,4.914.909a5.867,5.867,0,0,0,1.984-1.339c2.68-2.033,8.159-1.643,12.386-.844s9.145,1.761,12.849.349c1.4-.533,2.427-1.357,3.914-1.8,5.326-1.6,11.7,2.5,17.352,1.323,1.841-.385,3.334-1.306,5.284-1.419,3.459-.2,5.744,2.143,9.107,2.647,3.489.523,7.272-1.6,6.42-3.6a31.322,31.322,0,0,0,9.9-1.376l-1.584-2.851c3.947-.064,6.851-2.893,5.022-4.894,3.958-.754,7.088-2.783,7.9-5.122s-.721-4.9-3.873-6.46c-1.861-.922-4.3-1.57-5.368-2.84-.766-.914-.654-1.978-.952-2.977-.652-2.187-3.478-4.118-7.129-4.871a38.476,38.476,0,0,1-4.756-.956c-1.436-.505-2.473-1.6-1.644-2.438a16.808,16.808,0,0,1,1.829-1.109c2.214-1.635-1.583-3.7-4.824-4.623l7.741-.253,1.662-7.536c-3.063,2.491-11.007,1.967-13-.857,2.486.816,5.821-.227,7.037-1.712s.917-3.211.592-4.839a2.348,2.348,0,0,0-1.29-1.922c-.758-.361-1.965-.512-2.213-1.057s.727-1.049.872-1.618c.279-1.093-2.233-1.574-3.929-2.1-4-1.247-5.939-4.75-10.492-4.636-4.518.113-5.78,3.562-5.783,6.147s-1.532,6.042-6.053,6a12.39,12.39,0,0,1-4.821-1.29l-12.949-5.585a31,31,0,0,0-5.318-1.906,41.462,41.462,0,0,0-8.316-.746l-18.114-.412a8.439,8.439,0,0,0-2.748.236,5.146,5.146,0,0,0-1.987,1.482c-2.522,2.368-8.453,3.3-12.732,1.991-1.135-.346-2.152-.823-3.354-1.083-3.787-.821-7.762.7-11.7,1.246-6.451.9-14.467-.649-19.118,2.061-1.55.9-2.373,2.138-3.81,3.1a7.061,7.061,0,0,1-5.841.889c.228,1.767.435,3.61-.761,5.245s-4.264,2.968-7.277,2.556c-1.6-.423-1.473-1.767-.717-2.677s1.917-1.839,1.54-2.824-2.086-1.544-3.367-2.225-2.134-1.97-.774-2.6c-.916-1.178-4.21-1.034-5.659-.046s-1.593,2.378-1.751,3.664a4.083,4.083,0,0,1-2.181,3.555c-2.861,1.466-8.353.706-10.25,2.616-.6.607-.638,1.339-.983,2.008-1.539,2.988-8.184,3.761-13.615,4.005a6.665,6.665,0,0,0-.076,1.885C414.363,483.3,411.267,481.665,409.921,481.252Z" transform="translate(-370.142 -348.683)" fill="#61ab43"/>
      <path id="Path_515" data-name="Path 515" d="M840.217,497.867c.325,1.629.623,3.355-.592,4.839a3.714,3.714,0,0,1-.608.576l4.906-.16,1.662-7.536a9.464,9.464,0,0,1-5.549,1.593A4.841,4.841,0,0,1,840.217,497.867Z" transform="translate(-612.288 -368.71)" opacity="0.1"/>
      <path id="Path_516" data-name="Path 516" d="M834.778,515.682c-.193-1.019-1.873-2.053-3.753-2.792a7.642,7.642,0,0,1-5.305.466C827.092,515.3,831.3,516.157,834.778,515.682Z" transform="translate(-605.42 -377.648)" opacity="0.1"/>
      <path id="Path_517" data-name="Path 517" d="M841.021,530.021l-.127.576-7.741.253c3.241.918,7.038,2.988,4.824,4.623a16.84,16.84,0,0,0-1.829,1.109c-.829.839.208,1.933,1.644,2.438a38.487,38.487,0,0,0,4.756.956c3.651.753,6.477,2.684,7.129,4.871.3,1,.186,2.063.952,2.977,1.064,1.27,3.507,1.918,5.368,2.84.179.089.352.182.52.277a7.033,7.033,0,0,0,3.353-3.506c.814-2.339-.721-4.9-3.873-6.46-1.861-.922-4.3-1.57-5.368-2.84-.766-.914-.654-1.978-.952-2.977-.652-2.187-3.478-4.118-7.129-4.871C842.05,530.185,841.536,530.1,841.021,530.021Z" transform="translate(-609.26 -386.496)" opacity="0.1"/>
      <path id="Path_518" data-name="Path 518" d="M375.123,595.578a5.9,5.9,0,0,1,4.354-2.859,14.73,14.73,0,0,1-5.833-2.631,8.809,8.809,0,0,1-2.678-.335c-1.508,1.389-.622,3.294,1.291,4.509A13.891,13.891,0,0,0,375.123,595.578Z" transform="translate(-370.142 -417.349)" opacity="0.1"/>
      <path id="Path_519" data-name="Path 519" d="M404.7,489.352a25.756,25.756,0,0,1,3.38-1.007c3.471-.8,7.557-1.705,8.567-3.765.324-.66.286-1.394.913-1.978,1.219-1.137,4.546-.993,5.928.081s1.035,2.641-.251,3.753c-.667.577-1.588,1.114-1.71,1.8-.229,1.3,2.311,2.089,4.318,2.7a8.534,8.534,0,0,1,2.613,1.378c.017-.137.033-.274.047-.41,5.431-.244,12.076-1.017,13.615-4.005.345-.669.38-1.4.983-2.008,1.9-1.91,7.389-1.149,10.25-2.616a4.083,4.083,0,0,0,2.181-3.555c.158-1.286.3-2.677,1.751-3.664s4.742-1.131,5.659.046c-1.36.628-.506,1.918.774,2.6s2.992,1.248,3.367,2.225-.783,1.914-1.539,2.824-.883,2.254.717,2.677c3.014.412,6.081-.922,7.277-2.556s.989-3.478.761-5.245a7.061,7.061,0,0,0,5.841-.889c1.437-.963,2.259-2.2,3.81-3.1,4.651-2.709,12.667-1.161,19.118-2.061,3.935-.549,7.91-2.067,11.7-1.246,1.2.261,2.219.737,3.354,1.083,4.28,1.3,10.21.377,12.732-1.991a5.147,5.147,0,0,1,1.987-1.482,8.437,8.437,0,0,1,2.748-.236l18.114.412a41.462,41.462,0,0,1,8.316.746,31.007,31.007,0,0,1,5.318,1.906l12.949,5.585a12.389,12.389,0,0,0,4.821,1.29c4.521.047,6.05-3.41,6.053-6s1.266-6.034,5.783-6.147c4.553-.114,6.491,3.39,10.492,4.636,1.7.528,4.208,1.01,3.928,2.1-.13.507-.919.953-.911,1.438a5.961,5.961,0,0,0,2.95-1.691c1.216-1.484.917-3.211.592-4.839a2.348,2.348,0,0,0-1.29-1.922c-.758-.361-1.965-.512-2.213-1.057s.727-1.049.872-1.618c.279-1.093-2.232-1.574-3.928-2.1-4-1.247-5.939-4.75-10.492-4.636-4.518.113-5.78,3.562-5.783,6.147s-1.532,6.042-6.053,6a12.39,12.39,0,0,1-4.821-1.29l-12.949-5.585a31.01,31.01,0,0,0-5.318-1.906,41.46,41.46,0,0,0-8.316-.746l-18.114-.412a8.438,8.438,0,0,0-2.748.236,5.148,5.148,0,0,0-1.987,1.482c-2.522,2.368-8.453,3.3-12.732,1.991-1.135-.346-2.152-.823-3.354-1.083-3.787-.821-7.762.7-11.7,1.246-6.451.9-14.467-.649-19.118,2.061-1.551.9-2.373,2.138-3.81,3.1a7.062,7.062,0,0,1-5.841.889c.228,1.767.435,3.61-.761,5.245s-4.263,2.968-7.277,2.556c-1.6-.423-1.473-1.767-.717-2.677s1.917-1.839,1.54-2.824-2.086-1.544-3.367-2.225-2.134-1.97-.774-2.6c-.916-1.178-4.21-1.034-5.659-.046s-1.593,2.378-1.751,3.664a4.082,4.082,0,0,1-2.181,3.555c-2.861,1.466-8.353.706-10.25,2.616-.6.607-.638,1.339-.983,2.008-1.539,2.988-8.184,3.761-13.615,4.005-.013.136-.03.273-.047.41a8.534,8.534,0,0,0-2.613-1.378c-2.007-.615-4.547-1.409-4.318-2.7.122-.688,1.042-1.225,1.71-1.8,1.286-1.112,1.633-2.679.251-3.753s-4.709-1.218-5.928-.081c-.627.585-.589,1.318-.913,1.978-1.01,2.06-5.1,2.965-8.567,3.765s-7.354,2.29-7.028,4.421C401.4,485.365,406.588,487.4,404.7,489.352Z" transform="translate(-386.065 -348.683)" opacity="0.1"/>
      <path id="Path_520" data-name="Path 520" d="M380.616,565.554a7.608,7.608,0,0,0-2.687,1.052c.52.023,1.038.057,1.535.089,5.8.371,13.122-.891,14.023-4.189.454-1.664-.943-3.29-2.3-4.785l-1.636-1.8A28.1,28.1,0,0,1,379.464,557c-2.125-.136-4.622-.321-6.082.571a1.99,1.99,0,0,0-.749,2.677C373.6,562.614,376.675,564.659,380.616,565.554Z" transform="translate(-371.281 -399.873)" opacity="0.1"/>
      <ellipse id="Ellipse_227" data-name="Ellipse 227" cx="57.781" cy="38.135" rx="57.781" ry="38.135" transform="translate(69.722 74.332)" fill="#ea565c"/>
      <path id="Path_521" data-name="Path 521" d="M571.888,437.306s-26.194,2.7-18.49-8.474,17.334-15.023,21.957-11.941,6.548,11.556,5.778,11.556-11.941-6.548-15.793-1.541S571.888,437.306,571.888,437.306Z" transform="translate(-464.031 -327.535)" fill="#fff" opacity="0.2"/>
      <path id="Path_522" data-name="Path 522" d="M622.728,462.467s21.63,15.017,8.508,18.474-22.938.107-24.438-5.243,2.559-13.034,3.144-12.532,4.794,12.747,10.979,11.457S622.728,462.467,622.728,462.467Z" transform="translate(-492.175 -351.604)" fill="#fff" opacity="0.2"/>
      <path id="Path_523" data-name="Path 523" d="M650.543,422.841s1.707-26.277,11.438-16.819,11.924,19.6,8.115,23.64-12.486,4.531-12.358,3.771,8.447-10.683,4.152-15.316S650.543,422.841,650.543,422.841Z" transform="translate(-514.94 -321.389)" fill="#fff" opacity="0.2"/>
      <ellipse id="Ellipse_228" data-name="Ellipse 228" cx="57.781" cy="38.135" rx="57.781" ry="38.135" transform="translate(0 71.251)" fill="#ea565c"/>
      <path id="Path_524" data-name="Path 524" d="M427.683,430.932s-26.194,2.7-18.49-8.474,17.334-15.023,21.957-11.941,6.548,11.556,5.778,11.556-11.941-6.548-15.793-1.541S427.683,430.932,427.683,430.932Z" transform="translate(-389.548 -324.243)" fill="#fff" opacity="0.2"/>
      <path id="Path_525" data-name="Path 525" d="M478.523,456.093s21.63,15.017,8.508,18.474-22.938.107-24.438-5.243,2.559-13.034,3.144-12.532,4.794,12.747,10.979,11.457S478.523,456.093,478.523,456.093Z" transform="translate(-417.691 -348.312)" fill="#fff" opacity="0.2"/>
      <path id="Path_526" data-name="Path 526" d="M506.337,416.467s1.707-26.277,11.438-16.819,11.924,19.6,8.115,23.64-12.486,4.531-12.358,3.771,8.447-10.683,4.152-15.316S506.337,416.467,506.337,416.467Z" transform="translate(-440.456 -318.097)" fill="#fff" opacity="0.2"/>
      <path id="Path_527" data-name="Path 527" d="M480.122,392.286c12.586,7,20.585,17.471,20.585,29.18,0,21.061-25.869,38.135-57.781,38.135a81,81,0,0,1-29.877-5.488c10.051,5.587,23.026,8.955,37.2,8.955,31.911,0,57.781-17.074,57.781-38.135C508.026,411.089,496.847,398.968,480.122,392.286Z" transform="translate(-392.272 -315.355)" opacity="0.1"/>
      <path id="Path_528" data-name="Path 528" d="M624.327,397.863c12.586,7,20.585,17.471,20.585,29.18,0,21.061-25.869,38.135-57.781,38.135a81,81,0,0,1-29.877-5.488c10.051,5.587,23.026,8.955,37.2,8.955,31.911,0,57.781-17.074,57.781-38.135C652.231,416.666,641.052,404.545,624.327,397.863Z" transform="translate(-466.756 -318.236)" opacity="0.1"/>
      <path id="Path_529" data-name="Path 529" d="M411.275,405.29s49.691-53.158,171.416-31.2c96.224,17.357,17.208,47.231-20.122,58.986a134.121,134.121,0,0,1-33.389,6.012C487.066,441.255,381.139,443.194,411.275,405.29Z" transform="translate(-388.609 -303.21)" fill="#714b4f"/>
      <path id="Path_530" data-name="Path 530" d="M562.572,443.491a134.116,134.116,0,0,1-33.389,6.012c-34.116,1.757-110.108,3.362-121.718-16.243-14.66,31.688,81.963,29.847,121.718,27.8a134.115,134.115,0,0,0,33.389-6.012c27.362-8.616,77.118-26.967,63.846-42.988C617.482,424.632,583.486,436.906,562.572,443.491Z" transform="translate(-388.612 -325.568)" opacity="0.1"/>
      <line id="Line_14" data-name="Line 14" x2="13.482" y2="26.579" transform="translate(128.789 71.071)" fill="none" stroke="#000" stroke-miterlimit="10" stroke-width="2" opacity="0.1"/>
      <line id="Line_15" data-name="Line 15" x2="11.556" y2="22.342" transform="translate(87.187 80.701)" fill="none" stroke="#000" stroke-miterlimit="10" stroke-width="2" opacity="0.1"/>
      <line id="Line_16" data-name="Line 16" x2="18.105" y2="26.579" transform="translate(153.057 71.071)" fill="none" stroke="#000" stroke-miterlimit="10" stroke-width="2" opacity="0.1"/>
      <line id="Line_17" data-name="Line 17" y1="15.408" x2="121.339" transform="translate(87.187 89.946)" fill="none" stroke="#000" stroke-miterlimit="10" stroke-width="2" opacity="0.1"/>
      <line id="Line_18" data-name="Line 18" x2="8.474" y2="11.941" transform="translate(203.904 76.079)" fill="none" stroke="#000" stroke-miterlimit="10" stroke-width="2" opacity="0.1"/>
      <line id="Line_19" data-name="Line 19" x2="5.393" y2="11.171" transform="translate(63.305 89.946)" fill="none" stroke="#000" stroke-miterlimit="10" stroke-width="2" opacity="0.1"/>
      <path id="Path_531" data-name="Path 531" d="M460.235,342.106s110.807-.5,111.824-1.5,24.4-1.534,28.973,4.983,6.1,9.525,0,10.527S394.157,459.882,394.157,459.882s-11.182,1-5.591-10.026S460.235,342.106,460.235,342.106Z" transform="translate(-378.817 -288.349)" fill="#f6c964"/>
      <path id="Path_532" data-name="Path 532" d="M539.217,432.989c0,4.148-20.005,14.253-44.684,14.253s-44.684-10.1-44.684-14.253,20.006-5.778,44.684-5.778S539.217,428.84,539.217,432.989Z" transform="translate(-411.28 -333.394)" fill="#61ab43"/>
      <ellipse id="Ellipse_229" data-name="Ellipse 229" cx="44.684" cy="7.511" rx="44.684" ry="7.511" transform="translate(38.57 91.891)" fill="#61ab43"/>
      <path id="Path_533" data-name="Path 533" d="M650.757,418.648c0,4.148-20.005,14.253-44.684,14.253s-44.684-10.1-44.684-14.253,20.005-5.778,44.684-5.778S650.757,414.5,650.757,418.648Z" transform="translate(-468.892 -325.987)" fill="#61ab43"/>
      <ellipse id="Ellipse_230" data-name="Ellipse 230" cx="44.684" cy="7.511" rx="44.684" ry="7.511" transform="translate(92.499 84.957)" fill="#61ab43"/>
      <path id="Path_534" data-name="Path 534" d="M762.3,404.307c0,4.148-20.005,14.253-44.684,14.253s-44.684-10.1-44.684-14.253,20.005-5.778,44.684-5.778S762.3,400.158,762.3,404.307Z" transform="translate(-526.503 -318.579)" fill="#61ab43"/>
      <ellipse id="Ellipse_231" data-name="Ellipse 231" cx="44.684" cy="7.511" rx="44.684" ry="7.511" transform="translate(146.427 78.023)" fill="#61ab43"/>
      <path id="Path_535" data-name="Path 535" d="M412.539,321.032s-18.378-2.992-8.975-17.95,12.565-31.727,16.668-35.473c4.587-4.188,99.267-77.621,173.027,3.636a108.407,108.407,0,0,1,18.81,29.372,17.149,17.149,0,0,0,2.838,4.815c2.992,2.992,5.556,11.539,0,15.813S445.661,342.187,412.539,321.032Z" transform="translate(-385.989 -233.17)" fill="#a247cb"/>
      <path id="Path_536" data-name="Path 536" d="M594.887,284.907a7.189,7.189,0,0,1-3.846,1.282c-2.124,0-3.846-.574-3.846-1.282s1.722-1.282,3.846-1.282A7.189,7.189,0,0,1,594.887,284.907Z" transform="translate(-482.22 -259.231)" fill="#f2f2f2"/>
      <path id="Path_537" data-name="Path 537" d="M531.242,268.112a7.189,7.189,0,0,1-3.846,1.282c-2.124,0-3.846-.574-3.846-1.282s1.722-1.282,3.846-1.282A7.189,7.189,0,0,1,531.242,268.112Z" transform="translate(-449.346 -250.556)" fill="#f2f2f2"/>
      <path id="Path_538" data-name="Path 538" d="M704.489,290.937a7.189,7.189,0,0,1-4.054.075c-2.027-.634-3.5-1.7-3.288-2.372s2.026-.709,4.054-.075a7.189,7.189,0,0,1,3.288,2.372Z" transform="translate(-539.001 -261.547)" fill="#f2f2f2"/>
      <path id="Path_539" data-name="Path 539" d="M586.922,245.855a7.189,7.189,0,0,1-4.054.075c-2.027-.634-3.5-1.7-3.288-2.372s2.026-.71,4.054-.075a7.189,7.189,0,0,1,3.288,2.372Z" transform="translate(-478.276 -238.262)" fill="#f2f2f2"/>
      <path id="Path_540" data-name="Path 540" d="M715.1,261.766a7.189,7.189,0,0,1-4.054.075c-2.027-.634-3.5-1.7-3.288-2.372s2.026-.71,4.054-.075a7.189,7.189,0,0,1,3.288,2.372Z" transform="translate(-544.48 -246.48)" fill="#f2f2f2"/>
      <path id="Path_541" data-name="Path 541" d="M688.587,261.041a7.189,7.189,0,0,1-3.846,1.282c-2.124,0-3.846-.574-3.846-1.282s1.722-1.282,3.846-1.282A7.189,7.189,0,0,1,688.587,261.041Z" transform="translate(-530.617 -246.903)" fill="#f2f2f2"/>
      <path id="Path_542" data-name="Path 542" d="M612.567,245.129a7.189,7.189,0,0,1-3.846,1.282c-2.124,0-3.846-.574-3.846-1.282s1.722-1.282,3.846-1.282A7.189,7.189,0,0,1,612.567,245.129Z" transform="translate(-491.351 -238.685)" fill="#f2f2f2"/>
      <path id="Path_543" data-name="Path 543" d="M670.908,245.129a7.19,7.19,0,0,1-3.847,1.282c-2.124,0-3.846-.574-3.846-1.282s1.722-1.282,3.846-1.282A7.189,7.189,0,0,1,670.908,245.129Z" transform="translate(-521.485 -238.685)" fill="#f2f2f2"/>
      <path id="Path_544" data-name="Path 544" d="M648.809,279.6a7.189,7.189,0,0,1-3.846,1.282c-2.124,0-3.846-.574-3.846-1.282s1.722-1.282,3.846-1.282A7.189,7.189,0,0,1,648.809,279.6Z" transform="translate(-510.071 -256.491)" fill="#f2f2f2"/>
      <path id="Path_545" data-name="Path 545" d="M592.75,269.122a7.19,7.19,0,0,1,2.016-3.518c1.585-1.414,3.252-2.133,3.724-1.6s-.431,2.1-2.016,3.518A7.189,7.189,0,0,1,592.75,269.122Z" transform="translate(-485.089 -249.004)" fill="#f2f2f2"/>
      <path id="Path_546" data-name="Path 546" d="M552.971,259.4a7.189,7.189,0,0,1,2.016-3.518c1.585-1.414,3.252-2.132,3.724-1.6s-.431,2.1-2.016,3.518A7.19,7.19,0,0,1,552.971,259.4Z" transform="translate(-464.543 -243.982)" fill="#f2f2f2"/>
      <path id="Path_547" data-name="Path 547" d="M484.022,307.132a7.189,7.189,0,0,1,2.016-3.518c1.585-1.414,3.252-2.132,3.724-1.6s-.431,2.1-2.016,3.518a7.189,7.189,0,0,1-3.724,1.6Z" transform="translate(-428.93 -268.637)" fill="#f2f2f2"/>
      <path id="Path_548" data-name="Path 548" d="M636.948,254.094a7.189,7.189,0,0,1,2.016-3.518c1.585-1.414,3.252-2.132,3.724-1.6s-.431,2.1-2.016,3.517A7.189,7.189,0,0,1,636.948,254.094Z" transform="translate(-507.918 -241.243)" fill="#f2f2f2"/>
      <path id="Path_549" data-name="Path 549" d="M621.036,285.917a7.188,7.188,0,0,1,2.016-3.518c1.585-1.414,3.252-2.133,3.724-1.6s-.431,2.1-2.016,3.518A7.189,7.189,0,0,1,621.036,285.917Z" transform="translate(-499.699 -257.679)" fill="#f2f2f2"/>
    </g>
    <g id="Group_43" data-name="Group 43" transform="translate(84.544 130.836)" opacity="0.727">
      <path id="Path_400" data-name="Path 400" d="M646.462,378.038l-4.323-4.323a13.446,13.446,0,0,0-19.015,0l-83.853,83.853-83.853-83.853a13.446,13.446,0,0,0-19.015,0l-4.323,4.323a13.446,13.446,0,0,0,0,19.015l83.853,83.853L432.08,564.759a13.446,13.446,0,0,0,0,19.015L436.4,588.1a13.446,13.446,0,0,0,19.015,0l83.853-83.853L623.124,588.1a13.446,13.446,0,0,0,19.015,0l4.323-4.323a13.446,13.446,0,0,0,0-19.015l-83.853-83.853,83.853-83.853a13.446,13.446,0,0,0,0-19.015Z" transform="translate(-428.141 -369.776)" fill="#ff6584"/>
      <path id="Path_401" data-name="Path 401" d="M429.643,638.285l81.363-81.363-.783-.783-77.587,77.587A13.391,13.391,0,0,0,429.643,638.285Z" transform="translate(-428.697 -438.744)" opacity="0.1"/>
      <path id="Path_402" data-name="Path 402" d="M431.476,380.764a13.446,13.446,0,0,1,19.015,0l83.853,83.853L618.2,380.764a13.446,13.446,0,0,1,19.015,0l4.323,4.323a13.445,13.445,0,0,1,2.992,14.456l2.49-2.49a13.446,13.446,0,0,0,0-19.015l-4.323-4.323a13.446,13.446,0,0,0-19.015,0l-83.853,83.853-83.853-83.853a13.446,13.446,0,0,0-19.015,0l-4.323,4.323a13.391,13.391,0,0,0-2.992,4.559Z" transform="translate(-428.697 -369.776)" opacity="0.1"/>
      <path id="Path_403" data-name="Path 403" d="M639.169,547.436,632.9,553.7l83.853,83.853a13.445,13.445,0,0,1,2.992,14.456l2.49-2.49a13.445,13.445,0,0,0,0-19.015Z" transform="translate(-503.918 -435.523)" opacity="0.1"/>
    </g>
  </g>
</svg>
