<svg id="Layer_1" data-name="Layer 1" xmlns="http://www.w3.org/2000/svg" xmlns:xlink="http://www.w3.org/1999/xlink" viewBox="0 0 246.91 114.75"><defs><style>.cls-1,.cls-10,.cls-11,.cls-12,.cls-13,.cls-14,.cls-2,.cls-3,.cls-4,.cls-5,.cls-6,.cls-7,.cls-8,.cls-9{stroke:#4d4d4d;stroke-miterlimit:10;stroke-width:0.25px;}.cls-1{fill:url(#linear-gradient);}.cls-2{fill:url(#linear-gradient-2);}.cls-3{fill:url(#linear-gradient-3);}.cls-4{fill:url(#linear-gradient-4);}.cls-5{fill:url(#linear-gradient-5);}.cls-6{fill:url(#linear-gradient-6);}.cls-7{fill:url(#linear-gradient-7);}.cls-8{fill:url(#linear-gradient-8);}.cls-9{fill:url(#linear-gradient-9);}.cls-10{fill:url(#linear-gradient-10);}.cls-11{fill:url(#linear-gradient-11);}.cls-12{fill:url(#linear-gradient-12);}.cls-13{fill:url(#linear-gradient-13);}.cls-14{fill:url(#linear-gradient-14);}</style><linearGradient id="linear-gradient" x1="244.14" y1="100.07" x2="353.21" y2="250.57" gradientUnits="userSpaceOnUse"><stop offset="0" stop-color="#a348cb"/><stop offset="1" stop-color="#6be6ff"/></linearGradient><linearGradient id="linear-gradient-2" x1="268.9" y1="82.13" x2="377.97" y2="232.63" xlink:href="#linear-gradient"/><linearGradient id="linear-gradient-3" x1="309.11" y1="52.99" x2="418.17" y2="203.5" xlink:href="#linear-gradient"/><linearGradient id="linear-gradient-4" x1="328.31" y1="39.08" x2="437.38" y2="189.58" xlink:href="#linear-gradient"/><linearGradient id="linear-gradient-5" x1="335.99" y1="33.51" x2="445.05" y2="184.02" xlink:href="#linear-gradient"/><linearGradient id="linear-gradient-6" x1="278.37" y1="75.27" x2="387.43" y2="225.78" xlink:href="#linear-gradient"/><linearGradient id="linear-gradient-7" x1="287.31" y1="68.79" x2="396.38" y2="219.29" xlink:href="#linear-gradient"/><linearGradient id="linear-gradient-8" x1="301.01" y1="58.86" x2="410.07" y2="209.37" xlink:href="#linear-gradient"/><linearGradient id="linear-gradient-9" x1="313.92" y1="49.5" x2="422.99" y2="200.01" xlink:href="#linear-gradient"/><linearGradient id="linear-gradient-10" x1="321.31" y1="44.15" x2="430.38" y2="194.65" xlink:href="#linear-gradient"/><linearGradient id="linear-gradient-11" x1="327.56" y1="39.62" x2="436.62" y2="190.13" xlink:href="#linear-gradient"/><linearGradient id="linear-gradient-12" x1="338.92" y1="31.39" x2="447.98" y2="181.9" xlink:href="#linear-gradient"/><linearGradient id="linear-gradient-13" x1="350.13" y1="23.27" x2="459.19" y2="173.77" xlink:href="#linear-gradient"/><linearGradient id="linear-gradient-14" x1="363.97" y1="13.24" x2="473.03" y2="163.74" xlink:href="#linear-gradient"/></defs><path class="cls-1" d="M287.89,118.86a8.13,8.13,0,0,1-2.75,5.89,25.73,25.73,0,0,1-5.9,4.38q-3.17,1.68-6.26,3.05a11.13,11.13,0,0,1,6.06,2q2.81,1.9,2.8,7.61a15.57,15.57,0,0,1-1.65,7.17,17.14,17.14,0,0,1-4.47,5.54,20.84,20.84,0,0,1-6.36,3.55,22,22,0,0,1-7.31,1.25,14.27,14.27,0,0,1-5.45-1,9.23,9.23,0,0,1-3.75-2.58,5.14,5.14,0,0,1-1.31-3.29,3.75,3.75,0,0,1,.94-2.6,3.23,3.23,0,0,1,2.5-1.06,3.47,3.47,0,0,1,2.76,1,8.16,8.16,0,0,1,1.49,2.76,8.4,8.4,0,0,0,1.45,2.58,3.14,3.14,0,0,0,2.56,1,6.48,6.48,0,0,0,4.68-2.07A17.45,17.45,0,0,0,271.4,149a35.32,35.32,0,0,0,2.14-6.13,20.61,20.61,0,0,0,.74-4.66,5.62,5.62,0,0,0-.72-2.58,2.46,2.46,0,0,0-2.37-1.39,7,7,0,0,0-3.48,1.58l-1.09.86a1.68,1.68,0,0,1-1,.44,1.45,1.45,0,0,1-.88-.4,1.64,1.64,0,0,1-.49-1.32A1.71,1.71,0,0,1,265,134a25.63,25.63,0,0,1,3.07-1.92,61.83,61.83,0,0,0,9.92-6.73A8.34,8.34,0,0,0,281,119a5.09,5.09,0,0,0-5.31-5,5.78,5.78,0,0,0-4.13,1.55,5.06,5.06,0,0,0-1.63,3.83,4.89,4.89,0,0,0,.17,1.27,4.28,4.28,0,0,1,.18.91c0,.24-.61.77-1.83,1.6a9,9,0,0,1-2.11,1.25c-.33,0-.75-.5-1.26-1.49a6.68,6.68,0,0,1-.78-3.12,8.07,8.07,0,0,1,3.06-6.25q3.06-2.67,9-2.67c3.6,0,6.44.76,8.5,2.28A6.83,6.83,0,0,1,287.89,118.86Z" transform="translate(-251.41 -89.44)"/><path class="cls-2" d="M323.68,122.59a52.35,52.35,0,0,1-1.27,10,63.16,63.16,0,0,1-3.88,12.27,30.94,30.94,0,0,1-7,10.3,14.36,14.36,0,0,1-10.23,4.21q-6.18,0-8.21-3.91a17.66,17.66,0,0,1-2-8.26,53.15,53.15,0,0,1,2-12.37,55.66,55.66,0,0,1,5.87-14.42,25.35,25.35,0,0,1,3.32-4.41,17.49,17.49,0,0,1,4.85-3.57,14.43,14.43,0,0,1,6.6-1.47,9.61,9.61,0,0,1,5.36,1.35,8.78,8.78,0,0,1,3.09,3.39,12.51,12.51,0,0,1,1.3,3.78A20.72,20.72,0,0,1,323.68,122.59Zm-6.58-4.82a4.27,4.27,0,0,0-.91-2.78,3.16,3.16,0,0,0-2.6-1.12,5.22,5.22,0,0,0-4,1.93,14.16,14.16,0,0,0-2.46,3.62,104.13,104.13,0,0,0-4.05,10.64q-2.38,7.16-4.07,13.5a42.12,42.12,0,0,0-1.69,8.35,6.81,6.81,0,0,0,.74,2.86c.49,1.07,1.54,1.6,3.16,1.6q3.9,0,6.47-6.26.94-2.31,2.64-7.47t3.21-10.26q1.53-5.11,2.55-9.21A29,29,0,0,0,317.1,117.77Z" transform="translate(-251.41 -89.44)"/><path class="cls-3" d="M383.52,109.43a31.78,31.78,0,0,1-.64,6.24,27.93,27.93,0,0,1-2.07,6.25,25.45,25.45,0,0,1-3.89,6,27.7,27.7,0,0,1-5.85,5,23.69,23.69,0,0,1-6.71,2.94,37.92,37.92,0,0,1-6.75,1.16q-3.21.23-7.35.23H331.31l1-3.24a4.18,4.18,0,0,0,3.55-1.35,13.11,13.11,0,0,0,1.83-4l9.1-29.5a14.23,14.23,0,0,0,.64-3.09c0-1.36-.43-2.23-1.27-2.6a9,9,0,0,0-3.2-.67l.95-3.24H360.7a50.34,50.34,0,0,1,7.24.46A17,17,0,0,1,374,92.24q5.81,3.27,7.65,7.94A25.08,25.08,0,0,1,383.52,109.43Zm-10.16-3.17a17.73,17.73,0,0,0-1.18-7,9.25,9.25,0,0,0-3.08-4A10.91,10.91,0,0,0,365,93.48,25.94,25.94,0,0,0,360,93h-1.72L347.8,127.36a18,18,0,0,0-.64,3c0,2.27,2,3.41,6,3.41a15.67,15.67,0,0,0,10.48-3.48,24.45,24.45,0,0,0,6.57-9.21,37,37,0,0,0,2.5-8.47A44.15,44.15,0,0,0,373.36,106.26Z" transform="translate(-251.41 -89.44)"/><path class="cls-4" d="M402.87,133a13.09,13.09,0,0,1-1.14,1.9,9.24,9.24,0,0,1-1.41,1.51,6.2,6.2,0,0,1-1.56,1,4.13,4.13,0,0,1-1.62.34,2.35,2.35,0,0,1-2.37-1.12,6.38,6.38,0,0,1-.51-2.66,18.52,18.52,0,0,1-2.78,2.72,5,5,0,0,1-3.13,1.06,2.59,2.59,0,0,1-1.72-.58,3.25,3.25,0,0,1-1-1.53,6.43,6.43,0,0,1-.33-2.08,12.15,12.15,0,0,1,1.21-5,12.87,12.87,0,0,1,3.3-4.43,6.8,6.8,0,0,1,4.49-1.79,3,3,0,0,1,1.74.44,2.41,2.41,0,0,1,.87,1,7.58,7.58,0,0,1,.41,1.22l.65-2.2h3.89l-3.27,10.72a8,8,0,0,0-.35,1.41.52.52,0,0,0,.15.38.44.44,0,0,0,.34.16c.76,0,1.58-.81,2.44-2.42Zm-6.56-7a3.19,3.19,0,0,0-.32-1.47,1.23,1.23,0,0,0-1.19-.62,3.43,3.43,0,0,0-2.56,1.52,12.43,12.43,0,0,0-2,3.68,11.21,11.21,0,0,0-.77,3.63c0,1.41.45,2.12,1.34,2.12a2.94,2.94,0,0,0,1.91-.85,9,9,0,0,0,1.8-2.28,14.49,14.49,0,0,0,1.33-3A9.46,9.46,0,0,0,396.31,126Z" transform="translate(-251.41 -89.44)"/><path class="cls-5" d="M420.68,125.65a13.37,13.37,0,0,1-2.07,6.63A31.26,31.26,0,0,1,413.3,139a32,32,0,0,1-6.74,5.11,13,13,0,0,1-6.12,1.95,4,4,0,0,1-2-.5,1.6,1.6,0,0,1-.84-1.45,1.5,1.5,0,0,1,.62-1.24,2.2,2.2,0,0,1,1.4-.48,4.14,4.14,0,0,1,1.07.11,9.4,9.4,0,0,1,1.13.4,8.07,8.07,0,0,0,2.2.49,3.41,3.41,0,0,0,2.13-.73,6.13,6.13,0,0,0,1.54-1.75,14.59,14.59,0,0,0,1.44-7.14c0-.75,0-1.54-.07-2.36s-.12-1.67-.21-2.54a18.87,18.87,0,0,0-.4-2.39,2.84,2.84,0,0,0-.49-1,1,1,0,0,0-.78-.46c-.91,0-1.48,1-1.69,3.09H404q.4-3.51,1.83-4.64a4.47,4.47,0,0,1,2.74-1.12q2.66,0,3.63,2.87a21.41,21.41,0,0,1,1,6.85,34.53,34.53,0,0,1-.35,5.4c2.08-2.44,3.21-3.78,3.37-4a15.5,15.5,0,0,0,1.32-2.33,5.4,5.4,0,0,0,.51-2.24,7,7,0,0,0-.6-2.37,6.92,6.92,0,0,1-.61-2.23,2.09,2.09,0,0,1,.44-1.38,1.36,1.36,0,0,1,1.07-.54,1.89,1.89,0,0,1,1.13.39,2.61,2.61,0,0,1,.87,1.13A4.45,4.45,0,0,1,420.68,125.65Z" transform="translate(-251.41 -89.44)"/><path class="cls-6" d="M367.66,147.84l-3.52,16.28h-3.37a3.62,3.62,0,0,1,0-.49c0-.14,0-.32,0-.53q0-5.55-2-8.51a9.42,9.42,0,0,0-4.47-3.79A13.47,13.47,0,0,0,350,150a12.1,12.1,0,0,0-7.69,2.9,26,26,0,0,0-6.24,7.62,44.88,44.88,0,0,0-4.11,10.21,39.57,39.57,0,0,0-1.48,10.14,16.38,16.38,0,0,0,1,5.8,9.49,9.49,0,0,0,3,4.26,8.07,8.07,0,0,0,5.12,1.61,14.57,14.57,0,0,0,6.24-1.6,21.59,21.59,0,0,0,6.24-4.6,22.49,22.49,0,0,0,4.57-7.19H360l-4.67,15.78h-3a17.6,17.6,0,0,0,.18-2.42,16.43,16.43,0,0,0-.18-2.39,19.84,19.84,0,0,1-6,4.3,17.6,17.6,0,0,1-7.73,1.74,18.16,18.16,0,0,1-9.36-2.47,17.73,17.73,0,0,1-6.6-6.77,18.84,18.84,0,0,1-2.4-9.35,29,29,0,0,1,2.52-11.87,33.42,33.42,0,0,1,6.66-9.93,31.52,31.52,0,0,1,9.18-6.63,23.16,23.16,0,0,1,9.95-2.37,15.81,15.81,0,0,1,6.18,1.12,15.39,15.39,0,0,1,4.15,2.43,21.24,21.24,0,0,1,2.6,2.71,13.57,13.57,0,0,0,2.89-5.14Z" transform="translate(-251.41 -89.44)"/><path class="cls-7" d="M384.17,190.59a12.1,12.1,0,0,1-2.73,3.49,5.32,5.32,0,0,1-3.55,1.4,3.1,3.1,0,0,1-2.15-.64,2,2,0,0,1-.71-1.59,3.44,3.44,0,0,1,.09-.8c.07-.25.19-.67.36-1.24l1.34-4.46a7.82,7.82,0,0,0,.4-2.13,1.85,1.85,0,0,0-.11-.63,1,1,0,0,0-.35-.47,1,1,0,0,0-.59-.17c-.92,0-1.95.73-3.1,2.19a17.6,17.6,0,0,0-2.51,4q-1.47,3.61-1.7,4.46l-.32,1.2h-4.18l6-19.69a5.72,5.72,0,0,0,.4-1.51.8.8,0,0,0-.5-.82,3.8,3.8,0,0,0-1.41-.2h-.53l.53-1.62a34.93,34.93,0,0,0,5.9-.42H376l-4.57,14.94c.81-1.11,1.51-2,2.11-2.73a10.16,10.16,0,0,1,2.34-2,6,6,0,0,1,3.21-.9,3.36,3.36,0,0,1,2.12.64,2,2,0,0,1,.83,1.63,11,11,0,0,1-.65,2.88l-1.75,5.8a5.15,5.15,0,0,0-.3,1.28.92.92,0,0,0,.09.39.36.36,0,0,0,.35.19c.7,0,1.57-.85,2.62-2.55Z" transform="translate(-251.41 -89.44)"/><path class="cls-8" d="M403.26,191a12.3,12.3,0,0,1-1.15,1.9,9.18,9.18,0,0,1-1.4,1.51,6.38,6.38,0,0,1-1.56,1,4.13,4.13,0,0,1-1.62.34c-1.24,0-2-.38-2.37-1.12a6.37,6.37,0,0,1-.52-2.66,18,18,0,0,1-2.77,2.72,5,5,0,0,1-3.13,1.06,2.62,2.62,0,0,1-1.73-.58,3.4,3.4,0,0,1-1-1.53,6.71,6.71,0,0,1-.32-2.08,12,12,0,0,1,1.21-5,12.87,12.87,0,0,1,3.3-4.43,6.78,6.78,0,0,1,4.49-1.79,3,3,0,0,1,1.74.44,2.41,2.41,0,0,1,.87,1,8.71,8.71,0,0,1,.41,1.22l.65-2.2h3.89L399,191.49a7.11,7.11,0,0,0-.35,1.41.56.56,0,0,0,.14.38.46.46,0,0,0,.35.16c.76,0,1.57-.81,2.44-2.42Zm-6.56-7a3.07,3.07,0,0,0-.33-1.47,1.21,1.21,0,0,0-1.18-.62,3.43,3.43,0,0,0-2.56,1.52,12.21,12.21,0,0,0-2,3.68,11.21,11.21,0,0,0-.77,3.63c0,1.41.45,2.12,1.34,2.12a2.91,2.91,0,0,0,1.9-.85,9,9,0,0,0,1.81-2.28,14.44,14.44,0,0,0,1.32-3A9.5,9.5,0,0,0,396.7,184Z" transform="translate(-251.41 -89.44)"/><path class="cls-9" d="M415.67,171l-6.16,20.16A9.67,9.67,0,0,0,409,193a.78.78,0,0,0,.14.48.47.47,0,0,0,.37.17c.3,0,.73-.27,1.26-.82A6.56,6.56,0,0,0,412.1,191h1.65a15.32,15.32,0,0,1-2.3,3.21,4.66,4.66,0,0,1-3.61,1.59,3,3,0,0,1-2.11-.73,2.3,2.3,0,0,1-.8-1.77,11,11,0,0,1,.54-2.66l4.5-14.66a8.73,8.73,0,0,0,.44-1.91.78.78,0,0,0-.5-.81A6,6,0,0,0,408,173l.42-1.62h1.88c.81,0,1.55,0,2.21-.09a11.65,11.65,0,0,0,1.92-.33Z" transform="translate(-251.41 -89.44)"/><path class="cls-10" d="M426.93,171l-6.15,20.16a8.91,8.91,0,0,0-.47,1.86.72.72,0,0,0,.14.48.45.45,0,0,0,.37.17c.3,0,.72-.27,1.26-.82a6.56,6.56,0,0,0,1.29-1.88H425a15.38,15.38,0,0,1-2.31,3.21,4.66,4.66,0,0,1-3.6,1.59A3.07,3.07,0,0,1,417,195a2.33,2.33,0,0,1-.8-1.77,11.2,11.2,0,0,1,.55-2.66l4.5-14.66a8.73,8.73,0,0,0,.44-1.91.78.78,0,0,0-.5-.81,6.06,6.06,0,0,0-1.88-.19l.43-1.62h1.88c.81,0,1.54,0,2.21-.09a11.65,11.65,0,0,0,1.92-.33Z" transform="translate(-251.41 -89.44)"/><path class="cls-11" d="M442.67,183.25a4.07,4.07,0,0,1-.44,1.66,6.63,6.63,0,0,1-1.61,2,10.26,10.26,0,0,1-3.34,1.87,21.49,21.49,0,0,1-5.46,1.1l-.42,0a6.2,6.2,0,0,0-.14,1.3,2.45,2.45,0,0,0,.62,1.87,2.61,2.61,0,0,0,1.82.57q2.64,0,5.05-2.84h1.86a13.4,13.4,0,0,1-3.31,3.3,8.57,8.57,0,0,1-5.25,1.64,5.79,5.79,0,0,1-3.61-1.14,3.88,3.88,0,0,1-1.51-3.33,10.16,10.16,0,0,1,1.5-5.23,11.77,11.77,0,0,1,4.08-4.13,10.5,10.5,0,0,1,5.62-1.59,5.65,5.65,0,0,1,3.49.83A2.54,2.54,0,0,1,442.67,183.25Zm-3.71-.07a1.65,1.65,0,0,0-.41-1.07,1.37,1.37,0,0,0-1.1-.48,3.42,3.42,0,0,0-2.26.85,7.63,7.63,0,0,0-1.73,2,13.84,13.84,0,0,0-1.16,2.35l-.55,1.48a12.11,12.11,0,0,0,5.39-2A4,4,0,0,0,439,183.18Z" transform="translate(-251.41 -89.44)"/><path class="cls-12" d="M463.72,190.63a13.33,13.33,0,0,1-1.36,2,9,9,0,0,1-2.17,2,5,5,0,0,1-2.79.85,3.11,3.11,0,0,1-2.06-.63,2.09,2.09,0,0,1-.76-1.67A7.94,7.94,0,0,1,455,191l1.29-4.23a9.7,9.7,0,0,0,.54-2.38,1.12,1.12,0,0,0-.24-.7.76.76,0,0,0-.65-.32c-.64,0-1.41.54-2.33,1.6a23.09,23.09,0,0,0-2.78,4.33,38,38,0,0,0-2.45,6h-4.19l3.18-10.31a12.06,12.06,0,0,0,.43-1.79,1,1,0,0,0-.11-.43.39.39,0,0,0-.4-.22,1.69,1.69,0,0,0-1.31.86,10.17,10.17,0,0,0-1.07,1.88h-1.47a9.88,9.88,0,0,1,2.05-3.39,4.6,4.6,0,0,1,3.54-1.51,2.64,2.64,0,0,1,2,.74,2.24,2.24,0,0,1,.68,1.56,7.35,7.35,0,0,1-.19,1.39c-.13.62-.28,1.2-.44,1.74l-.62,1.81a34.35,34.35,0,0,1,4.1-5.3,5.87,5.87,0,0,1,4.25-1.94,2.35,2.35,0,0,1,2,.78,2.7,2.7,0,0,1,.62,1.7,10.15,10.15,0,0,1-.42,2.12l-1.85,6.12a7.3,7.3,0,0,0-.32,1.6.56.56,0,0,0,.12.34.36.36,0,0,0,.3.15,2.15,2.15,0,0,0,1.26-.69,7.62,7.62,0,0,0,1.42-1.82Z" transform="translate(-251.41 -89.44)"/><path class="cls-13" d="M482.23,181.7a.92.92,0,0,1-.37.84,1.47,1.47,0,0,1-.73.23,1.61,1.61,0,0,1-.92-.31.87.87,0,0,0-.52-.21.74.74,0,0,0-.69.49,5.94,5.94,0,0,1,.55,1.1,4,4,0,0,1,.21,1.39,5.23,5.23,0,0,1-1.45,3.47,6.38,6.38,0,0,1-2.38,1.47,10.75,10.75,0,0,1-3.86.6,7.3,7.3,0,0,0-2.94.39,1.21,1.21,0,0,0-.75,1.12.72.72,0,0,0,.27.57,2.19,2.19,0,0,0,.8.43c.35.13,1,.32,1.91.58s1.82.5,2.7.76c3.16.9,4.75,2.37,4.75,4.39a3.85,3.85,0,0,1-.9,2.45,6.49,6.49,0,0,1-3,1.86,17.19,17.19,0,0,1-5.55.74,22.33,22.33,0,0,1-3.2-.27,9.16,9.16,0,0,1-3.35-1.17,2.87,2.87,0,0,1-1.52-2.6,3,3,0,0,1,1.35-2.55,2,2,0,0,1,1.09-.37,1.23,1.23,0,0,1,.57.12.39.39,0,0,1,.23.35,1.36,1.36,0,0,1-.36.69,2.39,2.39,0,0,0-.61,1.41,2.28,2.28,0,0,0,1.91,2.26,13.39,13.39,0,0,0,3.92.58,9.52,9.52,0,0,0,3.93-.67c1-.44,1.47-1,1.47-1.75a1.18,1.18,0,0,0-.3-.86,3.09,3.09,0,0,0-1.13-.65c-.56-.21-1.58-.56-3.07-1a27.08,27.08,0,0,1-3.1-1.14,4.58,4.58,0,0,1-1.66-1.21,2.59,2.59,0,0,1-.56-1.71,2.85,2.85,0,0,1,1.25-2.41,6.69,6.69,0,0,1,3-1.2,4,4,0,0,1-2-1.63,4.23,4.23,0,0,1-.67-2.25,4.8,4.8,0,0,1,.89-2.73,6.35,6.35,0,0,1,2.49-2.12,7.93,7.93,0,0,1,3.64-.81,6.39,6.39,0,0,1,4.5,1.41,6.73,6.73,0,0,1,1.22-1,2.61,2.61,0,0,1,1.48-.39,1.6,1.6,0,0,1,1.1.36A1.26,1.26,0,0,1,482.23,181.7Zm-6.29,2.09a2.38,2.38,0,0,0-.23-1.08,1.85,1.85,0,0,0-.69-.78,1.93,1.93,0,0,0-1.06-.3,2.47,2.47,0,0,0-1.92,1,6.64,6.64,0,0,0-1.26,2.28,7.94,7.94,0,0,0-.43,2.33,2.1,2.1,0,0,0,.52,1.58,1.91,1.91,0,0,0,1.4.51,3,3,0,0,0,2.72-1.91A8.17,8.17,0,0,0,475.94,183.79Z" transform="translate(-251.41 -89.44)"/><path class="cls-14" d="M498.2,183.25a4.07,4.07,0,0,1-.44,1.66,6.63,6.63,0,0,1-1.61,2,10.37,10.37,0,0,1-3.34,1.87,21.49,21.49,0,0,1-5.46,1.1l-.42,0a6.2,6.2,0,0,0-.14,1.3,2.45,2.45,0,0,0,.62,1.87,2.61,2.61,0,0,0,1.82.57q2.64,0,5-2.84h1.86a13.4,13.4,0,0,1-3.31,3.3,8.57,8.57,0,0,1-5.25,1.64,5.79,5.79,0,0,1-3.61-1.14,3.88,3.88,0,0,1-1.51-3.33,10.16,10.16,0,0,1,1.5-5.23,11.77,11.77,0,0,1,4.08-4.13,10.5,10.5,0,0,1,5.62-1.59,5.65,5.65,0,0,1,3.49.83A2.54,2.54,0,0,1,498.2,183.25Zm-3.71-.07a1.65,1.65,0,0,0-.41-1.07,1.38,1.38,0,0,0-1.11-.48,3.42,3.42,0,0,0-2.25.85,7.86,7.86,0,0,0-1.74,2,14.57,14.57,0,0,0-1.15,2.35l-.55,1.48a12.11,12.11,0,0,0,5.39-2A4,4,0,0,0,494.49,183.18Z" transform="translate(-251.41 -89.44)"/></svg>