<svg xmlns="http://www.w3.org/2000/svg" width="252.143" height="219.387" viewBox="0 0 252.143 219.387">
  <g id="Group_46" data-name="Group 46" transform="translate(0)">
    <ellipse id="Ellipse_258" data-name="Ellipse 258" cx="33.704" cy="2.571" rx="33.704" ry="2.571" transform="translate(184.736 214.245)" fill="#e6e6e6"/>
    <path id="Path_550" data-name="Path 550" d="M917.122,495.306l-3.259,9.092a3.174,3.174,0,0,0,1.343,3.785h0a3.174,3.174,0,0,0,4.8-2.36l1.034-9.211,7.834-25.9-6.746-3.264Z" transform="translate(-685.623 -352.085)" fill="#a0616a"/>
    <path id="Path_551" data-name="Path 551" d="M691.033,554.572h4.787V508l-10.88-.218Z" transform="translate(-462.254 -342.697)" fill="#a0616a"/>
    <path id="Path_552" data-name="Path 552" d="M625.441,554.572h4.787V508l-10.88-.218Z" transform="translate(-417.987 -342.697)" fill="#a0616a"/>
    <path id="Path_553" data-name="Path 553" d="M861.155,571.164l-12.4-1.306-2.611-13.709-4.787,13.927-14.8-1.523,6.093-23.066c11.138-7.568,21.716-7.4,31.77,0Z" transform="translate(-626.827 -400.96)" fill="#2f2e41"/>
    <path id="Path_554" data-name="Path 554" d="M835.6,755.422a3.888,3.888,0,0,1-4.38,4.335l-8.819-1.2a3.014,3.014,0,0,1-2.514-3.436h0a3.014,3.014,0,0,1,2.979-2.556h1.454l4.784-4.359c.047,2.969,2.234,2.31,5.847,2.02Z" transform="translate(-622.302 -541.563)" fill="#2f2e41"/>
    <path id="Path_555" data-name="Path 555" d="M901.193,755.422a3.888,3.888,0,0,1-4.38,4.335l-8.819-1.2a3.014,3.014,0,0,1-2.514-3.436h0a3.014,3.014,0,0,1,2.979-2.556h1.454l4.784-4.359c.047,2.969,2.234,2.31,5.847,2.02Z" transform="translate(-666.57 -541.563)" fill="#2f2e41"/>
    <circle id="Ellipse_259" data-name="Ellipse 259" cx="7.671" cy="7.671" r="7.671" transform="translate(209.956 75.655)" fill="#a0616a"/>
    <path id="Path_556" data-name="Path 556" d="M679.456,273.816l-9.575.871V266.2l5-3.046Z" transform="translate(-452.091 -177.597)" fill="#a0616a"/>
    <path id="Path_557" data-name="Path 557" d="M875.9,451.543c-9.632-7.053-21.2-6.337-33.946-.87,5.776-16.351,8.236-31.589,3.7-44.48a10.256,10.256,0,0,1,7.714-9.936l1.643-.42,8.051.435,7.561,4.432a10.292,10.292,0,0,1,5.087,8.833Z" transform="translate(-637.216 -303.753)" fill="#e6e6e6"/>
    <path id="Path_558" data-name="Path 558" d="M824.757,489.952l-3.259,9.092a3.174,3.174,0,0,0,1.343,3.785h0a3.174,3.174,0,0,0,4.8-2.36l1.034-9.211,7.834-25.9-6.746-3.264Z" transform="translate(-623.287 -348.472)" fill="#a0616a"/>
    <path id="Path_559" data-name="Path 559" d="M943.639,438.682H932.976V412.569h0a14.71,14.71,0,0,1,7.254,9.842Z" transform="translate(-698.648 -315.045)" fill="#e6e6e6"/>
    <path id="Path_560" data-name="Path 560" d="M855.262,342.359a3.123,3.123,0,0,1-2.965-.16,2.363,2.363,0,0,1-.943-2.709,3.734,3.734,0,0,1,1.936-1.759,19.543,19.543,0,0,1,5.568-1.86,5.21,5.21,0,0,1,2.777.094c.432.169.82.437,1.249.614a14.054,14.054,0,0,0,2.5.5,6.111,6.111,0,0,1,4.06,3.042,7.359,7.359,0,0,1,.628,1.649,9.492,9.492,0,0,1-.015,4.777c-.657,2.479-2.329,4.757-2.178,7.318-1.236-.72-1.815-2.185-2.847-3.175a4.685,4.685,0,0,0-2.816-1.275,1.489,1.489,0,0,1-.822-.209,1.283,1.283,0,0,1-.358-.647l-1.163-3.642a3.264,3.264,0,0,0-1.191-1.944,3,3,0,0,0-1.33-.323,20.249,20.249,0,0,0-3.321.031" transform="translate(-643.484 -263.187)" fill="#2f2e41"/>
    <path id="Path_561" data-name="Path 561" d="M845.652,423.505l-12.4-4.787,5.633-15.177a9.8,9.8,0,0,1,8.511-6.365h0Z" transform="translate(-631.344 -304.656)" fill="#e6e6e6"/>
    <path id="Path_562" data-name="Path 562" d="M378.316,293.84H242.092a2.441,2.441,0,0,1-2.438-2.438V142.823a2.441,2.441,0,0,1,2.438-2.438H378.316a2.441,2.441,0,0,1,2.438,2.438V291.4A2.441,2.441,0,0,1,378.316,293.84ZM242.092,141.36a1.465,1.465,0,0,0-1.463,1.463V291.4a1.465,1.465,0,0,0,1.463,1.463H378.316a1.465,1.465,0,0,0,1.463-1.463V142.823a1.465,1.465,0,0,0-1.463-1.463Z" transform="translate(-230.737 -131.352)" fill="#e6e6e6"/>
    <circle id="Ellipse_260" data-name="Ellipse 260" cx="3.2" cy="3.2" r="3.2" transform="translate(36.265 58.014)" fill="#e6e6e6"/>
    <circle id="Ellipse_261" data-name="Ellipse 261" cx="3.2" cy="3.2" r="3.2" transform="translate(49.599 58.014)" fill="#e6e6e6"/>
    <circle id="Ellipse_262" data-name="Ellipse 262" cx="3.2" cy="3.2" r="3.2" transform="translate(62.933 58.014)" fill="#a247cb"/>
    <circle id="Ellipse_263" data-name="Ellipse 263" cx="3.2" cy="3.2" r="3.2" transform="translate(76.267 58.014)" fill="#a247cb"/>
    <circle id="Ellipse_264" data-name="Ellipse 264" cx="3.2" cy="3.2" r="3.2" transform="translate(89.601 58.014)" fill="#a247cb"/>
    <circle id="Ellipse_265" data-name="Ellipse 265" cx="3.2" cy="3.2" r="3.2" transform="translate(102.935 58.014)" fill="#e6e6e6"/>
    <circle id="Ellipse_266" data-name="Ellipse 266" cx="3.2" cy="3.2" r="3.2" transform="translate(116.269 58.014)" fill="#e6e6e6"/>
    <circle id="Ellipse_267" data-name="Ellipse 267" cx="3.2" cy="3.2" r="3.2" transform="translate(36.265 68.148)" fill="#e6e6e6"/>
    <circle id="Ellipse_268" data-name="Ellipse 268" cx="3.2" cy="3.2" r="3.2" transform="translate(49.599 68.148)" fill="#e6e6e6"/>
    <circle id="Ellipse_269" data-name="Ellipse 269" cx="3.2" cy="3.2" r="3.2" transform="translate(62.933 68.148)" fill="#e6e6e6"/>
    <circle id="Ellipse_270" data-name="Ellipse 270" cx="3.2" cy="3.2" r="3.2" transform="translate(76.267 68.148)" fill="#e6e6e6"/>
    <circle id="Ellipse_271" data-name="Ellipse 271" cx="3.2" cy="3.2" r="3.2" transform="translate(89.601 68.148)" fill="#e6e6e6"/>
    <circle id="Ellipse_272" data-name="Ellipse 272" cx="3.2" cy="3.2" r="3.2" transform="translate(102.935 68.148)" fill="#e6e6e6"/>
    <circle id="Ellipse_273" data-name="Ellipse 273" cx="3.2" cy="3.2" r="3.2" transform="translate(116.269 68.148)" fill="#e6e6e6"/>
    <circle id="Ellipse_274" data-name="Ellipse 274" cx="3.2" cy="3.2" r="3.2" transform="translate(36.265 78.282)" fill="#a247cb"/>
    <circle id="Ellipse_275" data-name="Ellipse 275" cx="3.2" cy="3.2" r="3.2" transform="translate(49.599 78.282)" fill="#a247cb"/>
    <circle id="Ellipse_276" data-name="Ellipse 276" cx="3.2" cy="3.2" r="3.2" transform="translate(62.933 78.282)" fill="#a247cb"/>
    <circle id="Ellipse_277" data-name="Ellipse 277" cx="3.2" cy="3.2" r="3.2" transform="translate(76.267 78.282)" fill="#e6e6e6"/>
    <circle id="Ellipse_278" data-name="Ellipse 278" cx="3.2" cy="3.2" r="3.2" transform="translate(89.601 78.282)" fill="#e6e6e6"/>
    <circle id="Ellipse_279" data-name="Ellipse 279" cx="3.2" cy="3.2" r="3.2" transform="translate(102.935 78.282)" fill="#e6e6e6"/>
    <circle id="Ellipse_280" data-name="Ellipse 280" cx="3.2" cy="3.2" r="3.2" transform="translate(116.269 78.282)" fill="#e6e6e6"/>
    <circle id="Ellipse_281" data-name="Ellipse 281" cx="3.2" cy="3.2" r="3.2" transform="translate(36.265 88.415)" fill="#e6e6e6"/>
    <circle id="Ellipse_282" data-name="Ellipse 282" cx="3.2" cy="3.2" r="3.2" transform="translate(49.599 88.415)" fill="#e6e6e6"/>
    <circle id="Ellipse_283" data-name="Ellipse 283" cx="3.2" cy="3.2" r="3.2" transform="translate(36.265 98.549)" fill="#e6e6e6"/>
    <circle id="Ellipse_284" data-name="Ellipse 284" cx="3.2" cy="3.2" r="3.2" transform="translate(49.599 98.549)" fill="#e6e6e6"/>
    <circle id="Ellipse_285" data-name="Ellipse 285" cx="3.2" cy="3.2" r="3.2" transform="translate(62.933 98.549)" fill="#e6e6e6"/>
    <circle id="Ellipse_286" data-name="Ellipse 286" cx="3.2" cy="3.2" r="3.2" transform="translate(62.933 88.415)" fill="#e6e6e6"/>
    <circle id="Ellipse_287" data-name="Ellipse 287" cx="3.2" cy="3.2" r="3.2" transform="translate(76.267 88.415)" fill="#a247cb"/>
    <circle id="Ellipse_288" data-name="Ellipse 288" cx="3.2" cy="3.2" r="3.2" transform="translate(89.601 88.415)" fill="#a247cb"/>
    <circle id="Ellipse_289" data-name="Ellipse 289" cx="3.2" cy="3.2" r="3.2" transform="translate(102.935 88.415)" fill="#a247cb"/>
    <circle id="Ellipse_290" data-name="Ellipse 290" cx="3.2" cy="3.2" r="3.2" transform="translate(116.269 88.415)" fill="#e6e6e6"/>
    <path id="Path_40" data-name="Path 40" d="M378.129,213.882a1.933,1.933,0,1,0,0,3.867H426.6a1.933,1.933,0,0,0,.064-3.866H378.129Z" transform="translate(-322.886 -180.955)" fill="#3f3d56"/>
    <path id="Path_563" data-name="Path 563" d="M559.278,212a.381.381,0,0,0,0,.538l1.633,1.633h-4.027a.38.38,0,0,0,0,.761h4.027l-1.633,1.633a.38.38,0,0,0,.538.538l2.282-2.282a.38.38,0,0,0,0-.538L559.816,212A.38.38,0,0,0,559.278,212Z" transform="translate(-444.574 -179.606)" fill="#e6e6e6"/>
    <path id="Path_564" data-name="Path 564" d="M342.184,212a.38.38,0,0,1,0,.538l-1.633,1.633h4.027a.38.38,0,0,1,0,.761h-4.027l1.633,1.633a.38.38,0,1,1-.538.538l-2.282-2.282a.38.38,0,0,1,0-.538L341.646,212A.38.38,0,0,1,342.184,212Z" transform="translate(-297.954 -179.606)" fill="#e6e6e6"/>
    <path id="Path_565" data-name="Path 565" d="M359.415,498.231a6.934,6.934,0,1,0,0,13.867h53.869a6.934,6.934,0,0,0,0-13.867Z" transform="translate(-306.882 -372.857)" fill="#e6e6e6"/>
    <path id="Path_566" data-name="Path 566" d="M223.37,134.889a11.143,11.143,0,1,1,11.143-11.143,11.143,11.143,0,0,1-11.143,11.143Z" transform="translate(-212.228 -112.604)" fill="#a247cb"/>
    <path id="Path_567" data-name="Path 567" d="M239.488,134.369h-3.3v-3.3a1.1,1.1,0,0,0-2.2,0v3.3h-3.3a1.1,1.1,0,1,0,0,2.2h3.3v3.3a1.1,1.1,0,0,0,2.2,0v-3.3h3.3a1.1,1.1,0,1,0,0-2.2Z" transform="translate(-223.949 -124.326)" fill="#fff"/>
  </g>
</svg>
