<svg id="Group_59" data-name="Group 59" xmlns="http://www.w3.org/2000/svg" width="892.35" height="579.11" viewBox="0 0 892.35 579.11">
  <path id="Path_811" data-name="Path 811" d="M837.481,708.973l46.458-69.087-46.363,76.52.1,7.774q-5.087.039-10.076-.169l2.3-99.93-.063-.771.085-.149.221-9.443-50.877-73.867,50.817,66.8.18,2,1.74-75.5L788.061,456.56l44.069,63.32-.46-156.419v-.521l.015.512,2.917,123.28,40.049-50.076-39.918,60.7.874,67.534,36.854-65.911-36.718,75.84.487,37.552,53.6-91.813L836.393,625.468Z" transform="translate(-153.825 -160.445)" fill="#e6e6e6"/>
  <path id="Path_812" data-name="Path 812" d="M993.831,711.149l46.458-69.087-46.363,76.52.1,7.774q-5.087.039-10.076-.169l2.3-99.93-.063-.771.085-.149.221-9.443-50.877-73.867,50.817,66.8.18,2,1.74-75.5L944.41,458.737l44.069,63.32-.46-156.419v-.521l.015.512,2.917,123.28L1031,438.832l-39.918,60.7.874,67.534,36.854-65.911-36.718,75.84.487,37.552,53.6-91.813L992.742,627.644Z" transform="translate(-153.825 -160.445)" fill="#e6e6e6"/>
  <rect id="Rectangle_436" data-name="Rectangle 436" width="278.008" height="376.039" transform="translate(92)" fill="#e6e6e6"/>
  <rect id="Rectangle_437" data-name="Rectangle 437" width="258.415" height="349.538" transform="translate(101.796 13.251)" fill="#fff"/>
  <path id="Path_813" data-name="Path 813" d="M480.07,235H290.416a5.8,5.8,0,0,1,0-11.595H480.07a5.8,5.8,0,1,1,0,11.595Z" transform="translate(-153.825 -160.445)" fill="#e6e6e6"/>
  <path id="Path_814" data-name="Path 814" d="M480.07,294.633H290.416a5.8,5.8,0,1,1,0-11.595H480.07a5.8,5.8,0,1,1,0,11.595Z" transform="translate(-153.825 -160.445)" fill="#e6e6e6"/>
  <path id="Path_815" data-name="Path 815" d="M480.07,354.262H290.416a5.8,5.8,0,1,1,0-11.595H480.07a5.8,5.8,0,0,1,0,11.595Z" transform="translate(-153.825 -160.445)" fill="#e6e6e6"/>
  <path id="Path_816" data-name="Path 816" d="M480.07,413.891H290.416a5.8,5.8,0,1,1,0-11.595H480.07a5.8,5.8,0,0,1,0,11.595Z" transform="translate(-153.825 -160.445)" fill="#e6e6e6"/>
  <path id="Path_817" data-name="Path 817" d="M480.07,473.52H290.416a5.8,5.8,0,0,1,0-11.595H480.07a5.8,5.8,0,0,1,0,11.595Z" transform="translate(-153.825 -160.445)" fill="#e6e6e6"/>
  <path id="Path_818" data-name="Path 818" d="M446.943,235H289.588a5.8,5.8,0,0,1,0-11.595H446.943a5.8,5.8,0,1,1,0,11.595Z" transform="translate(-153.825 -160.445)" fill="#a247cb"/>
  <path id="Path_819" data-name="Path 819" d="M398.08,294.633H289.588a5.8,5.8,0,1,1,0-11.595H398.08a5.8,5.8,0,1,1,0,11.595Z" transform="translate(-153.825 -160.445)" fill="#a247cb"/>
  <path id="Path_820" data-name="Path 820" d="M338.451,354.262H289.588a5.8,5.8,0,1,1,0-11.595h48.863a5.8,5.8,0,0,1,0,11.595Z" transform="translate(-153.825 -160.445)" fill="#a247cb"/>
  <path id="Path_821" data-name="Path 821" d="M461.85,413.891H289.588a5.8,5.8,0,1,1,0-11.595H461.85a5.8,5.8,0,0,1,0,11.595Z" transform="translate(-153.825 -160.445)" fill="#a247cb"/>
  <path id="Path_822" data-name="Path 822" d="M423.754,473.52H289.588a5.8,5.8,0,0,1,0-11.595H423.754a5.8,5.8,0,1,1,0,11.595Z" transform="translate(-153.825 -160.445)" fill="#a247cb"/>
  <rect id="Rectangle_438" data-name="Rectangle 438" width="888" height="2" transform="translate(0 563.74)" fill="#3f3d56"/>
  <path id="Path_823" data-name="Path 823" d="M659.813,431.353s-6.285-46.094-16.761-33.523,0,31.427,0,31.427l8.381,10.476,8.381-6.285Z" transform="translate(-153.825 -160.445)" fill="#9f616a"/>
  <path id="Path_824" data-name="Path 824" d="M684.955,446.019S664,422.972,659.813,427.162s-16.761,6.285-14.666,14.666,46.094,35.618,46.094,35.618Z" transform="translate(-153.825 -160.445)" fill="#a247cb"/>
  <path id="Path_825" data-name="Path 825" d="M684.955,446.019S664,422.972,659.813,427.162s-16.761,6.285-14.666,14.666,46.094,35.618,46.094,35.618Z" transform="translate(-153.825 -160.445)" opacity="0.1"/>
  <path id="Path_826" data-name="Path 826" d="M804.379,443.924v16.761s2.1,37.713-10.476,35.618-6.286-33.523-6.286-33.523l2.1-18.856Z" transform="translate(-153.825 -160.445)" fill="#9f616a"/>
  <path id="Path_827" data-name="Path 827" d="M798.094,565.443s18.857,29.332,25.142,31.427,39.808,20.952,44,39.808l29.332,37.713L881.9,693.247s-67.045-71.235-85.9-77.521-37.713-37.713-37.713-37.713Z" transform="translate(-153.825 -160.445)" fill="#9f616a"/>
  <path id="Path_828" data-name="Path 828" d="M649.337,517.254s-39.808,6.285-33.523,31.427S682.86,626.2,682.86,626.2l2.1,12.571L708,642.964l10.476-10.476-2.1-6.285s-25.142-23.047-27.237-31.427-25.142-41.9-35.618-44l14.666-8.381Z" transform="translate(-153.825 -160.445)" fill="#9f616a"/>
  <path id="Path_829" data-name="Path 829" d="M890.281,674.391s-8.381-12.571,4.19-10.476,20.952,4.19,20.952,12.571-10.476,67.045-23.047,62.855-2.1-23.047-2.1-23.047S884,699.533,879.8,697.438s-4.19-12.571,0-12.571S892.376,678.581,890.281,674.391Z" transform="translate(-153.825 -160.445)" fill="#2f2e41"/>
  <path id="Path_830" data-name="Path 830" d="M712.192,628.3s0-10.476,8.381,0,12.571,18.856,4.19,25.142-37.713,20.952-37.713,20.952-31.427,6.285-27.237-8.381c0,0,20.952-10.476,20.952-18.856s0-23.047,6.285-18.856S712.192,634.583,712.192,628.3Z" transform="translate(-153.825 -160.445)" fill="#2f2e41"/>
  <path id="Path_831" data-name="Path 831" d="M752,471.161s29.332,4.19,27.237,46.094c0,0,37.713,37.713,27.237,50.284s-33.523,35.618-41.9,29.332S731.048,542.4,731.048,542.4s-58.664,20.952-69.14,10.476-20.952-35.618-20.952-35.618l52.379-27.237Z" transform="translate(-153.825 -160.445)" fill="#2f2e41"/>
  <circle id="Ellipse_313" data-name="Ellipse 313" cx="25.142" cy="25.142" r="25.142" transform="translate(491.322 141.008)" fill="#9f616a"/>
  <path id="Path_832" data-name="Path 832" d="M689.145,328.69S703.811,351.737,708,353.832s-29.332,23.047-29.332,23.047,0-27.237-10.476-33.523Z" transform="translate(-153.825 -160.445)" fill="#9f616a"/>
  <path id="Path_833" data-name="Path 833" d="M691.24,351.737s33.523-10.476,39.808,6.285S752,406.211,749.9,427.162s-6.285,16.761,0,23.047,10.476,2.1,8.381,10.476-4.19,8.381-2.1,12.571S731.048,492.112,708,494.207l-23.047,2.1s0-37.713-4.19-46.094-12.571-25.142-12.571-31.427V402.151a63.606,63.606,0,0,1,8.381-31.558h0S689.145,351.737,691.24,351.737Z" transform="translate(-153.825 -160.445)" fill="#a247cb"/>
  <path id="Path_834" data-name="Path 834" d="M716.382,360.117s77.521,6.285,85.9,27.237,12.571,62.855,4.19,62.855-18.856,4.19-20.952,0-10.476-46.094-12.571-46.094S708,397.83,708,397.83,680.765,364.307,716.382,360.117Z" transform="translate(-153.825 -160.445)" fill="#a247cb"/>
  <path id="Path_835" data-name="Path 835" d="M669.279,320.362s-6.672-11.595-15.012-1.524-21.907-8.436-19.824-12.385,9.438.178,22.042-3.943S693.369,290,697.436,317.377s-5.618,24.511-5.618,24.511-4.439-24.263-8.451-17.294l-4.012,6.969-3.48.857Z" transform="translate(-153.825 -160.445)" fill="#2f2e41"/>
</svg>
