<svg id="Group_54" data-name="Group 54" xmlns="http://www.w3.org/2000/svg" width="876.973" height="744" viewBox="0 0 876.973 744">
  <path id="Path_571" data-name="Path 571" d="M676.514,269h-26a5.006,5.006,0,0,1-5-5V238a5.006,5.006,0,0,1,5-5h26a5.006,5.006,0,0,1,5,5v26A5.006,5.006,0,0,1,676.514,269Zm-26-34a3,3,0,0,0-3,3v26a3,3,0,0,0,3,3h26a3,3,0,0,0,3-3V238a3,3,0,0,0-3-3Z" transform="translate(-161.514 -78)" fill="#e6e6e6"/>
  <path id="Path_572" data-name="Path 572" d="M373.514,114h-26a5.006,5.006,0,0,1-5-5V83a5.006,5.006,0,0,1,5-5h26a5.006,5.006,0,0,1,5,5v26a5.006,5.006,0,0,1-5,5Zm-26-34a3,3,0,0,0-3,3v26a3,3,0,0,0,3,3h26a3,3,0,0,0,3-3V83a3,3,0,0,0-3-3Z" transform="translate(-161.514 -78)" fill="#e6e6e6"/>
  <path id="Path_573" data-name="Path 573" d="M660.514,256h-26a5.006,5.006,0,0,1-5-5V225a5.006,5.006,0,0,1,5-5h26a5.006,5.006,0,0,1,5,5v26A5.006,5.006,0,0,1,660.514,256Zm-26-34a3,3,0,0,0-3,3v26a3,3,0,0,0,3,3h26a3,3,0,0,0,3-3V225a3,3,0,0,0-3-3Z" transform="translate(-161.514 -78)" fill="#e6e6e6"/>
  <path id="Path_574" data-name="Path 574" d="M208.514,473h-26a5.006,5.006,0,0,1-5-5V442a5.006,5.006,0,0,1,5-5h26a5.006,5.006,0,0,1,5,5v26a5.006,5.006,0,0,1-5,5Zm-26-34a3,3,0,0,0-3,3v26a3,3,0,0,0,3,3h26a3,3,0,0,0,3-3V442a3,3,0,0,0-3-3Z" transform="translate(-161.514 -78)" fill="#e6e6e6"/>
  <path id="Path_575" data-name="Path 575" d="M192.514,460h-26a5.006,5.006,0,0,1-5-5V429a5.006,5.006,0,0,1,5-5h26a5.006,5.006,0,0,1,5,5v26a5.006,5.006,0,0,1-5,5Zm-26-34a3,3,0,0,0-3,3v26a3,3,0,0,0,3,3h26a3,3,0,0,0,3-3V429a3,3,0,0,0-3-3Z" transform="translate(-161.514 -78)" fill="#e6e6e6"/>
  <path id="Path_576" data-name="Path 576" d="M253.943,164.039H494.559a51.15,51.15,0,0,1,49.9,39.9L666.035,743.206a41.34,41.34,0,0,1-38.294,50.382L380.386,805.776a54.615,54.615,0,0,1-56.43-44.827L254.989,379.68l-5.131,1.466-13.2-72.265,5.281-1.32L222.693,201.136a31.493,31.493,0,0,1,31.25-37.1Z" transform="translate(-161.514 -78)" fill="#3f3d56"/>
  <path id="Path_577" data-name="Path 577" d="M462.882,175.664h28.087a35.349,35.349,0,0,1,34.536,27.813L642.2,738.345a21.9,21.9,0,0,1-19.967,26.525L375.682,781.029a28.367,28.367,0,0,1-29.773-23.277L246.33,204.914a24.846,24.846,0,0,1,24.452-29.25h26.645a11.726,11.726,0,0,1,11.323,8.677h0a10.352,10.352,0,0,0,10,7.661H445.239a17.7,17.7,0,0,0,17.643-16.338Z" transform="translate(-161.514 -78)" fill="#fff"/>
  <path id="Path_578" data-name="Path 578" d="M104,188.606H371.476L399.971,317,129,322Z" fill="#a247cb"/>
  <path id="Path_579" data-name="Path 579" d="M358,431.754h62.971l2,12.055H360Z" fill="#a247cb"/>
  <rect id="Rectangle_406" data-name="Rectangle 406" width="267.125" height="1.257" transform="translate(142.171 375.914) rotate(-1.213)" fill="#2f2e41"/>
  <rect id="Rectangle_407" data-name="Rectangle 407" width="272.164" height="1.257" transform="matrix(1, -0.023, 0.023, 1, 145.311, 413.613)" fill="#2f2e41"/>
  <path id="Path_580" data-name="Path 580" d="M384,560.754h62.971l2,12.055H386Z" fill="#a247cb"/>
  <rect id="Rectangle_408" data-name="Rectangle 408" width="267.125" height="1.257" transform="translate(168.171 504.915) rotate(-1.213)" fill="#2f2e41"/>
  <rect id="Rectangle_409" data-name="Rectangle 409" width="272.164" height="1.257" transform="matrix(1, -0.023, 0.023, 1, 171.311, 542.612)" fill="#2f2e41"/>
  <path id="Path_581" data-name="Path 581" d="M615.56,731.207H603.645l-5.668-45.957h17.585Z" fill="#a0616a"/>
  <path id="Path_582" data-name="Path 582" d="M780.112,820.757H741.693v-.486a14.954,14.954,0,0,1,14.953-14.953h23.467Z" transform="translate(-161.514 -78)" fill="#2f2e41"/>
  <path id="Path_583" data-name="Path 583" d="M763.576,723.405l-11.6,2.731L735.926,682.7l17.117-4.031Z" fill="#a0616a"/>
  <path id="Path_584" data-name="Path 584" d="M930.7,811.951l-37.4,8.806-.111-.473A14.954,14.954,0,0,1,904.316,802.3h0l22.84-5.378Z" transform="translate(-161.514 -78)" fill="#2f2e41"/>
  <path id="Path_585" data-name="Path 585" d="M774.639,615.366c.023-2.4.732-58.915,16.225-80.286l.229-.315,53.992,7.449-1.207,11.863c2.375,2.31,21.055,21.83,26.449,68.054l57.308,153.915-26.642,2.422L822.127,610.449,780.392,793.084H753.981Z" transform="translate(-161.514 -78)" fill="#2f2e41"/>
  <path id="Path_586" data-name="Path 586" d="M784.539,537.165l5.278-27.708c-1.033-1.33-5.611-7.717-4.592-15.2.665-4.884,3.58-9.167,8.668-12.734l13.68-31.92.184-.108c.921-.543,22.7-13.138,34.577-1.255.3.23,29.533,23.438,17.793,54.746l-14.494,43.485Z" transform="translate(-161.514 -78)" fill="#ccc"/>
  <path id="Path_587" data-name="Path 587" d="M766.177,574.652a9.8,9.8,0,0,0,8.275-12.54L802.7,541.758l-16.912-6.433L761.556,555.64a9.851,9.851,0,0,0,4.62,19.012Z" transform="translate(-161.514 -78)" fill="#a0616a"/>
  <path id="Path_588" data-name="Path 588" d="M771.369,541.725l43.13-33.981-12.822-43.808a15.74,15.74,0,0,1,1.589-12.458,14.558,14.558,0,0,1,9.546-6.891c7.383-1.562,14.086,2.572,19.917,12.29l.044.088c.965,2.358,23.434,57.9,6.277,69.779-16.783,11.619-55.7,28.532-56.091,28.7l-.456.2Z" transform="translate(-161.514 -78)" fill="#ccc"/>
  <circle id="Ellipse_293" data-name="Ellipse 293" cx="26.128" cy="26.128" r="26.128" transform="translate(641.049 306.428)" fill="#a0616a"/>
  <circle id="Ellipse_294" data-name="Ellipse 294" cx="23.114" cy="23.114" r="23.114" transform="translate(685.024 277)" fill="#2f2e41"/>
  <path id="Path_589" data-name="Path 589" d="M889.59,397.255A23.116,23.116,0,0,1,853.9,385.117a23.116,23.116,0,1,0,45.09-9.479A23.107,23.107,0,0,1,889.59,397.255Z" transform="translate(-161.514 -78)" fill="#2f2e41"/>
  <path id="Path_590" data-name="Path 590" d="M798.37,397.28c4.035-7.224,5.579-10.242,10.782-14.635,4.6-3.885,10.26-5.026,14.825-1.345a27.495,27.495,0,1,1-16.308,22C803.7,402.745,802.338,397.837,798.37,397.28Z" transform="translate(-161.514 -78)" fill="#2f2e41"/>
  <path id="Path_591" data-name="Path 591" d="M1037.486,822h-381a1,1,0,0,1,0-2h381a1,1,0,0,1,0,2Z" transform="translate(-161.514 -78)" fill="#3f3d56"/>
</svg>
