<svg id="Group_131" data-name="Group 131" xmlns="http://www.w3.org/2000/svg" width="860.282" height="771.924" viewBox="0 0 860.282 771.924">
  <ellipse id="Ellipse_436" data-name="Ellipse 436" cx="283" cy="43" rx="283" ry="43" transform="translate(166.783 685.924)" fill="#f2f2f2"/>
  <path id="Path_1597" data-name="Path 1597" d="M797.7,640.5a20.813,20.813,0,1,0,2.772-39.915l.521,10.712-5.068-9.18a20.734,20.734,0,0,0-10.684,11.723,20.406,20.406,0,0,0-1.2,5.63A20.809,20.809,0,0,0,797.7,640.5Z" transform="translate(-170.109 -63.788)" fill="#57b894"/>
  <path id="Path_1598" data-name="Path 1598" d="M822.775,764.74c-1.789-9.11,5.963-17.187,13.621-22.437S853,731.9,855.614,722.987c3.755-12.8-7.43-24.53-16.136-34.642a125.3,125.3,0,0,1-16.524-24.557c-1.811-3.533-3.476-7.225-3.952-11.166-.686-5.675,1.137-11.323,2.974-16.737q9.179-27.052,19.628-53.65" transform="translate(-170.109 -63.788)" fill="none" stroke="#3f3d56" stroke-miterlimit="10" stroke-width="1"/>
  <path id="Path_1599" data-name="Path 1599" d="M798.555,637.739a20.813,20.813,0,1,0,2.772-39.915l.521,10.712-5.068-9.18A20.734,20.734,0,0,0,786.1,611.078a20.408,20.408,0,0,0-1.2,5.63,20.808,20.808,0,0,0,13.656,21.031Z" transform="translate(-170.109 -63.788)" fill="none" stroke="#3f3d56" stroke-miterlimit="10" stroke-width="1"/>
  <path id="Path_1600" data-name="Path 1600" d="M820.231,578.536a20.788,20.788,0,0,1,14.98-13.2l1.714,10.184,3.177-10.7a20.81,20.81,0,1,1-19.871,13.71Z" transform="translate(-170.109 -63.788)" fill="#57b894"/>
  <path id="Path_1601" data-name="Path 1601" d="M821.374,574.858a20.788,20.788,0,0,1,14.98-13.2l1.714,10.184,3.177-10.7a20.81,20.81,0,1,1-19.871,13.709Z" transform="translate(-170.109 -63.788)" fill="none" stroke="#3f3d56" stroke-miterlimit="10" stroke-width="1"/>
  <path id="Path_1602" data-name="Path 1602" d="M835.825,688.552a20.81,20.81,0,0,0,18.419-37.023l-2.441,8.219-1.731-10.3a.375.375,0,0,0-.053-.02,20.811,20.811,0,0,0-14.194,39.127Z" transform="translate(-170.109 -63.788)" fill="#57b894"/>
  <path id="Path_1603" data-name="Path 1603" d="M836.815,684.827A20.81,20.81,0,0,0,855.234,647.8l-2.441,8.219-1.731-10.3a.362.362,0,0,0-.053-.02,20.811,20.811,0,1,0-14.194,39.127Z" transform="translate(-170.109 -63.788)" fill="none" stroke="#3f3d56" stroke-miterlimit="10" stroke-width="1"/>
  <path id="Path_1604" data-name="Path 1604" d="M814.158,723.114a20.8,20.8,0,1,0,4.011-16.3l9.273,13.957-12.67-7.408A20.617,20.617,0,0,0,814.158,723.114Z" transform="translate(-170.109 -63.788)" fill="#57b894"/>
  <path id="Path_1605" data-name="Path 1605" d="M815.015,720.356a20.8,20.8,0,1,0,4.01-16.3l9.273,13.957-12.67-7.408A20.615,20.615,0,0,0,815.015,720.356Z" transform="translate(-170.109 -63.788)" fill="none" stroke="#3f3d56" stroke-miterlimit="10" stroke-width="1"/>
  <path id="Path_1606" data-name="Path 1606" d="M756.867,177.626a58.487,58.487,0,0,1,58.406-55.43c1.778,0,3.533.093,5.27.248a77.707,77.707,0,0,1,134.327-.064c1.466-.11,2.941-.184,4.435-.184a58.487,58.487,0,0,1,58.406,55.429" transform="translate(-170.109 -63.788)" fill="#f2f2f2"/>
  <path id="Path_1607" data-name="Path 1607" d="M769.048,173.126a58.487,58.487,0,0,1,58.406-55.43c1.778,0,3.533.093,5.27.248a77.707,77.707,0,0,1,134.327-.064c1.466-.11,2.941-.184,4.435-.184a58.487,58.487,0,0,1,58.406,55.429" transform="translate(-170.109 -63.788)" fill="none" stroke="#3f3d56" stroke-miterlimit="10" stroke-width="1"/>
  <path id="Path_1608" data-name="Path 1608" d="M331.867,455.626a58.487,58.487,0,0,1,58.406-55.43c1.778,0,3.533.093,5.27.248a77.707,77.707,0,0,1,134.327-.063c1.466-.11,2.941-.184,4.435-.184a58.487,58.487,0,0,1,58.406,55.429" transform="translate(-170.109 -63.788)" fill="#f2f2f2"/>
  <path id="Path_1609" data-name="Path 1609" d="M344.048,451.126a58.487,58.487,0,0,1,58.406-55.43c1.778,0,3.533.093,5.27.248a77.707,77.707,0,0,1,134.327-.063c1.466-.11,2.941-.184,4.435-.184a58.487,58.487,0,0,1,58.406,55.429" transform="translate(-170.109 -63.788)" fill="none" stroke="#3f3d56" stroke-miterlimit="10" stroke-width="1"/>
  <path id="Path_1610" data-name="Path 1610" d="M207.867,162.626a58.487,58.487,0,0,1,58.406-55.43c1.778,0,3.533.093,5.27.248a77.707,77.707,0,0,1,134.327-.064c1.465-.11,2.941-.184,4.435-.184a58.487,58.487,0,0,1,58.406,55.429" transform="translate(-170.109 -63.788)" fill="#f2f2f2"/>
  <path id="Path_1611" data-name="Path 1611" d="M220.048,158.126a58.487,58.487,0,0,1,58.406-55.43c1.778,0,3.533.093,5.27.248a77.707,77.707,0,0,1,134.327-.064c1.466-.11,2.941-.184,4.435-.184a58.487,58.487,0,0,1,58.406,55.429" transform="translate(-170.109 -63.788)" fill="none" stroke="#3f3d56" stroke-miterlimit="10" stroke-width="1"/>
  <path id="Path_1612" data-name="Path 1612" d="M465.161,281.261s105.12,52.2,123.969,44.948S614.5,254.437,614.5,254.437l-77.571-14.5Z" transform="translate(-170.109 -63.788)" fill="#a247cb"/>
  <path id="Path_1613" data-name="Path 1613" d="M465.161,281.261s105.12,52.2,123.969,44.948S614.5,254.437,614.5,254.437l-77.571-14.5Z" transform="translate(-170.109 -63.788)" opacity="0.1"/>
  <rect id="Rectangle_541" data-name="Rectangle 541" width="68.872" height="60.172" transform="translate(444.033 139.539)" fill="#ff6584"/>
  <rect id="Rectangle_542" data-name="Rectangle 542" width="68.872" height="60.172" transform="translate(444.033 139.539)" opacity="0.1"/>
  <path id="Path_1614" data-name="Path 1614" d="M551.432,459.6s-2.9,63.072,16.674,61.622,0-59.447,0-59.447Z" transform="translate(-170.109 -63.788)" fill="#fbbebe"/>
  <path id="Path_1615" data-name="Path 1615" d="M631.9,212.389s4.35,27.549-3.625,31.174-13.049,6.525-13.049,6.525l18.124,12.324,33.348,2.175,8.7-6.525,7.975-7.25s-13.049-2.9-13.049-9.425-.725-26.1-.725-26.1Z" transform="translate(-170.109 -63.788)" fill="#fbbebe"/>
  <path id="Path_1616" data-name="Path 1616" d="M631.9,212.389s4.35,27.549-3.625,31.174-13.049,6.525-13.049,6.525l18.124,12.324,33.348,2.175,8.7-6.525,7.975-7.25s-13.049-2.9-13.049-9.425-.725-26.1-.725-26.1Z" transform="translate(-170.109 -63.788)" opacity="0.1"/>
  <path id="Path_1617" data-name="Path 1617" d="M586.23,470.477S565.206,537.9,565.206,587.2c0,0-34.8,78.3-33.348,116.719l-8.7,52.922,12.324,4.35,9.425-7.975s2.9-28.274,12.324-42.048,31.174-79.021,31.174-79.021,58-121.794,55.822-139.193S586.23,470.477,586.23,470.477Z" transform="translate(-170.109 -63.788)" fill="#fbbebe"/>
  <path id="Path_1618" data-name="Path 1618" d="M714.549,455.253s13.774,6.525-5.8,122.519c0,0,10.875,76.846,1.45,118.894l-1.45,42.048H693.525l-2.9-4.35s-.725-37.7-5.8-47.848-9.425-68.872-9.425-68.872-23.2-119.619-18.124-129.769S714.549,455.253,714.549,455.253Z" transform="translate(-170.109 -63.788)" fill="#fbbebe"/>
  <path id="Path_1619" data-name="Path 1619" d="M520.983,744.514s5.075,11.6,14.5,8.7,11.6-2.9,11.6-2.9-6.525,33.348-4.35,49.3-1.45,26.1-15.949,26.1-16.674-17.4-16.674-17.4l6.525-41.323Z" transform="translate(-170.109 -63.788)" fill="#2f2e41"/>
  <path id="Path_1620" data-name="Path 1620" d="M687.725,726.39s5.075,10.15,13.049,7.975,10.874-5.8,10.874-5.8-.725,22.474,2.175,32.623,9.425,39.148-5.8,40.6a19.574,19.574,0,0,1-20.3-11.6Z" transform="translate(-170.109 -63.788)" fill="#2f2e41"/>
  <circle id="Ellipse_437" data-name="Ellipse 437" cx="31.898" cy="31.898" r="31.898" transform="translate(449.47 103.653)" fill="#fbbebe"/>
  <path id="Path_1621" data-name="Path 1621" d="M710.2,256.612s-25.267-9.921-34.383-8.586a37.26,37.26,0,0,1-28.689,8.586c-17.4-2.175-24.2-10.525-24.2-10.525s-46.844,10.525-43.944,14.875,15.949,75.4,15.949,75.4,8.7,61.622-1.45,82.646-15.224,55.822-10.874,58.722,52.922,15.949,58.722,19.574,7.975-8.7,11.6-6.525,11.6,5.8,16.674,2.9,54.372-29,52.922-34.073-20.3-66.7-26.824-79.021-1.45-38.423,2.175-43.5,10.874-10.874,12.324-25.374S710.2,256.612,710.2,256.612Z" transform="translate(-170.109 -63.788)" fill="#2f2e41"/>
  <path id="Path_1622" data-name="Path 1622" d="M580.578,258.721s-5.948,4.415-8.122,13.84-5.075,84.821-5.075,84.821-26.824,103.67-21.024,105.845,22.474,6.525,24.649,4.35,26.824-89.9,24.649-99.32,2.9-36.973,2.9-36.973Z" transform="translate(-170.109 -63.788)" fill="#2f2e41"/>
  <path id="Path_1623" data-name="Path 1623" d="M714.549,393.631s-39.148-19.574-43.5-6.525,41.323,26.824,41.323,26.824,15.949-5.8,15.949-9.425S714.549,393.631,714.549,393.631Z" transform="translate(-170.109 -63.788)" fill="#fbbebe"/>
  <path id="Path_1624" data-name="Path 1624" d="M702.225,259.512l7.975-2.9s4.35-2.9,9.425,7.975,60.172,74.671,50.023,94.97-43.5,61.622-44.948,58.722-18.124-24.649-15.224-26.824,36.248-31.9,31.9-36.248-22.474-41.323-32.623-42.773S702.225,259.512,702.225,259.512Z" transform="translate(-170.109 -63.788)" fill="#2f2e41"/>
  <path id="Path_1625" data-name="Path 1625" d="M616.316,198.252S505.768,153.8,410.072,111.029c0,0-50.023-12.324-76.121,10.874,0,0,21.749-2.9,21.749,9.425,0,0,18.849,24.649-39.873,29-40.9,3.029-57.178,27.507-63.3,42.09a59.245,59.245,0,0,1-23.958,28.17c-14.135,8.448-34.62,14.663-58.465,3.687,0,0,1.356,2.084,3.927,5.556C220.074,302,391.517,356.111,452.058,307.948c37.415-29.765,96.728-67.385,139.247-48.436,66.7,29.724,79.021,16.674,79.021,16.674l2.9-7.975s-64.522-17.4-65.972-39.873S616.316,198.252,616.316,198.252Z" transform="translate(-170.109 -63.788)" fill="#a247cb"/>
  <path id="Path_1626" data-name="Path 1626" d="M680.838,204.052s15.587,6.162,18.487,26.461c0,0,16.674,32.623-2.175,40.6s-22.474,5.8-22.474,5.8v-3.625s20.3-12.324,15.949-21.749S680.838,204.052,680.838,204.052Z" transform="translate(-170.109 -63.788)" fill="#a247cb"/>
  <path id="Path_1627" data-name="Path 1627" d="M652.927,296.485s5.075-13.049,3.625-13.049,5.9-8.026,8.749-5.1,7.925,11.625,2.126,13.8S652.927,296.485,652.927,296.485Z" transform="translate(-170.109 -63.788)" fill="#a247cb"/>
  <path id="Path_1628" data-name="Path 1628" d="M688.656,288.74s-13.252-4.519-13.191-3.07-8.268-5.554-5.466-8.526,11.28-8.41,13.7-2.707S688.656,288.74,688.656,288.74Z" transform="translate(-170.109 -63.788)" fill="#a247cb"/>
  <path id="Path_1629" data-name="Path 1629" d="M667.426,268.936s6.619-3.715,10.559,2.13-4.759,15.994-10.559,15.994-5.8-12.324-5.8-12.324Z" transform="translate(-170.109 -63.788)" fill="#a247cb"/>
  <path id="Path_1630" data-name="Path 1630" d="M667.426,268.936s6.619-3.715,10.559,2.13-4.759,15.994-10.559,15.994-5.8-12.324-5.8-12.324Z" transform="translate(-170.109 -63.788)" opacity="0.1"/>
  <path id="Path_1631" data-name="Path 1631" d="M623.821,147.286c-3.822,3.151-7.447,6.682-9.824,11.028a49.483,49.483,0,0,0-3.115,7.584c-2.932,8.437-10.219,16.982-7.135,25.365.88,2.392,2.252,4.914,1.463,7.337-.7,2.152-2.863,3.408-4.428,5.044-3.357,3.511-3.922,8.78-4.127,13.634-.376,8.889,4.512,19.364,10.418,26.019a36.353,36.353,0,0,1,3.554,4.024,9.432,9.432,0,0,1,1.113,7.759l8.6-1.8a71.353,71.353,0,0,1,.29,9.559,8.924,8.924,0,0,0,9.463-6.116,25.551,25.551,0,0,0,2.364,6.531,33.711,33.711,0,0,0,5.714-10.583A30.257,30.257,0,0,0,639.2,237.4a64.792,64.792,0,0,0-3.7-10.859c-3.04-7.683-5.522-15.572-8-23.454-1.288-4.093-2.591-8.32-2.2-12.593l3.057-.333a14.6,14.6,0,0,1,.965-4.934,18.1,18.1,0,0,1,5.113,1.924l3.524-8.942c2.326,2.412,5.664,3.5,8.86,4.51l12.148,3.825.074-2.4a62.354,62.354,0,0,0,17.287,10.844,3.933,3.933,0,0,1-.854-3.129c2.994,5.363,1.8,12.044-.051,17.9s-4.3,11.821-3.555,17.918c.556,4.56,2.892,8.921,2.459,13.494-.213,2.252-1.094,4.4-1.368,6.641-.653,5.356,2.163,10.455,4.881,15.116l5.285-7.259c1.934-2.657,3.928-5.371,6.667-7.187,2.812-1.864,6.3-2.7,8.747-5.019,4.374-4.139,3.819-11.191,2.4-17.042-.756-3.111-1.671-6.265-1.393-9.454.471-5.406,4.228-9.879,6.344-14.876a25.826,25.826,0,0,0-1.447-22.7c-2.625-4.5-6.592-8.13-9.066-12.718-2.463-4.567-3.4-10-6.777-13.943a23.521,23.521,0,0,0-5.681-4.526A74.056,74.056,0,0,0,651.4,137.917C640.835,136.812,631.919,140.61,623.821,147.286Z" transform="translate(-170.109 -63.788)" fill="#ff6584"/>
</svg>
