<svg id="Group_23" data-name="Group 23" xmlns="http://www.w3.org/2000/svg" width="278.966" height="170.613" viewBox="0 0 278.966 170.613">
  <ellipse id="Ellipse_142" data-name="Ellipse 142" cx="38.37" cy="4.588" rx="38.37" ry="4.588" transform="translate(0 161.436)" fill="#e6e6e6"/>
  <path id="Path_218" data-name="Path 218" d="M264.232,298.849c-.02.1-.039.193-.061.291a26,26,0,0,0,.475,13.241H243.415l3.352-15.334a7.832,7.832,0,0,1,2.69-5.914c.142-.126.29-.249.444-.36a7.8,7.8,0,0,1,4.718-1.578h1.821a8.158,8.158,0,0,1,3.193.645c.17.073.338.151.5.235a8.066,8.066,0,0,1,5.213,8.59,26.011,26.011,0,0,0,2.011,13.1l-1.109.128A25.981,25.981,0,0,1,264.232,298.849Z" transform="translate(-216.08 -254.462)" fill="#2f2e41"/>
  <path id="Path_219" data-name="Path 219" d="M263.789,326.945s1.676,7.263-1.676,7.822,8.66,2.235,8.66,2.235-.838-5.866,1.117-7.822Z" transform="translate(-228.492 -280.34)" fill="#fbbebe"/>
  <path id="Path_220" data-name="Path 220" d="M224.108,486.77s-.685,8.542,2.23,8.657,1.3-8.411,1.3-8.411Z" transform="translate(-202.797 -389.899)" fill="#fbbebe"/>
  <path id="Path_221" data-name="Path 221" d="M340.476,500.15s2.794,8.1,0,8.939-3.352-7.822-3.352-7.822Z" transform="translate(-280.317 -399.072)" fill="#fbbebe"/>
  <path id="Path_222" data-name="Path 222" d="M144.206,192.176l3.932-.6,1.656,1.159,1.4,4.19,3.352,17.041,2.514,11.174,3.911,7.822-6.425,2.793L148.4,215.642Z" transform="translate(-98.852 -131.324)" fill="#a247cb"/>
  <path id="Path_223" data-name="Path 223" d="M226.445,432.329s-1.676,11.174-.559,13.409c0,0-2.079,12.972-3.632,21.51L220.02,479.54l-5.028,18.717,8.1,2.235,16.482-45.814,4.749,25.7.838,18.437,8.66-.279L252.7,466.411s5.028-21.231-3.632-29.053-10.057-7.822-10.057-7.822Z" transform="translate(-196.595 -350.666)" fill="#2f2e41"/>
  <path id="Path_224" data-name="Path 224" d="M320.817,646.265l2.235,7.543,1.4,6.7s5.028,7.543,0,6.7-5.587-3.632-5.587-3.632v-1.676l-1.4-.838v-2.794s-1.956-1.4,0-3.632l-.838-7.822Z" transform="translate(-266.245 -499.232)" fill="#2f2e41"/>
  <path id="Path_225" data-name="Path 225" d="M208.866,646.265l-2.235,7.543-1.4,6.7s-5.028,7.543,0,6.7,5.587-3.632,5.587-3.632v-1.676l1.4-.838v-2.794s1.955-1.4,0-3.632l.838-7.822Z" transform="translate(-188.376 -499.232)" fill="#2f2e41"/>
  <circle id="Ellipse_143" data-name="Ellipse 143" cx="6.984" cy="6.984" r="6.984" transform="translate(33.621 36.548)" fill="#fbbebe"/>
  <path id="Path_226" data-name="Path 226" d="M242.089,347.374s7.263,3.073,9.219,2.514,2.514,1.955,2.514,1.955l5.587,3.911-1.676,9.5s1.4,5.028-.279,8.381c0,0,4.47,1.4,2.794,3.632a3.659,3.659,0,0,1,1.4,5.028s-8.381-2.235-9.219-6.425l-8.66,1.117-6.146,4.749s-3.073-.279-1.956-4.749a15.934,15.934,0,0,0-.279-8.381l-3.073-19.555Z" transform="translate(-208.469 -294.344)" fill="#a247cb"/>
  <path id="Path_227" data-name="Path 227" d="M223.894,351.827l-1.115.3a1.984,1.984,0,0,0-1,.628l-.361.422a2.563,2.563,0,0,0-.61,1.489l-.249,3.561-.393,17.338.352,11.448-1.837,8.55,6.919,1.1.935-21.011-1.729-23.174a.728.728,0,0,0-.913-.65Z" transform="translate(-199.126 -297.38)" fill="#a247cb"/>
  <path id="Path_228" data-name="Path 228" d="M267.795,312.991c-1.147-2.777-2.846-5.712-3.968-8.346-.774-3.078-.969-5.712.784-7.06,0-2.964.1-4.9-2.252-6.339a7.836,7.836,0,0,0-1.6.934h0c-.093.068-.184.14-.273.214l-.111.095-.06.051h0a7.829,7.829,0,0,0-2.692,5.913v14.775h8.66c-.286-1.248-.668-2.541-1.062-3.83.625,1.248,1.24,2.5,1.747,3.729Z" transform="translate(-225.822 -255.869)" fill="#2f2e41"/>
  <path id="Path_229" data-name="Path 229" d="M283.521,299.223c-3.785,1.061-8.042.886-12.571,0v-5.587h6.984a5.587,5.587,0,0,1,5.587,5.587Z" transform="translate(-234.955 -257.507)" fill="#2f2e41"/>
  <rect id="Rectangle_356" data-name="Rectangle 356" width="173.292" height="107.911" transform="translate(105.674 12.695)" fill="#e6e6e6"/>
  <rect id="Rectangle_357" data-name="Rectangle 357" width="31.739" height="20.63" transform="translate(117.294 33.484)" fill="#fff"/>
  <rect id="Rectangle_358" data-name="Rectangle 358" width="31.739" height="20.63" transform="translate(156.732 33.484)" fill="#fff"/>
  <rect id="Rectangle_359" data-name="Rectangle 359" width="31.739" height="20.63" transform="translate(196.169 33.484)" fill="#fff"/>
  <rect id="Rectangle_360" data-name="Rectangle 360" width="31.739" height="20.63" transform="translate(235.607 33.484)" fill="#fff"/>
  <rect id="Rectangle_361" data-name="Rectangle 361" width="31.739" height="20.63" transform="translate(117.294 62.684)" fill="#fff"/>
  <rect id="Rectangle_362" data-name="Rectangle 362" width="31.739" height="20.63" transform="translate(156.732 62.684)" fill="#fff"/>
  <rect id="Rectangle_363" data-name="Rectangle 363" width="31.739" height="20.63" transform="translate(196.169 62.684)" fill="#fff"/>
  <rect id="Rectangle_364" data-name="Rectangle 364" width="31.739" height="20.63" transform="translate(235.607 62.684)" fill="#fff"/>
  <rect id="Rectangle_365" data-name="Rectangle 365" width="31.739" height="20.63" transform="translate(117.294 91.883)" fill="#fff"/>
  <rect id="Rectangle_366" data-name="Rectangle 366" width="31.739" height="20.63" transform="translate(156.732 91.883)" fill="#fff"/>
  <rect id="Rectangle_367" data-name="Rectangle 367" width="31.739" height="20.63" transform="translate(196.169 91.883)" fill="#fff"/>
  <rect id="Rectangle_368" data-name="Rectangle 368" width="31.739" height="20.63" transform="translate(235.607 91.883)" fill="#fff"/>
  <circle id="Ellipse_144" data-name="Ellipse 144" cx="4.761" cy="4.761" r="4.761" transform="translate(146.299 15.869)" fill="#fff"/>
  <circle id="Ellipse_145" data-name="Ellipse 145" cx="4.761" cy="4.761" r="4.761" transform="translate(225.01 15.869)" fill="#fff"/>
  <rect id="Rectangle_369" data-name="Rectangle 369" width="3.809" height="21.9" transform="translate(149.155)" fill="#e6e6e6"/>
  <rect id="Rectangle_370" data-name="Rectangle 370" width="3.809" height="21.9" transform="translate(227.867)" fill="#e6e6e6"/>
  <path id="Path_230" data-name="Path 230" d="M947.713,302.408a7.157,7.157,0,1,1-1.109-3.834A7.157,7.157,0,0,1,947.713,302.408Z" transform="translate(-689.059 -258.608)" fill="#a247cb"/>
  <path id="Path_231" data-name="Path 231" d="M953.628,303.5l-7.065,7.064c-.444-.687-2.918-3.882-2.918-3.882a10.021,10.021,0,0,1,1.013-.894l2.051,2.735,6.091-6.092A7.148,7.148,0,0,1,953.628,303.5Z" transform="translate(-696.084 -263.539)" fill="#fff"/>
  <path id="Path_232" data-name="Path 232" d="M696.922,395.25a7.157,7.157,0,1,1-1.109-3.834A7.157,7.157,0,0,1,696.922,395.25Z" transform="translate(-517.143 -322.252)" fill="#a247cb"/>
  <path id="Path_233" data-name="Path 233" d="M702.838,396.346l-7.065,7.064c-.444-.687-2.918-3.882-2.918-3.882a10.014,10.014,0,0,1,1.013-.894l2.051,2.735,6.091-6.091A7.146,7.146,0,0,1,702.838,396.346Z" transform="translate(-524.168 -327.182)" fill="#fff"/>
  <path id="Path_234" data-name="Path 234" d="M571.526,395.25a7.157,7.157,0,1,1-1.109-3.834A7.157,7.157,0,0,1,571.526,395.25Z" transform="translate(-431.185 -322.251)" fill="#a247cb"/>
  <path id="Path_235" data-name="Path 235" d="M577.442,396.346l-7.065,7.064c-.444-.687-2.918-3.882-2.918-3.882a10,10,0,0,1,1.013-.894l2.051,2.735,6.092-6.091a7.15,7.15,0,0,1,.827,1.069Z" transform="translate(-438.211 -327.182)" fill="#fff"/>
</svg>
