<svg xmlns="http://www.w3.org/2000/svg" width="1083.139" height="655.399" viewBox="0 0 1083.139 655.399">
  <g id="Group_130" data-name="Group 130" transform="translate(-16.982 -64.124)">
    <path id="Path_1567" data-name="Path 1567" d="M575.89,632c.62,8,3.7,16.28,10.18,21s16.79,4.63,21.74-1.71a24.321,24.321,0,0,0,3.61-7.85c4.17-13.18,7.13-27.6,2.56-40.65-10.31-.67-22.26-5.52-30,3C577.73,612.73,575.17,622.75,575.89,632Z" transform="translate(-49.94 -84.01)" fill="#3f3d56"/>
    <path id="Path_1568" data-name="Path 1568" d="M623.75,551.37c-1.37,11.63-3.7,23.21-3.46,34.92.09,4.52.57,9,.58,13.54a66.74,66.74,0,0,1-9,33.57,11.261,11.261,0,0,1-2.46,3.18c-2.37,1.92-5.94,1.76-8.6.29a16.919,16.919,0,0,1-6.11-6.63c-7.45-12.76-7.66-28.27-10.61-42.74-2.26-11.07-6.22-21.8-7.65-33-.93-7.21-.79-14.56-2.27-21.68-.45-2.15-1.71-5.38-2.54-8.55-.76-2.83-1.18-5.61-.4-7.52,1.59-3.91,6.8-2.39,10.19-2.15a234.575,234.575,0,0,0,35.86-.09c1.18-.09,2.52-.14,3.35.7a4.121,4.121,0,0,1,.8,1.45,48.525,48.525,0,0,1,2.17,8C625.25,533.37,624.79,542.5,623.75,551.37Z" transform="translate(-49.94 -84.01)" fill="#fabdbd"/>
    <g id="Group_125" data-name="Group 125" opacity="0.1">
      <path id="Path_1569" data-name="Path 1569" d="M619.15,514.51a8.808,8.808,0,0,0-1.85,0c-5.72.46-11.45.69-17.17.72Q609.64,515.25,619.15,514.51Z" transform="translate(-49.94 -84.01)"/>
      <path id="Path_1570" data-name="Path 1570" d="M602.83,636.87a16.92,16.92,0,0,1-6.11-6.63c-7.45-12.76-7.66-28.27-10.61-42.74-2.26-11.07-6.22-21.8-7.65-33-.93-7.21-.79-14.56-2.27-21.68-.45-2.15-1.71-5.38-2.54-8.55-.76-2.83-1.18-5.61-.4-7.52a4.26,4.26,0,0,1,4-2.6c-2.53-.17-5,.13-6,2.6-.78,1.91-.36,4.69.4,7.52.83,3.17,2.09,6.4,2.54,8.55,1.48,7.12,1.34,14.47,2.27,21.68,1.43,11.21,5.39,21.94,7.65,33,2.95,14.47,3.16,30,10.61,42.74a16.92,16.92,0,0,0,6.11,6.63,8.88,8.88,0,0,0,5.24,1.06,9.22,9.22,0,0,1-3.24-1.06Z" transform="translate(-49.94 -84.01)"/>
    </g>
    <path id="Path_1571" data-name="Path 1571" d="M661.56,612.7c-6,12-5,29-5,29,1,40-15,124-15,124h-14s-2-93,0-101-1-36-4-75c-2.23-29,3.84-55.28,7.1-66.81,1.12-4,1.9-6.19,1.9-6.19s23-34,36-18c3,3.72,4.59,11.23,5.14,20.71C675.48,550.69,666.16,603.49,661.56,612.7Z" transform="translate(-49.94 -84.01)" fill="#fabdbd"/>
    <path id="Path_1572" data-name="Path 1572" d="M673.7,519.41c-.55-9.48-2.12-17-5.14-20.71-2.9-3.56-6.3-4.64-9.82-4.17a10.66,10.66,0,0,1,6.82,4.17c3,3.72,4.59,11.23,5.14,20.71,1.78,31.28-7.54,84.08-12.14,93.29-6,12-5,29-5,29,1,40-15,124-15,124h3s16-84,15-124c0,0-1-17,5-29C666.16,603.49,675.48,550.69,673.7,519.41Z" transform="translate(-49.94 -84.01)" opacity="0.1"/>
    <path id="Path_1573" data-name="Path 1573" d="M620.28,762.05a13,13,0,0,0-2.86,3.12c-1.79,3.38.75,7.42,3.47,10.11s6,5.57,6,9.4c0,3.08-2.33,5.72-4.94,7.36-1.4.88-3.16,2-2.87,3.66a3.44,3.44,0,0,0,.53,1.17c2.24,3.43,6.21,5.44,10.23,6.2s8.17.43,12.26.1a2.47,2.47,0,0,0,1.68-.58,2.279,2.279,0,0,0,.45-1.38c.2-2.12.07-4.36,1-6.27,1.3-2.61,4.29-3.94,6-6.28,2.4-3.2,2.07-7.65,1.16-11.54-2-8.47-6.45-18.13-13.13-24C631.52,746.38,625.45,757.18,620.28,762.05Z" transform="translate(-49.94 -84.01)" fill="#3f3d56"/>
    <path id="Path_1574" data-name="Path 1574" d="M650.58,258c5.58-8.34,4.13-20-1.57-28.3s-14.86-13.52-24.31-16.89c-12.74-4.54-26.79-6.09-39.88-2.68-10.42,2.71-19.78,8.38-29.6,12.76a127.29,127.29,0,0,1-55.28,11c-21.11-.59-44.24-6-61.95,5.54-32.42,21.09-18,78.49-48.67,102-8.27,6.34-18.68,9.11-27.88,14s-17.92,13.4-17.7,23.82c.1,5,2.3,9.77,5,14,11.5,18.23,33,29.51,54.53,29.3s42.54-11.66,54.95-29.28c3.11-4.41,5.85-9.32,10.36-12.26,9-5.9,20.86-1.77,31.6-.89,23.91,1.95,47.83-16,52.59-39.55,2-10.05,1.65-22.06,9.74-28.37,6.53-5.09,15.72-4,24-4.87,15.14-1.57,27.09-11,35.31-23.32,3.77-5.65,4.21-12.4,9.35-16.85C636.71,262.27,645.28,265.88,650.58,258Z" transform="translate(-49.94 -84.01)" fill="#3f3d56"/>
    <g id="Group_126" data-name="Group 126" opacity="0.1">
      <path id="Path_1575" data-name="Path 1575" d="M479.94,235.82a126.769,126.769,0,0,0,26.17-2c-2.38.07-4.78.07-7.17,0-16.57-.46-34.38-3.88-49.84.24C459.3,234.16,469.85,235.54,479.94,235.82Z" transform="translate(-49.94 -84.01)"/>
      <path id="Path_1576" data-name="Path 1576" d="M448.56,383c-4.51,2.94-7.25,7.85-10.36,12.26a70.25,70.25,0,0,1-39.47,27.21c1.17.05,2.34.08,3.52.07,21.55-.21,42.54-11.66,54.95-29.28,3.11-4.41,5.85-9.32,10.36-12.26l.78-.48C461.28,379.55,454.35,379.21,448.56,383Z" transform="translate(-49.94 -84.01)"/>
      <path id="Path_1577" data-name="Path 1577" d="M648,229.67c-5.69-8.26-14.86-13.52-24.31-16.89-12.74-4.54-26.79-6.09-39.88-2.68-.3.07-.59.16-.88.24a76.551,76.551,0,0,1,21.76,4.44c9.45,3.37,18.62,8.63,24.31,16.89s7.15,20,1.57,28.3c-5.3,7.91-13.87,4.3-19.48,9.17-5.14,4.45-5.58,11.2-9.35,16.85-7.07,10.57-16.91,19-29.16,22.2,4.21-.5,8.65-.44,12.85-.88,15.14-1.57,27.09-11,35.31-23.32,3.77-5.65,4.21-12.4,9.35-16.85,5.61-4.87,14.18-1.26,19.48-9.17C655.16,249.63,653.71,237.93,648,229.67Z" transform="translate(-49.94 -84.01)"/>
      <path id="Path_1578" data-name="Path 1578" d="M566.44,309.31c-8.23.86-17.42-.22-24,4.87-8.09,6.31-7.7,18.32-9.74,28.37-3.51,17.57-17.77,32.06-34.7,37.45l1.19.11c23.91,1.95,47.83-16,52.59-39.55,2-10.05,1.65-22.06,9.74-28.37a18.061,18.061,0,0,1,6.21-3C567.28,309.2,566.87,309.27,566.44,309.31Z" transform="translate(-49.94 -84.01)"/>
    </g>
    <path id="Path_1579" data-name="Path 1579" d="M808.06,222.2s-24,48-32,66-81,45-91,46a12.88,12.88,0,0,0-7.14,3.44c-5.65,5-8.86,13.56-8.86,13.56s4,27-1,72c-.1.87-.19,1.74-.27,2.58-4.36,42.82,4.77,52.92,4.77,52.92s-97,37-94-11c.94-15.11.8-26.15-.13-35.38a148.571,148.571,0,0,0-5.74-27.86c-2.37-8.29-5.2-17.38-8.13-29.76A130.54,130.54,0,0,0,559,356.55c-.07-.18-.14-.36-.2-.53-5-12.41-10-16.42-12.86-17.72a43.231,43.231,0,0,1-7.68-4.32c-9.24-6.67-29.07-21.62-46.73-39.28-24-24-48-81-48-81s-7-33,9-60,9,53,9,53,29,39,36,57c3.6,9.26,9.32,14,14,16.46A166,166,0,0,1,533.67,294a129.293,129.293,0,0,0,14.89,9.72c11.18,6,24.57,12.77,35.73,14.55a33.694,33.694,0,0,0,5.27.45,5.46,5.46,0,0,0,4.4-2c3-3.53,2.93-11.13,2.24-17.38a88.327,88.327,0,0,0-1.64-9.63s32.5-20.5,31.5,4.5a27.942,27.942,0,0,0,.76,8.22,14.25,14.25,0,0,0,9.69,10.6,24,24,0,0,0,12,.39,11.73,11.73,0,0,0,3.54-1.21c3-2,33-11,42-12s54-23,54-23l49-68s-1-40,19-56S808.06,222.2,808.06,222.2Z" transform="translate(-49.94 -84.01)" fill="#fabdbd"/>
    <g id="Group_127" data-name="Group 127" opacity="0.1">
      <path id="Path_1580" data-name="Path 1580" d="M667.79,419.78a199.375,199.375,0,0,0-1.15,24.2c.1-5.28.45-11.31,1.15-18.2.08-.84.17-1.71.27-2.58a392.156,392.156,0,0,0,2.5-46.39,401.7,401.7,0,0,1-2.5,40.39C668,418.07,667.87,418.94,667.79,419.78Z" transform="translate(-49.94 -84.01)"/>
      <path id="Path_1581" data-name="Path 1581" d="M595.6,289.07c-.67.39-1,.63-1,.63a85.657,85.657,0,0,1,1.92,13,61.335,61.335,0,0,0-.92-13.63Z" transform="translate(-49.94 -84.01)"/>
      <path id="Path_1582" data-name="Path 1582" d="M462,201.27c.49-7,1.22-19.55,1.08-30.71-.17,14.92-1.5,30.14-1.5,30.14Z" transform="translate(-49.94 -84.01)"/>
      <path id="Path_1583" data-name="Path 1583" d="M578.63,466.53a6.566,6.566,0,0,1-.07,1.17c-3,48,94,11,94,11a16.28,16.28,0,0,1-2.53-5.08C655.42,478.82,582,503,578.63,466.53Z" transform="translate(-49.94 -84.01)"/>
      <path id="Path_1584" data-name="Path 1584" d="M808.06,216.2s-24,48-32,66-81,45-91,46a12.88,12.88,0,0,0-7.14,3.44c-5.65,5-8.86,13.56-8.86,13.56s.24,1.63.53,4.73c1.12-2.57,4-8.47,8.33-12.29a12.88,12.88,0,0,1,7.14-3.44c10-1,83-28,91-46s32-66,32-66,16.91-51.35,15.05-66.71C821.57,175.17,808.06,216.2,808.06,216.2Z" transform="translate(-49.94 -84.01)"/>
      <path id="Path_1585" data-name="Path 1585" d="M578.43,426.32a148.571,148.571,0,0,0-5.74-27.86c-2.37-8.29-5.2-17.38-8.13-29.76A130.548,130.548,0,0,0,559,350.55c-.07-.18-.14-.36-.2-.53-5-12.41-10-16.42-12.86-17.72a43.231,43.231,0,0,1-7.68-4.32c-9.24-6.67-29.07-21.62-46.73-39.28-24-24-48-81-48-81a90.418,90.418,0,0,1-1.48-14.58,96.4,96.4,0,0,0,1.48,20.58s24,57,48,81c17.66,17.66,37.49,32.61,46.73,39.28A43.225,43.225,0,0,0,546,338.3c2.85,1.3,7.84,5.31,12.86,17.72.06.17.13.35.2.53a130.526,130.526,0,0,1,5.53,18.15c2.93,12.38,5.76,21.47,8.13,29.76a148.571,148.571,0,0,1,5.74,27.86c.42,4.18.67,8.73.74,13.85A174.177,174.177,0,0,0,578.43,426.32Z" transform="translate(-49.94 -84.01)"/>
    </g>
    <path id="Path_1586" data-name="Path 1586" d="M677.47,382.88a59.56,59.56,0,0,0-4,7.88c-1.51,4.2-1.52,8.77-1.8,13.22a106.143,106.143,0,0,1-2.84,18.52,20.484,20.484,0,0,1-1,3.28,8.665,8.665,0,0,1-1.17,2,8.53,8.53,0,0,1-1.86,1.69,21.821,21.821,0,0,1-3.39,1.85c-13.92,6.5-29.1,12.24-44.29,10a64.451,64.451,0,0,1-18.43-6.2c-5.5-2.67-11.72-5.84-17.42-3.62h0a8.77,8.77,0,0,1-2.79.87,2.65,2.65,0,0,1-.56-.05c-1.88-.36-1.88-6.7-2.31-8.57-1.64-7.18-1.89-13-2.87-19.24a63.132,63.132,0,0,0-2.41-10.17c-4-12.1-5.21-25-5.21-37.68,0-.63-4.5,0-6-.06-.38,0-.59-.06-.5-.19a2,2,0,0,1,.3-.34,4.569,4.569,0,0,1,1.79-.89l1.18-.35c6.18-1.75,13-2.48,17.62-6.83,4.8-4.49,6-11.66,5.79-18.22-.06-2.11-1.09-7.23-.92-11.48a33.691,33.691,0,0,0,5.27.45,5.46,5.46,0,0,0,4.4-2,79,79,0,0,1,4.32,10c1.7,4.18,3,8.58,5.49,12.36,4,6.16,11.38,10.21,18.72,9.59s14.17-6.26,15.48-13.5c1.15-6.35-1.52-15.49-1.46-22.09a24,24,0,0,0,12,.39,10.843,10.843,0,0,1,.43,1.25c2.25,7.72,5.25,16.58,12.8,19.32,4.88,1.76,10.65.44,15.16,3a9.722,9.722,0,0,1,1,.66,11.071,11.071,0,0,1,2.65,2.81,22.59,22.59,0,0,1,3.21,10.08A55.92,55.92,0,0,1,677.47,382.88Z" transform="translate(-49.94 -84.01)" fill="#a247cb"/>
    <path id="Path_1587" data-name="Path 1587" d="M626.82,302.42a34.08,34.08,0,0,1-30.62-3.09,88.312,88.312,0,0,0-1.64-9.63s32.5-20.5,31.5,4.5A27.942,27.942,0,0,0,626.82,302.42Z" transform="translate(-49.94 -84.01)" opacity="0.1"/>
    <circle id="Ellipse_435" data-name="Ellipse 435" cx="34" cy="34" r="34" transform="translate(530.61 150.69)" fill="#fabdbd"/>
    <path id="Path_1588" data-name="Path 1588" d="M555.06,353.2s66-42,271,3,324,9,324,9v47s-230,25-318,0-213.27-39.42-257.14-.71Z" transform="translate(-49.94 -84.01)" fill="#f86d70"/>
    <path id="Path_1589" data-name="Path 1589" d="M555.06,353.2s66-42,271,3,324,9,324,9v47s-230,25-318,0-213.27-39.42-257.14-.71Z" transform="translate(-49.94 -84.01)" opacity="0.1"/>
    <path id="Path_1590" data-name="Path 1590" d="M557.06,355.2s64-42,269,3,322,9,322,9l1,43s-228,25-316,0-212.27-42.42-256.14-3.71Z" transform="translate(-49.94 -84.01)" fill="#f86d70"/>
    <path id="Path_1591" data-name="Path 1591" d="M533,419.8s-66,42-271-3-195-9-195-9v-47s101-25,189,0,213.27,39.42,257.14.71Z" transform="translate(-49.94 -84.01)" fill="#f86d70"/>
    <path id="Path_1592" data-name="Path 1592" d="M533,419.8s-66,42-271-3-195-9-195-9v-47s101-25,189,0,213.27,39.42,257.14.71Z" transform="translate(-49.94 -84.01)" opacity="0.1"/>
    <path id="Path_1593" data-name="Path 1593" d="M531,417.8s-64,42-269-3-193-9-193-9l-1-43s99-25,187,0,212.27,42.42,256.14,3.71Z" transform="translate(-49.94 -84.01)" fill="#f86d70"/>
    <path id="Path_1594" data-name="Path 1594" d="M585.31,274.33c-1-6.24-2.54-14.1,2.68-17.67a11.1,11.1,0,0,1,6.19-1.6c10.81-.11,21.14,7.42,31.74,5.22a17.89,17.89,0,0,0,7-31.87c-4.17-3.1-9.44-4.22-14.54-5.27-13.41-2.76-27.41-5.51-40.65-2s-25.34,15.38-24.28,29c.5,6.52,3.82,12.44,7.29,18,2.64,4.22,12.92,24,17.91,24.3C585.69,292.85,586,278.41,585.31,274.33Z" transform="translate(-49.94 -84.01)" fill="#3f3d56"/>
    <path id="Path_1595" data-name="Path 1595" d="M669.56,461.7s-69,17-92,0c0,0-10,39-7,59,0,0,49,3,54,6,0,0,1-8,6-4,0,0,17-20,48-2C678.56,520.7,684.56,473.7,669.56,461.7Z" transform="translate(-49.94 -84.01)" fill="#a247cb"/>
    <path id="Path_1596" data-name="Path 1596" d="M632.94,228.41a19.839,19.839,0,0,0-2.23-1.4,17.85,17.85,0,0,1-9.79,29.27c-10.6,2.2-20.93-5.33-31.74-5.22a11.1,11.1,0,0,0-6.19,1.6c-5.22,3.57-3.69,11.43-2.69,17.67.66,4.08.39,18.52-6.63,18.13h-.12c1.93,2.35,3.73,3.94,5.12,4,7,.39,7.29-14,6.63-18.13-1-6.24-2.53-14.1,2.69-17.67a11.1,11.1,0,0,1,6.19-1.6c10.81-.11,21.14,7.42,31.74,5.22a17.89,17.89,0,0,0,7-31.87Z" transform="translate(-49.94 -84.01)" opacity="0.1"/>
  </g>
</svg>
