<svg xmlns="http://www.w3.org/2000/svg" xmlns:xlink="http://www.w3.org/1999/xlink" width="350" height="350" viewBox="0 0 350 350">
  <defs>
    <filter id="Ellipse_254" x="0" y="0" width="350" height="350" filterUnits="userSpaceOnUse">
      <feOffset input="SourceAlpha"/>
      <feGaussianBlur stdDeviation="5" result="blur"/>
      <feFlood flood-color="#a247cb"/>
      <feComposite operator="in" in2="blur"/>
      <feComposite in="SourceGraphic"/>
    </filter>
  </defs>
  <g id="Group_52" data-name="Group 52" transform="translate(-16 -73)">
    <g transform="matrix(1, 0, 0, 1, 16, 73)" filter="url(#Ellipse_254)">
      <g id="Ellipse_254-2" data-name="Ellipse 254" transform="translate(15 15)" fill="#fff" stroke="#707070" stroke-width="1">
        <circle cx="160" cy="160" r="160" stroke="none"/>
        <circle cx="160" cy="160" r="159.5" fill="none"/>
      </g>
    </g>
    <g id="Group_42" data-name="Group 42" transform="translate(63.656 88.432)">
      <path id="Path_414" data-name="Path 414" d="M475.691,766.08c0,8.212-55.6,26.926-124.18,26.926s-124.18-18.714-124.18-26.926,55.6-2.813,124.18-2.813S475.691,757.868,475.691,766.08Z" transform="translate(-227.331 -522.433)" fill="#3f3d56"/>
      <path id="Path_415" data-name="Path 415" d="M475.691,766.08c0,8.212-55.6,26.926-124.18,26.926s-124.18-18.714-124.18-26.926,55.6-2.813,124.18-2.813S475.691,757.868,475.691,766.08Z" transform="translate(-227.331 -522.433)" opacity="0.1"/>
      <circle id="Ellipse_210" data-name="Ellipse 210" cx="5.224" cy="5.224" r="5.224" transform="translate(30.141 123.888)" fill="#a247cb"/>
      <circle id="Ellipse_211" data-name="Ellipse 211" cx="5.224" cy="5.224" r="5.224" transform="translate(53.048 166.888)" fill="#a247cb"/>
      <circle id="Ellipse_212" data-name="Ellipse 212" cx="5.224" cy="5.224" r="5.224" transform="translate(35.365 156.038)" fill="#a247cb"/>
      <path id="Path_416" data-name="Path 416" d="M347.61,545.414c-.092-.151-2.267-3.782-3.021-11.322-.692-6.917-.247-18.577,5.8-34.842,11.456-30.812-2.64-55.673-2.784-55.921l.7-.4a61.713,61.713,0,0,1,5.823,16.495,71.961,71.961,0,0,1-2.98,40.11c-11.436,30.76-2.934,45.321-2.847,45.465Z" transform="translate(-305.354 -309.997)" fill="#cfcce0"/>
      <path id="Path_417" data-name="Path 417" d="M329.441,417.4a5.626,5.626,0,1,1,5.626-5.626A5.626,5.626,0,0,1,329.441,417.4Zm0-10.449a4.823,4.823,0,1,0,4.823,4.823A4.822,4.822,0,0,0,329.441,406.948Z" transform="translate(-291.665 -285.471)" fill="#cfcce0"/>
      <circle id="Ellipse_213" data-name="Ellipse 213" cx="5.224" cy="5.224" r="5.224" transform="translate(49.029 140.365)" fill="#cfcce0"/>
      <path id="Path_418" data-name="Path 418" d="M345.12,513.88a5.626,5.626,0,1,1,5.626-5.626A5.626,5.626,0,0,1,345.12,513.88Zm0-10.449a4.823,4.823,0,1,0,4.823,4.823,4.822,4.822,0,0,0-4.823-4.823Z" transform="translate(-302.119 -349.805)" fill="#cfcce0"/>
      <path id="Path_419" data-name="Path 419" d="M386.126,546.444a5.626,5.626,0,1,1,5.626-5.626A5.626,5.626,0,0,1,386.126,546.444Zm0-10.449a4.823,4.823,0,1,0,4.822,4.822A4.822,4.822,0,0,0,386.126,535.995Z" transform="translate(-329.461 -371.518)" fill="#cfcce0"/>
      <circle id="Ellipse_214" data-name="Ellipse 214" cx="5.224" cy="5.224" r="5.224" transform="translate(33.758 180.954)" fill="#cfcce0"/>
      <path id="Path_420" data-name="Path 420" d="M361.942,706.04s-5.224-12.86,10.449-22.505Z" transform="translate(-316.53 -470.431)" fill="#cfcce0"/>
      <path id="Path_421" data-name="Path 421" d="M302.75,723.241s-2.378-13.676-20.78-13.558Z" transform="translate(-263.763 -487.866)" fill="#cfcce0"/>
      <path id="Path_422" data-name="Path 422" d="M732.189,676.661H643.264s-1.8-26.437,8.862-26.737,9.463,11.716,22.832-4.807,29.591-15.622,31.694-5.858-4.056,17.575,7.21,15.171S741.352,658.335,732.189,676.661Z" transform="translate(-504.592 -436.23)" fill="#a247cb"/>
      <path id="Path_423" data-name="Path 423" d="M771.823,676.357l-.3-.012c.7-17.406,4.345-28.589,7.28-34.906,3.187-6.859,6.257-9.635,6.288-9.663l.2.225c-.03.027-3.065,2.776-6.226,9.588C776.146,647.879,772.52,659.016,771.823,676.357Z" transform="translate(-590.189 -435.919)" fill="#f2f2f2"/>
      <path id="Path_424" data-name="Path 424" d="M868.432,726.444l-.288-.084a46.6,46.6,0,0,1,11.733-19.52l.2.222A46.286,46.286,0,0,0,868.432,726.444Z" transform="translate(-654.614 -485.97)" fill="#f2f2f2"/>
      <path id="Path_425" data-name="Path 425" d="M669.749,713.261l-.3-.041a32.719,32.719,0,0,0-2.943-19.125,26.333,26.333,0,0,0-4.645-6.778l.208-.217a26.661,26.661,0,0,1,4.706,6.861A33.019,33.019,0,0,1,669.749,713.261Z" transform="translate(-517.07 -472.808)" fill="#f2f2f2"/>
      <path id="Path_426" data-name="Path 426" d="M724.935,655.266H614.351l-.026-.375c-.064-.932-1.474-22.913,5.648-30.756a7.8,7.8,0,0,1,5.7-2.735c4.643-.132,7.56,1.607,9.913,3,4.435,2.631,7.365,4.37,18.019-8.8,11.541-14.264,23.993-17.333,31.152-15.627a11.111,11.111,0,0,1,8.746,8.551,37.947,37.947,0,0,1,.376,11.052c-.242,3.313-.433,5.93.928,7.116,1.136.99,3.4,1.08,7.135.283,7.591-1.619,18.182-.234,23.5,6.635,2.86,3.7,5.113,10.413-.394,21.428Zm-109.83-.8H724.438c4.1-8.327,4.232-15.361.367-20.354-4.877-6.3-15.108-7.96-22.7-6.341-4.055.865-6.47.722-7.831-.463-1.664-1.45-1.46-4.244-1.2-7.781a37.278,37.278,0,0,0-.36-10.825,10.334,10.334,0,0,0-8.147-7.938c-6.93-1.653-19.034,1.377-30.34,15.35-11.09,13.707-14.431,11.726-19.054,8.983-2.382-1.413-5.087-3.015-9.481-2.891a7.026,7.026,0,0,0-5.128,2.472C614.167,631.724,614.949,651.491,615.105,654.462Z" transform="translate(-485.269 -414.433)" fill="#cfcce0"/>
      <ellipse id="Ellipse_215" data-name="Ellipse 215" cx="124.18" cy="14.869" rx="124.18" ry="14.869" transform="translate(0 228.777)" fill="#3f3d56"/>
      <path id="Path_427" data-name="Path 427" d="M567.377,188.382s-6.208-2.217-10.2,6.652a174.874,174.874,0,0,1-10.2,18.624l3.547.887s.887-6.208,3.1-7.1l-.887,7.982s26.606,9.312,38.579-.887l-.443-3.1s1.774.443,1.774,3.1l1.33-1.33a23.831,23.831,0,0,0-5.321-6.208c-2.619-2.328-3.52-6.758-3.829-9.528a11.531,11.531,0,0,0-2.654-6.279C579.526,188.126,574.694,184.86,567.377,188.382Z" transform="translate(-440.467 -139.254)" fill="#2f2e41"/>
      <path id="Path_428" data-name="Path 428" d="M548.334,178.32l-6.43-8.038-4.822-16.477,18.486-19.692s4.019-15.271.4-14.468-4.421,12.056-4.421,12.056L528.24,149.787s2.411,25.318,9.243,34.159l5.224,16.477Z" transform="translate(-427.972 -94.419)" fill="#ffb9b9"/>
      <path id="Path_429" data-name="Path 429" d="M623.309,178.32l6.43-8.038,4.823-16.477-18.486-19.692s-4.019-15.271-.4-14.468,4.421,12.056,4.421,12.056L643.4,149.787s-2.411,25.318-9.243,34.159l-5.224,16.477Z" transform="translate(-485.264 -94.419)" fill="#ffb9b9"/>
      <circle id="Ellipse_216" data-name="Ellipse 216" cx="10.449" cy="10.449" r="10.449" transform="translate(118.754 56.172)" fill="#ffb9b9"/>
      <path id="Path_430" data-name="Path 430" d="M592.587,260.815s.4,8.439-2.009,11.253-4.822,17.281,6.832,17.683,10.449-12.056,10.449-12.056l-2.411-6.832s-3.617-5.224-2.411-10.047Z" transform="translate(-468.206 -188.569)" fill="#ffb9b9"/>
      <path id="Path_431" data-name="Path 431" d="M565.627,541.824l8.64,2.612s7.033-4.22,7.033-.2-2.411,9.243-1.608,12.86,2.411,12.458,0,12.458-7.234-15.673-7.234-15.673l-8.038-4.421Z" transform="translate(-452.097 -375.941)" fill="#ffb9b9"/>
      <path id="Path_432" data-name="Path 432" d="M591.668,710.671l-3.215,12.458s-2.813,3.617,0,5.224a8.164,8.164,0,0,1,2.94,3.739,6.873,6.873,0,0,0,6.749,4.083c1.372-.114,2.527-.656,2.808-2.065a3.233,3.233,0,0,0-.622-2.532,21.711,21.711,0,0,1-3.636-6.64l1.206-14.066Z" transform="translate(-467.287 -488.525)" fill="#ffb9b9"/>
      <path id="Path_433" data-name="Path 433" d="M576.362,220.217s3.548-4.878,6.652-5.765,3.548-5.321,3.548-5.321,7.982,8.869,12.86,9.312.443-10.643.443-10.643L591,205.584l-8.425.887-6.652,4.434Z" transform="translate(-459.763 -151.741)" fill="#2f2e41"/>
      <path id="Path_434" data-name="Path 434" d="M482.02,441.607l-1.608,3.215s-38.982,12.458-35.767,24.113,21.3,8.439,21.3,8.439l20.094,3.617,2.009-8.841-14.066-3.617,24.113-8.841.8,40.991-3.215,29.337,8.038.8s8.841-26.926,7.636-38.178c0,0,14.869-45.814,6.43-52.646S482.02,441.607,482.02,441.607Z" transform="translate(-372.107 -306.266)" fill="#2f2e41"/>
      <path id="Path_435" data-name="Path 435" d="M573.73,295.313l-6.271-7.579-4.247,1.947-4.421,14.066a14.935,14.935,0,0,0,.8,14.066s.8,4.823-.4,6.028-1.607,8.841-1.607,8.841l-5.224,10.047s29.739,5.224,38.58-2.009c0,0-4.639-17.1-1.826-22.329s3.215-13.233,0-16.85-6.613-13.065-6.613-13.065l-1.946-1.245Z" transform="translate(-444.056 -206.182)" fill="#cfcce0"/>
      <path id="Path_436" data-name="Path 436" d="M443.389,79.707h-3.854V75.853h-.35v3.854H435.33v.35h3.854v3.854h.35V80.058h3.854Z" transform="translate(-290.271 -50.577)" fill="#cfcce0"/>
      <path id="Path_437" data-name="Path 437" d="M333.457,55.522H329.6V51.668h-.35v3.854H325.4v.35h3.854v3.854h.35V55.873h3.854Z" transform="translate(-216.97 -34.451)" fill="#cfcce0"/>
      <path id="Path_438" data-name="Path 438" d="M386.224,3.854H382.37V0h-.351V3.854h-3.854V4.2h3.854V8.059h.351V4.2h3.854Z" transform="translate(-252.154)" fill="#cfcce0"/>
    </g>
  </g>
</svg>
