<svg id="Group_100" data-name="Group 100" xmlns="http://www.w3.org/2000/svg" width="745.338" height="812" viewBox="0 0 745.338 812">
  <path id="Path_1051" data-name="Path 1051" d="M972.669,775.195C972.669,799.84,805.819,856,600,856s-372.669-56.16-372.669-80.805,166.85-8.442,372.669-8.442S972.669,750.55,972.669,775.195Z" transform="translate(-227.331 -44)" fill="#3f3d56"/>
  <path id="Path_1052" data-name="Path 1052" d="M972.669,775.195C972.669,799.84,805.819,856,600,856s-372.669-56.16-372.669-80.805,166.85-8.442,372.669-8.442S972.669,750.55,972.669,775.195Z" transform="translate(-227.331 -44)" opacity="0.1"/>
  <circle id="Ellipse_360" data-name="Ellipse 360" cx="15.679" cy="15.679" r="15.679" transform="translate(90.454 371.792)" fill="#a247cb"/>
  <circle id="Ellipse_361" data-name="Ellipse 361" cx="15.679" cy="15.679" r="15.679" transform="translate(159.198 500.84)" fill="#a247cb"/>
  <circle id="Ellipse_362" data-name="Ellipse 362" cx="15.679" cy="15.679" r="15.679" transform="translate(106.132 468.276)" fill="#a247cb"/>
  <path id="Path_1053" data-name="Path 1053" d="M354.143,750.5c-.277-.452-6.8-11.349-9.065-33.977-2.075-20.76-.741-55.751,17.406-104.562,34.379-92.469-7.923-167.078-8.355-167.821l2.087-1.211c.11.188,11.025,19.211,17.474,49.5A215.957,215.957,0,0,1,364.745,612.8c-34.321,92.311-8.805,136.01-8.544,136.441Z" transform="translate(-227.331 -44)" fill="#cfcce0"/>
  <path id="Path_1054" data-name="Path 1054" d="M340.7,439.913a16.885,16.885,0,1,1,16.885-16.885A16.885,16.885,0,0,1,340.7,439.913Zm0-31.357a14.473,14.473,0,1,0,14.473,14.473A14.473,14.473,0,0,0,340.7,408.556Z" transform="translate(-227.331 -44)" fill="#cfcce0"/>
  <circle id="Ellipse_363" data-name="Ellipse 363" cx="15.679" cy="15.679" r="15.679" transform="translate(147.138 421.24)" fill="#cfcce0"/>
  <path id="Path_1055" data-name="Path 1055" d="M356.378,536.4a16.885,16.885,0,1,1,16.885-16.885A16.885,16.885,0,0,1,356.378,536.4Zm0-31.357a14.473,14.473,0,1,0,14.473,14.473,14.473,14.473,0,0,0-14.473-14.473Z" transform="translate(-227.331 -44)" fill="#cfcce0"/>
  <path id="Path_1056" data-name="Path 1056" d="M397.384,568.961a16.885,16.885,0,1,1,16.885-16.885,16.885,16.885,0,0,1-16.885,16.885Zm0-31.357a14.473,14.473,0,1,0,14.473,14.473A14.473,14.473,0,0,0,397.384,537.6Z" transform="translate(-227.331 -44)" fill="#cfcce0"/>
  <circle id="Ellipse_364" data-name="Ellipse 364" cx="15.679" cy="15.679" r="15.679" transform="translate(101.308 543.051)" fill="#cfcce0"/>
  <path id="Path_1057" data-name="Path 1057" d="M363.615,751.074s-15.679-38.594,31.357-67.539Z" transform="translate(-227.331 -44)" fill="#cfcce0"/>
  <path id="Path_1058" data-name="Path 1058" d="M344.332,750.374s-7.135-41.041-62.363-40.689Z" transform="translate(-227.331 -44)" fill="#cfcce0"/>
  <path id="Path_1059" data-name="Path 1059" d="M910.362,765.546H643.495s-5.409-79.339,26.6-80.24,28.4,35.161,68.52-14.425S827.416,624,833.727,653.3s-12.171,52.742,21.638,45.53S937.86,710.55,910.362,765.546Z" transform="translate(-227.331 -44)" fill="#a247cb"/>
  <path id="Path_1060" data-name="Path 1060" d="M772.423,765.564l-.9-.036c2.1-52.236,13.041-85.8,21.848-104.755,9.563-20.583,18.778-28.916,18.87-29l.6.674c-.091.081-9.2,8.331-18.685,28.775C785.4,680.1,774.516,713.525,772.423,765.564Z" transform="translate(-227.331 -44)" fill="#f2f2f2"/>
  <path id="Path_1061" data-name="Path 1061" d="M869.009,765.672l-.865-.252c10.422-35.772,34.964-58.357,35.211-58.581l.606.667C903.716,707.729,879.357,730.155,869.009,765.672Z" transform="translate(-227.331 -44)" fill="#f2f2f2"/>
  <path id="Path_1062" data-name="Path 1062" d="M685.527,765.608l-.893-.124c3.536-25.5-2.851-45.287-8.832-57.394-6.476-13.109-13.865-20.269-13.939-20.34l.624-.651c.075.072,7.578,7.342,14.123,20.591C682.647,719.912,689.095,739.88,685.527,765.608Z" transform="translate(-227.331 -44)" fill="#f2f2f2"/>
  <path id="Path_1063" data-name="Path 1063" d="M946.58,766.752H614.711l-.077-1.124c-.191-2.8-4.424-68.764,16.95-92.3,4.778-5.262,10.534-8.024,17.107-8.209,13.933-.4,22.688,4.822,29.75,9.011,13.311,7.9,22.1,13.113,54.076-26.4,34.635-42.808,72-52.018,93.488-46.9,13.88,3.31,23.447,12.663,26.247,25.662,2.651,12.309,1.807,23.875,1.128,33.168-.726,9.943-1.3,17.8,2.784,21.357,3.409,2.97,10.214,3.24,21.413.85,22.78-4.86,54.565-.7,70.52,19.912,8.584,11.09,15.345,31.249-1.183,64.306ZM616.975,764.34H945.087c12.317-24.988,12.7-46.1,1.1-61.084-14.636-18.91-45.341-23.887-68.109-19.029-12.168,2.6-19.418,2.168-23.5-1.39-4.993-4.351-4.381-12.735-3.606-23.351.668-9.14,1.5-20.514-1.08-32.485-2.6-12.055-11.508-20.738-24.448-23.823-20.8-4.962-57.123,4.132-91.053,46.067-33.282,41.135-43.308,35.19-57.181,26.96-7.149-4.24-15.266-9.049-28.452-8.675-5.892.166-11.07,2.662-15.39,7.419-19.21,21.154-16.865,80.473-16.394,89.391Z" transform="translate(-227.331 -44)" fill="#cfcce0"/>
  <ellipse id="Ellipse_365" data-name="Ellipse 365" cx="372.669" cy="44.624" rx="372.669" ry="44.624" transform="translate(0 686.571)" fill="#3f3d56"/>
  <path id="Path_1064" data-name="Path 1064" d="M608.195,191.438s-18.631-6.654-30.608,19.962-30.608,55.893-30.608,55.893l10.646,2.662s2.662-18.631,9.315-21.293l-2.662,23.954s79.847,27.946,115.778-2.662l-1.331-9.315s5.323,1.331,5.323,9.315l3.992-3.992s-3.992-7.985-15.969-18.631c-7.861-6.988-10.563-20.282-11.491-28.594a34.6,34.6,0,0,0-7.966-18.843C644.656,190.67,630.152,180.865,608.195,191.438Z" transform="translate(-227.331 -44)" fill="#2f2e41"/>
  <path id="Path_1065" data-name="Path 1065" d="M588.543,295.791l-19.3-24.121-14.473-49.448,55.478-59.1s12.06-45.83,1.206-43.418-13.267,36.181-13.267,36.181L528.24,210.161s7.236,75.981,27.739,102.514l15.679,49.448Z" transform="translate(-227.331 -44)" fill="#ffb9b9"/>
  <path id="Path_1066" data-name="Path 1066" d="M641.609,295.791l19.3-24.121,14.473-49.448-55.478-59.1s-12.06-45.83-1.206-43.418,13.267,36.181,13.267,36.181l69.951,54.272s-7.236,75.981-27.739,102.514l-15.679,49.448Z" transform="translate(-227.331 -44)" fill="#ffb9b9"/>
  <circle id="Ellipse_366" data-name="Ellipse 366" cx="31.357" cy="31.357" r="31.357" transform="translate(356.387 168.573)" fill="#ffb9b9"/>
  <path id="Path_1067" data-name="Path 1067" d="M600.6,260.815s1.206,25.327-6.03,33.769-14.473,51.86,20.5,53.066,31.357-36.181,31.357-36.181l-7.236-20.5s-10.854-15.679-7.236-30.151Z" transform="translate(-227.331 -44)" fill="#ffb9b9"/>
  <path id="Path_1068" data-name="Path 1068" d="M568.04,541.824l25.93,7.839s21.106-12.664,21.106-.6-7.236,27.739-4.824,38.594,7.236,37.388,0,37.388-21.709-47.036-21.709-47.036l-24.121-13.267Z" transform="translate(-227.331 -44)" fill="#ffb9b9"/>
  <path id="Path_1069" data-name="Path 1069" d="M600.6,710.671l-9.648,37.388s-8.442,10.854,0,15.679c3.961,2.264,6.861,6.917,8.822,11.22a20.628,20.628,0,0,0,20.255,12.254c4.116-.342,7.584-1.969,8.428-6.2a9.705,9.705,0,0,0-1.867-7.6c-8.9-12.022-10.913-19.926-10.913-19.926l3.618-42.212Z" transform="translate(-227.331 -44)" fill="#ffb9b9"/>
  <path id="Path_1070" data-name="Path 1070" d="M577.25,249.5s10.646-14.639,19.962-17.3,10.646-15.969,10.646-15.969,23.954,26.616,38.593,27.946,1.331-31.939,1.331-31.939l-26.616-6.654-25.285,2.662-19.962,13.308Z" transform="translate(-227.331 -44)" fill="#2f2e41"/>
  <path id="Path_1071" data-name="Path 1071" d="M557.185,450.165l-4.824,9.648S435.374,497.2,445.023,532.176,508.943,557.5,508.943,557.5l60.3,10.854,6.03-26.533L533.064,530.97l72.363-26.533,2.412,123.017L598.191,715.5l24.121,2.412s26.533-80.805,22.915-114.575c0,0,44.624-137.49,19.3-157.992S557.185,450.165,557.185,450.165Z" transform="translate(-227.331 -44)" fill="#2f2e41"/>
  <path id="Path_1072" data-name="Path 1072" d="M616.49,311.486l-18.819-22.743-12.747,5.842L571.658,336.8s-10.854,20.5,2.412,42.212c0,0,2.412,14.473-1.206,18.091s-4.824,26.533-4.824,26.533l-15.679,30.151s89.248,15.679,115.781-6.03c0,0-13.923-51.331-5.481-67.01s9.648-39.714,0-50.569-19.846-39.208-19.846-39.208l-5.841-3.736Z" transform="translate(-227.331 -44)" fill="#cfcce0"/>
  <path id="Path_1073" data-name="Path 1073" d="M459.515,87.42H447.948V75.853H446.9V87.42H435.33v1.051H446.9v11.567h1.051V88.471h11.567Z" fill="#cfcce0"/>
  <path id="Path_1074" data-name="Path 1074" d="M349.583,63.235H338.016V51.668h-1.051V63.235H325.4v1.051h11.567V75.853h1.051V64.286h11.567Z" fill="#cfcce0"/>
  <path id="Path_1075" data-name="Path 1075" d="M402.35,11.567H390.784V0h-1.052V11.567H378.165v1.051h11.567V24.185h1.052V12.618H402.35Z" fill="#cfcce0"/>
</svg>
